{
.appVersion = "3151";
.formatVersion = 3;
DisplayStrings = (
"̈ё",
"Ф",
"З",
"г",
"соглансн л
согласн",
"соvтласн",
"Cİ",
"Trabas. ",
"1903"
);
axes = (
{
name = Weight;
tag = wght;
}
);
customParameters = (
{
name = "Use Typo Metrics";
value = 1;
}
);
date = "2023-01-10 15:10:13 +0000";
familyName = Geist;
featurePrefixes = (
{
automatic = 1;
code = "languagesystem DFLT dflt;
languagesystem DFLT MAH;

languagesystem latn dflt;
languagesystem latn AZE;
languagesystem latn CRT;
languagesystem latn KAZ;
languagesystem latn TAT;
languagesystem latn TRK;
languagesystem latn ROM;
languagesystem latn MOL;
languagesystem latn MAH;
languagesystem latn NLD;
";
name = Languagesystems;
}
);
features = (
{
automatic = 1;
code = "feature locl;
feature subs;
feature sinf;
feature sups;
feature frac;
feature ordn;
feature pnum;
feature tnum;
feature fwid;
feature ss01;
feature ss02;
feature ss03;
feature ss04;
feature ss05;
feature ss06;
feature ss07;
feature ss08;
feature ss09;
";
tag = aalt;
},
{
automatic = 1;
code = "lookup ccmp_Other_1 {
	@CombiningTopAccents = [acutecomb brevecomb caroncomb circumflexcomb commaturnedabovecomb dieresiscomb dotaccentcomb gravecomb hungarumlautcomb macroncomb ringcomb tildecomb];
	@CombiningNonTopAccents = [cedillacomb ogonekcomb strokeshortcomb];
	sub [i j]' @CombiningTopAccents by [idotless jdotless];
	sub [i j]' @CombiningNonTopAccents @CombiningTopAccents by [idotless jdotless];
} ccmp_Other_1;
";
tag = ccmp;
},
{
automatic = 1;
code = "lookup locl_noScript_0 {
	language MAH;
	sub commaaccentcomb by commaaccentcomb.loclMAH;
} locl_noScript_0;

lookup locl_latn_0 {
	script latn;
	language AZE;
	sub i by idotaccent;
	language CRT;
	sub i by idotaccent;
	language KAZ;
	sub i by idotaccent;
	language TAT;
	sub i by idotaccent;
	language TRK;
	sub i by idotaccent;
} locl_latn_0;

lookup locl_latn_1 {
	script latn;
	language ROM;
	sub Scedilla by Scommaaccent;
	sub scedilla by scommaaccent;
	sub Tcedilla by Tcommaaccent;

glyphs = (
{
glyphname = A;
kernLeft = A;
kernRight = A;
lastChange = "2023-11-09 15:31:35 +0000";
layers = (
{
anchors = (
{
name = ogonek;
pos = (588,0);
},
{
name = top;
pos = (306,710);
}
);
background = {
shapes = (
{
closed = 1;
nodes = (
(123,0,l),
(206,239,l),
(350,655,l),
(335,655,l),
(475,247,l),
(561,0,l),
(657,0,l),
(401,710,l),
(283,710,l),
(27,0,l)
);
},
{
closed = 1;
nodes = (
(170,201,l),
(525,201,l),
(525,287,l),
(170,287,l)
);
}
);
};
layerId = "EE2FFE84-06F1-4AFB-BBEC-60D09A436D14";
shapes = (
{
closed = 1;
nodes = (
(57,0,l),
(143,235,l),
(469,235,l),
(555,0,l),
(588,0,l),
(325,710,l),
(287,710,l),
(24,0,l)
);
},
{
closed = 1;
nodes = (
(306,678,l),
(458,265,l),
(154,265,l)
);
}
);
width = 612;
},
{
anchors = (
{
name = bottom;
pos = (352,0);
},
{
name = ogonek;
pos = (634,0);
},
{
name = top;
pos = (352,710);
}
);
associatedMasterId = "EE2FFE84-06F1-4AFB-BBEC-60D09A436D14";
background = {
shapes = (
{
closed = 1;
nodes = (
(133,0,l),
(216,239,l),
(360,655,l),
(345,655,l),
(485,247,l),
(571,0,l),
(667,0,l),
(411,710,l),
(293,710,l),
(37,0,l)
);
},
{
closed = 1;
nodes = (
(180,201,l),
(535,201,l),
(535,287,l),
(180,287,l)
);
}
);
};
layerId = "B79994D4-476F-4D20-B932-F759658767FF";
name = "22 Feb 23 16:32";
shapes = (
{
closed = 1;
nodes = (
(103,0,l),
(352,678,l),
(601,0,l),
(634,0,l),
(371,710,l),
(333,710,l),
(70,0,l)
);
},
{
closed = 1;
nodes = (
(180,235,l),
(528,235,l),
(528,265,l),
(180,265,l)
);
}
);
width = 704;
},
{
anchors = (
{
name = ogonek;
pos = (649,0);
},
{
name = top;
pos = (335,710);
}
);
layerId = "6C190511-B94A-4F5A-B519-D6E9DB0E7B93";
shapes = (
{
closed = 1;
nodes = (
(115,0,l),
(186,202,l),
(484,202,l),
(555,0,l),
(649,0,l),
(393,710,l),
(277,710,l),
(21,0,l)
);
},
{
closed = 1;
nodes = (
(335,635,l),
(455,286,l),
(215,286,l)
);
}
);
width = 670;
},
{
anchors = (
{
name = ogonek;
pos = (755,0);
},
{
name = top;
pos = (395,710);
}
);
layerId = "3507EE3D-0D92-4546-A145-3A991F0A2B71";
shapes = (
{
closed = 1;
nodes = (
(226,0,l),
(266,117,l),
(522,117,l),
(562,0,l),
(762,0,l),
(506,710,l),
(283,710,l),
(27,0,l)
);
},
{
closed = 1;
nodes = (
(395,494,l),
(471,269,l),
(318,269,l)
);
}
);
width = 790;
}
);
metricLeft = V;
metricRight = V;
unicode = 65;
},
{
glyphname = AE;
lastChange = "2023-11-09 15:31:35 +0000";
layers = (
{
layerId = "EE2FFE84-06F1-4AFB-BBEC-60D09A436D14";
shapes = (
{
closed = 1;
nodes = (
(24,0,l),
(60,0,l),
(179,231,l),
(451,231,l),
(451,0,l),
(840,0,l),
(840,30,l),
(483,30,l),
(483,341,l),
(820,341,l),
(820,371,l),
(483,371,l),
(483,680,l),
(832,680,l),
(832,710,l),
(395,710,l)
);
},
{
closed = 1;
nodes = (
(412,680,l),
(451,680,l),
(451,261,l),
(193,261,l)
);
}
);
width = 890;
},
{
layerId = "6C190511-B94A-4F5A-B519-D6E9DB0E7B93";
shapes = (
{
closed = 1;
nodes = (
(21,0,l),
(118,0,l),
(222,202,l),
(494,202,l),
(494,0,l),
(917,0,l),
(917,84,l),
(580,84,l),
(580,315,l),
(897,315,l),
(897,397,l),
(580,397,l),
(580,626,l),
(909,626,l),
(909,710,l),
(401,710,l)
);
},
{
closed = 1;
nodes = (
(443,629,l),
(494,629,l),
(494,286,l),
(265,286,l)
);
}
);
width = 974.1;
},
{
layerId = "3507EE3D-0D92-4546-A145-3A991F0A2B71";
shapes = (
{
closed = 1;
nodes = (
(27,0,l),
(229,0,l),
(300,138,l),
(554,138,l),
(554,0,l),
(1061,0,l),
(1061,157,l),
(750,157,l),
(750,278,l),
(1041,278,l),
(1041,434,l),
(750,434,l),
(750,553,l),
(1053,553,l),
(1053,710,l),
(407,710,l)
);
},
{
closed = 1;
nodes = (
(516,554,l),
(554,554,l),
(554,308,l),
(389,308,l)
);
}
);
width = 1099;
}
);
metricLeft = A;
metricRight = E;
unicode = 198;
},
{
glyphname = B;
kernLeft = H;
kernRight = B;
lastChange = "2023-11-09 15:31:35 +0000";
layers = (
{
background = {
shapes = (
{
closed = 1;
nodes = (
(344,0,ls),
(499,0,o),
(586,72,o),
(586,201,cs),
(586,305,o),
(511,370,o),
(391,370,c),
(392,364,l),
(488,364,o),
(556,426,o),
(556,513,cs),
(556,645,o),
(472,710,o),
(304,710,cs),
(79,710,l),
(79,0,l)
);
},
{
closed = 1;
nodes = (
(167,318,l),
(344,318,ls),
(440,318,o),
(494,276,o),
(494,201,cs),
(494,127,o),
(440,86,o),
(344,86,cs),
(167,86,l)
);
},
{
closed = 1;
nodes = (
(167,624,l),
(304,624,ls),
(411,624,o),
(464,587,o),
(464,513,cs),
(464,443,o),
(407,404,o),
(304,404,cs),
(167,404,l)
);
}
);
};
layerId = "EE2FFE84-06F1-4AFB-BBEC-60D09A436D14";
shapes = (
{
closed = 1;
nodes = (
(353,0,ls),
(507,0,o),
(583,63,o),
(583,189,cs),
(583,294,o),
(504,360,o),
(378,360,c),
(378,354,l),
(481,354,o),
(553,423,o),
(553,520,cs),
(553,647,o),
(473,710,o),
(313,710,cs),
(96,710,l),
(96,0,l)
);
},
{
closed = 1;
nodes = (
(128,339,l),
(353,339,ls),
(473,339,o),
(549,281,o),
(549,189,cs),
(549,83,o),
(484,30,o),
(353,30,cs),
(128,30,l)
);
},
{
closed = 1;
nodes = (
(128,680,l),
(313,680,ls),
(451,680,o),
(519,627,o),
(519,520,cs),
(519,423,o),
(445,369,o),
(313,369,cs),
(128,369,l)
);
}
);
width = 638;
},
{
layerId = "6C190511-B94A-4F5A-B519-D6E9DB0E7B93";
shapes = (
{
closed = 1;
nodes = (
(376,0,ls),
(531,0,o),
(618,72,o),
(618,201,cs),
(618,305,o),
(543,370,o),
(422,370,c),
(423,364,l),
(525,364,o),
(588,421,o),
(588,513,cs),
(588,645,o),
(504,710,o),
(336,710,cs),
(92,710,l),
(92,0,l)
);
},
{
closed = 1;
nodes = (
(178,319,l),
(376,319,ls),
(473,319,o),
(528,276,o),
(528,201,cs),
(528,126,o),
(473,84,o),
(376,84,cs),
(178,84,l)
);
},
{
closed = 1;
nodes = (
(178,626,l),
(336,626,ls),
(444,626,o),
(498,588,o),
(498,513,cs),
(498,442,o),
(440,403,o),
(336,403,cs),
(178,403,l)
);
}
);
width = 679.56667;
},
{
layerId = "3507EE3D-0D92-4546-A145-3A991F0A2B71";
shapes = (
{
closed = 1;
nodes = (
(370,0,ls),
(573,0,o),
(675,68,o),
(675,201,cs),
(675,300,o),
(617,354,o),
(498,366,c),
(498,368,l),
(594,380,o),
(645,430,o),
(645,513,cs),
(645,651,o),
(541,710,o),
(330,710,cs),
(62,710,l),
(62,0,l)
);
},
{
closed = 1;
nodes = (
(258,297,l),
(377,297,ls),
(435,297,o),
(479,274,o),
(479,223,cs),
(479,172,o),
(434,150,o),
(377,150,cs),
(258,150,l)
);
},
{
closed = 1;
nodes = (
(258,560,l),
(352,560,ls),
(409,560,o),
(449,540,o),
(449,492,cs),
(449,446,o),
(408,425,o),
(352,425,cs),
(258,425,l)
);
}
);
width = 717.94836;
}
);
metricLeft = H;
metricRight = R;
unicode = 66;
},
{
glyphname = C;
kernLeft = O;
kernRight = C;
lastChange = "2023-11-09 15:31:35 +0000";
layers = (
{
anchors = (
{
name = bottom;
pos = (354,0);
},
{
name = top;
pos = (354,710);
}
);
background = {
shapes = (
{
closed = 1;
nodes = (
(523,232,l),
(561,276,l),
(555,160,o),
(486,70,o),
(362,70,cs),
(201,70,o),
(132,203,o),
(132,354,cs),
(132,506,o),
(200,640,o),
(362,640,cs),
(483,640,o),
(551,556,o),
(559,445,c),
(522,494,l),
(713,506,l),
(652,446,l),
(638,605,o),
(534,726,o),
(362,726,cs),
(156,726,o),
(40,560,o),
(40,354,cs),
(40,149,o),
(157,-16,o),
(362,-16,cs),
(546,-16,o),
(645,111,o),
(655,276,c),
(714,220,l)
);
}
);
};
layerId = "EE2FFE84-06F1-4AFB-BBEC-60D09A436D14";
shapes = (
{
closed = 1;
nodes = (
(587,249,l),
(564,97,o),
(474,16,o),
(354,16,cs),
(188,16,o),
(84,146,o),
(84,354,cs),
(84,563,o),
(188,694,o),
(354,694,cs),
(471,694,o),
(558,610,o),
(581,477,c),
(615,481,l),
(585,638,o),
(484,726,o),
(354,726,cs),
(167,726,o),
(50,583,o),
(50,354,cs),
(50,127,o),
(167,-16,o),
(354,-16,cs),
(492,-16,o),
(596,78,o),
(621,245,c)
);
}
);
width = 666;
},
{
anchors = (
{
name = bottom;
pos = (370,0);
},
{
name = top;
pos = (370,710);
}
);
layerId = "6C190511-B94A-4F5A-B519-D6E9DB0E7B93";
shapes = (
{
closed = 1;
nodes = (
(565,240,l),
(544,130,o),
(474,68,o),
(370,68,cs),
(209,68,o),
(139,201,o),
(139,354,cs),
(139,508,o),
(208,642,o),
(370,642,cs),
(468,642,o),
(537,586,o),
(560,486,c),
(651,492,l),
(620,632,o),
(521,726,o),
(370,726,cs),
(165,726,o),
(49,561,o),
(49,354,cs),
(49,148,o),
(166,-16,o),
(370,-16,cs),
(534,-16,o),
(631,85,o),
(657,234,c)
);
}
);
width = 700.8;
},
{
anchors = (
{
name = bottom;
pos = (392,0);
},
{
name = top;
pos = (392,710);
}
);
layerId = "3507EE3D-0D92-4546-A145-3A991F0A2B71";
shapes = (
{
closed = 1;
nodes = (
(511,277,l),
(499,190,o),
(455,141,o),
(387,141,cs),
(287,141,o),
(236,226,o),
(236,354,cs),
(236,483,o),
(286,569,o),
(387,569,cs),
(452,569,o),
(497,522,o),
(511,441,c),
(714,448,l),
(683,629,o),
(563,726,o),
(392,726,cs),
(178,726,o),
(35,568,o),
(35,354,cs),
(35,140,o),
(178,-16,o),
(392,-16,cs),
(565,-16,o),
(684,84,o),
(715,270,c)
);
}
);
width = 745;
}
);
metricLeft = O;
metricRight = "=O-5";
unicode = 67;
},
{
glyphname = D;
kernLeft = H;
kernRight = O;
lastChange = "2023-11-09 15:31:35 +0000";
layers = (
{
anchors = (
{
name = bottom;
pos = (349,0);
},
{
name = top;
pos = (349,710);
}
);
background = {
shapes = (
{
closed = 1;
nodes = (
(52,0,l),
(278,0,ls),
(479,0,o),
(614,151,o),
(614,354,cs),
(614,560,o),
(478,710,o),
(272,710,cs),
(52,710,l)
);
},
{
closed = 1;
nodes = (
(140,624,l),
(272,624,ls),
(454,624,o),
(522,506,o),
(522,354,cs),
(522,203,o),
(453,86,o),
(272,86,cs),
(140,86,l)
);
}
);
};
layerId = "EE2FFE84-06F1-4AFB-BBEC-60D09A436D14";
shapes = (
{
closed = 1;
nodes = (
(96,0,l),
(304,0,ls),
(511,0,o),
(626,127,o),
(626,354,cs),
(626,582,o),
(508,710,o),
(298,710,cs),
(96,710,l)
);
},
{
closed = 1;
nodes = (
(128,680,l),
(298,680,ls),
(487,680,o),
(592,563,o),
(592,354,cs),
(592,146,o),
(487,30,o),
(298,30,cs),
(128,30,l)
);
}
);
width = 676;
},
{
anchors = (
{
name = bottom;
pos = (329,0);
},
{
name = top;
pos = (323,710);
}
);
layerId = "6C190511-B94A-4F5A-B519-D6E9DB0E7B93";
shapes = (
{
closed = 1;
nodes = (
(92,0,l),
(318,0,ls),
(533,0,o),
(653,127,o),
(653,354,cs),
(653,582,o),
(530,710,o),
(312,710,cs),
(92,710,l)
);
},
{
closed = 1;
nodes = (
(178,626,l),
(312,626,ls),
(479,626,o),
(563,536,o),
(563,354,cs),
(563,174,o),
(479,84,o),
(312,84,cs),
(178,84,l)
);
}
);
width = 702.1;
},
{
anchors = (
{
name = bottom;
pos = (333,0);
},
{
name = top;
pos = (327,710);
}
);
layerId = "3507EE3D-0D92-4546-A145-3A991F0A2B71";
shapes = (
{
closed = 1;
nodes = (
(62,0,l),
(329,0,ls),
(563,0,o),
(694,127,o),
(694,354,cs),
(694,582,o),
(561,710,o),
(323,710,cs),
(62,710,l)
);
},
{
closed = 1;
nodes = (
(258,553,l),
(323,553,ls),
(442,553,o),
(496,491,o),
(496,355,cs),
(496,219,o),
(442,157,o),
(323,157,cs),
(258,157,l)
);
}
);
width = 729.32394;
}
);
metricLeft = H;
metricRight = O;
unicode = 68;
},
{
glyphname = Eth;
lastChange = "2023-11-09 15:31:35 +0000";
layers = (
{
background = {
shapes = (
{
closed = 1;
nodes = (
(142,0,l),
(368,0,ls),
(569,0,o),
(704,151,o),
(704,354,cs),
(704,560,o),
(568,710,o),
(362,710,cs),
(142,710,l)
);
},
{
closed = 1;
nodes = (
(230,624,l),
(362,624,ls),
(544,624,o),
(612,506,o),
(612,354,cs),
(612,203,o),
(543,86,o),
(362,86,cs),
(230,86,l)
);
},
{
closed = 1;
nodes = (
(58,317,l),
(428,317,l),
(428,393,l),
(58,393,l)
);
}
);
};
layerId = "EE2FFE84-06F1-4AFB-BBEC-60D09A436D14";
shapes = (
{
closed = 1;
nodes = (
(50,340,l),
(420,340,l),
(420,370,l),
(50,370,l)
);
},
{
pos = (89,0);
ref = D;
}
);
width = 765;
},
{
layerId = "6C190511-B94A-4F5A-B519-D6E9DB0E7B93";
shapes = (
{
closed = 1;
nodes = (
(49,318,l),
(419,318,l),
(419,392,l),
(49,392,l)
);
},
{
alignment = -1;
pos = (88,0);
ref = D;
}
);
width = 790.13333;
},
{
layerId = "3507EE3D-0D92-4546-A145-3A991F0A2B71";
shapes = (
{
closed = 1;
nodes = (
(35,310,l),
(420,310,l),
(420,400,l),
(35,400,l)
);
},
{
alignment = -1;
pos = (68,0);
ref = D;
}
);
width = 797.22066;
}
);
metricLeft = O;
metricRight = O;
unicode = 208;
},
{
glyphname = E;
kernLeft = H;
kernRight = E;
lastChange = "2023-11-09 15:31:35 +0000";
layers = (
{
anchors = (
{
name = bottom;
pos = (306,0);
},
{
name = ogonek;
pos = (523,0);
},
{
name = top;
pos = (306,710);
}
);
background = {
shapes = (
{
closed = 1;
nodes = (
(70,0,l),
(525,0,l),
(525,86,l),
(158,86,l),
(158,314,l),
(505,314,l),
(505,398,l),
(158,398,l),
(158,624,l),
(517,624,l),
(517,710,l),
(70,710,l)
);
}
);
};
layerId = "EE2FFE84-06F1-4AFB-BBEC-60D09A436D14";
shapes = (
{
closed = 1;
nodes = (
(96,0,l),
(523,0,l),
(523,30,l),
(128,30,l),
(128,339,l),
(503,339,l),
(503,369,l),
(128,369,l),
(128,680,l),
(515,680,l),
(515,710,l),
(96,710,l)
);
}
);
width = 573;
},
{
anchors = (
{
name = bottom;
pos = (319,0);
},
{
name = ogonek;
pos = (546,0);
},
{
name = top;
pos = (317,711);
}
);
layerId = "6C190511-B94A-4F5A-B519-D6E9DB0E7B93";
shapes = (
{
closed = 1;
nodes = (
(92,0,l),
(546,0,l),
(546,84,l),
(178,84,l),
(178,315,l),
(526,315,l),
(526,397,l),
(178,397,l),
(178,626,l),
(538,626,l),
(538,710,l),
(92,710,l)
);
}
);
width = 602.96667;
},
{
anchors = (
{
name = bottom;
pos = (325,0);
},
{
name = ogonek;
pos = (596,0);
},
{
name = top;
pos = (325,711);
}
);
layerId = "3507EE3D-0D92-4546-A145-3A991F0A2B71";
shapes = (
{
closed = 1;
nodes = (
(62,0,l),
(596,0,l),
(596,157,l),
(258,157,l),
(258,278,l),
(576,278,l),
(576,434,l),
(258,434,l),
(258,553,l),
(588,553,l),
(588,710,l),
(62,710,l)
);
}
);
width = 633.87793;
}
);
metricLeft = H;
unicode = 69;
},
{
glyphname = Schwa;
lastChange = "2023-11-09 15:31:35 +0000";
layers = (
{
layerId = "EE2FFE84-06F1-4AFB-BBEC-60D09A436D14";
shapes = (
{
closed = 1;
nodes = (
(50,356,ls),
(50,138,o),
(174,-15,o),
(351,-15,cs),
(527,-15,o),
(651,138,o),
(651,356,cs),
(651,573,o),
(527,726,o),
(351,726,cs),
(225,726,o),
(109,641,o),
(70,519,c),
(104,516,l),
(143,621,o),
(245,694,o),
(351,694,cs),
(506,694,o),
(615,558,o),
(618,365,c),
(50,365,l)
);
},
{
closed = 1;
nodes = (
(200,17,o),
(92,147,o),
(84,335,c),
(618,335,l),
(610,147,o),
(502,17,o),
(351,17,cs)
);
}
);
width = 701;
},
{
anchors = (
{
name = bottom;
pos = (354.527,1.053);
},
{
name = ogonek;
pos = (270.256,710);
},
{
name = top;
pos = (354.527,710);
}
);
associatedMasterId = "EE2FFE84-06F1-4AFB-BBEC-60D09A436D14";
layerId = "72007AC6-C5A5-4BC2-857D-6E6F5A11D494";
name = "22 Feb 23 16:42";
shapes = (
{
closed = 1;
nodes = (
(634,365,l),
(54,365,l),
(56,335,l),
(634,335,l)
);
},
{
closed = 1;
nodes = (
(54,364,l),
(54,361,o),
(54,358,o),
(54,356,cs),
(54,138,o),
(178,-15,o),
(355,-15,cs),
(531,-15,o),
(655,138,o),
(655,356,cs),
(655,573,o),
(531,726,o),
(355,726,cs),
(229,726,o),
(113,641,o),
(74,519,c),
(108,516,l),
(147,621,o),
(249,694,o),
(355,694,cs),
(512,694,o),
(622,554,o),
(622,356,cs),
(622,157,o),
(512,17,o),
(355,17,cs),
(198,17,o),
(88,157,o),
(88,356,cs),
(88,358,o),
(88,361,o),
(88,364,c)
);
}
);
width = 709;
},
{
layerId = "6C190511-B94A-4F5A-B519-D6E9DB0E7B93";
shapes = (
{
closed = 1;
nodes = (
(50,340,ls),
(62,86,o),
(199,-16,o),
(353,-16,cs),
(541,-16,o),
(672,137,o),
(672,355,cs),
(672,581,o),
(546,726,o),
(353,726,cs),
(219,726,o),
(109,642,o),
(68,509,c),
(163,501,l),
(200,595,o),
(269,642,o),
(353,642,cs),
(473,642,o),
(572,534,o),
(581,390,c),
(49,390,l)
);
},
{
closed = 1;
nodes = (
(237,68,o),
(161,154,o),
(142,306,c),
(580,306,l),
(558,154,o),
(476,68,o),
(353,68,cs)
);
}
);
width = 721.3;
},
{
layerId = "3507EE3D-0D92-4546-A145-3A991F0A2B71";
shapes = (
{
closed = 1;
nodes = (
(36,354,ls),
(42,131,o),
(195,-16,o),
(383,-16,cs),
(571,-16,o),
(742,137,o),
(742,355,cs),
(742,581,o),
(577,726,o),
(383,726,cs),
(228,726,o),
(100,637,o),
(54,495,c),
(260,486,l),
(284,539,o),
(332,569,o),
(387,569,cs),
(475,569,o),
(535,507,o),
(541,412,c),
(35,412,l)
);
},
{
closed = 1;
nodes = (
(317,141,o),
(266,186,o),
(247,255,c),
(532,255,l),
(512,186,o),
(459,141,o),
(387,141,cs)
);
}
);
width = 777;
}
);
metricLeft = O;
metricRight = O;
unicode = 399;
},
{
glyphname = Ezh;
kernLeft = three;
kernRight = three;
lastChange = "2023-11-09 15:31:35 +0000";
layers = (
{
anchors = (
{
name = top;
pos = (278,710);
}
);
background = {
shapes = (
{
closed = 1;
nodes = (
(33,73,l),
(100,14,o),
(192,-16,o),
(270,-16,cs),
(426,-16,o),
(534,74,o),
(534,201,cs),
(534,313,o),
(451,402,o),
(333,415,c),
(523,610,l),
(523,710,l),
(34,710,l),
(34,624,l),
(414,624,l),
(218,421,l),
(218,334,l),
(272,335,ls),
(372,337,o),
(442,282,o),
(442,201,cs),
(442,124,o),
(371,70,o),
(270,70,cs),
(201,70,o),
(116,105,o),
(33,178,c)
);
}
);
};
layerId = "EE2FFE84-06F1-4AFB-BBEC-60D09A436D14";
shapes = (
{
closed = 1;
nodes = (
(60,95,l),
(118,24,o),
(198,-16,o),
(282,-16,cs),
(411,-16,o),
(504,79,o),
(504,199,cs),
(504,334,o),
(400,423,o),
(253,415,c),
(493,670,l),
(493,710,l),
(64,710,l),
(64,680,l),
(461,680,l),
(218,421,l),
(218,384,l),
(272,385,ls),
(388,387,o),
(470,310,o),
(470,199,cs),
(470,97,o),
(392,16,o),
(282,16,cs),
(200,16,o),
(121,63,o),
(60,146,c)
);
}
);
width = 564;
},
{
anchors = (
{
name = top;
pos = (294,710);
}
);
layerId = "6C190511-B94A-4F5A-B519-D6E9DB0E7B93";
shapes = (
{
closed = 1;
nodes = (
(50,83,l),
(109,22,o),
(200,-16,o),
(287,-16,cs),
(442,-16,o),
(549,74,o),
(549,201,cs),
(549,314,o),
(466,403,o),
(347,415,c),
(538,612,l),
(538,710,l),
(51,710,l),
(51,626,l),
(432,626,l),
(234,421,l),
(234,336,l),
(288,337,ls),
(389,339,o),
(459,283,o),
(459,201,cs),
(459,123,o),
(388,68,o),
(287,68,cs),
(214,68,o),
(122,114,o),
(50,187,c)
);
}
);
width = 599;
},
{
anchors = (
{
name = top;
pos = (334,710);
}
);
layerId = "3507EE3D-0D92-4546-A145-3A991F0A2B71";
shapes = (
{
closed = 1;
nodes = (
(43,90,l),
(108,25,o),
(216,-16,o),
(324,-16,cs),
(510,-16,o),
(629,77,o),
(629,220,cs),
(629,323,o),
(561,396,o),
(462,404,c),
(618,553,l),
(618,710,l),
(51,710,l),
(51,553,l),
(383,553,l),
(253,428,l),
(253,299,l),
(325,300,ls),
(388,301,o),
(429,269,o),
(429,220,cs),
(429,173,o),
(387,141,o),
(324,141,cs),
(235,141,o),
(138,189,o),
(43,281,c)
);
}
);
width = 672.48357;
}
);
metricLeft = three;
metricRight = three;
unicode = 439;
},
{
glyphname = F;
kernLeft = b;
kernRight = F;
lastChange = "2023-11-09 15:31:35 +0000";
layers = (
{
background = {
shapes = (
{
ref = E;
}
);
};
layerId = "EE2FFE84-06F1-4AFB-BBEC-60D09A436D14";
shapes = (
{
closed = 1;
nodes = (
(96,0,l),
(128,0,l),
(128,350,l),
(121,339,l),
(497,339,l),
(497,369,l),
(121,369,l),
(128,344,l),
(128,689,l),
(121,680,l),
(515,680,l),
(515,710,l),
(96,710,l)
);
}
);
width = 560;
},
{
layerId = "6C190511-B94A-4F5A-B519-D6E9DB0E7B93";
shapes = (
{
closed = 1;
nodes = (
(92,0,l),
(178,0,l),
(178,350,l),
(135,306,l),
(520,306,l),
(520,388,l),
(135,388,l),
(178,344,l),
(178,670,l),
(135,626,l),
(538,626,l),
(538,710,l),
(92,710,l)
);
}
);
width = 589.96667;
},
{
layerId = "3507EE3D-0D92-4546-A145-3A991F0A2B71";
shapes = (
{
closed = 1;
nodes = (
(62,0,l),
(258,0,l),
(258,350,l),
(146,269,l),
(563,269,l),
(563,425,l),
(146,425,l),
(258,344,l),
(258,669,l),
(146,553,l),
(581,553,l),
(581,710,l),
(62,710,l)
);
}
);
width = 613.69484;
}
);
metricLeft = H;
metricRight = "=E-5";
unicode = 70;
},
{
glyphname = G;
kernLeft = O;
kernRight = G;
lastChange = "2023-11-09 15:31:35 +0000";
layers = (
{
anchors = (
{
name = bottom;
pos = (354,0);
},
{
name = top;
pos = (354,710);
}
);
background = {
shapes = (
{
pos = (-2,0);
ref = C;
}
);
};
layerId = "EE2FFE84-06F1-4AFB-BBEC-60D09A436D14";
shapes = (
{
closed = 1;
nodes = (
(620,330,l),
(354,330,l),
(354,300,l),
(586,300,l),
(576,126,o),
(486,16,o),
(354,16,cs),
(188,16,o),
(84,146,o),
(84,354,cs),
(84,563,o),
(188,694,o),
(354,694,cs),
(468,694,o),
(550,616,o),
(583,477,c),
(616,481,l),
(583,639,o),
(482,726,o),
(354,726,cs),
(167,726,o),
(50,583,o),
(50,354,cs),
(50,127,o),
(167,-16,o),
(354,-16,cs),
(474,-16,o),
(564,58,o),
(589,177,c),
(583,195,l),
(588,0,l),
(620,0,l)
);
}
);
width = 675;
},
{
anchors = (
{
name = bottom;
pos = (370,0);
},
{
name = top;
pos = (370,710);
}
);
layerId = "6C190511-B94A-4F5A-B519-D6E9DB0E7B93";
shapes = (
{
closed = 1;
nodes = (
(654,359,l),
(370,359,l),
(370,275,l),
(571,275,l),
(563,158,o),
(494,68,o),
(370,68,cs),
(209,68,o),
(139,201,o),
(139,354,cs),
(139,508,o),
(208,642,o),
(370,642,cs),
(473,642,o),
(537,582,o),
(561,486,c),
(651,492,l),
(620,632,o),
(521,726,o),
(370,726,cs),
(165,726,o),
(49,561,o),
(49,354,cs),
(49,148,o),
(166,-16,o),
(370,-16,cs),
(475,-16,o),
(572,51,o),
(591,143,c),
(580,161,l),
(591,0,l),
(654,0,l)
);
}
);
width = 707.86667;
},
{
anchors = (
{
name = bottom;
pos = (390,0);
},
{
name = top;
pos = (392,710);
}
);
layerId = "3507EE3D-0D92-4546-A145-3A991F0A2B71";
shapes = (
{
closed = 1;
nodes = (
(714,377,l),
(385,377,l),
(385,246,l),
(513,246,l),
(498,180,o),
(457,141,o),
(387,141,cs),
(287,141,o),
(236,226,o),
(236,354,cs),
(236,483,o),
(286,569,o),
(387,569,cs),
(451,569,o),
(493,530,o),
(509,459,c),
(712,467,l),
(677,631,o),
(560,726,o),
(392,726,cs),
(178,726,o),
(35,568,o),
(35,354,cs),
(35,140,o),
(178,-16,o),
(377,-16,cs),
(494,-16,o),
(581,40,o),
(607,130,c),
(589,134,l),
(601,0,l),
(714,0,l)
);
}
);
width = 753.93427;
}
);
metricLeft = O;
metricRight = "=O+5";
unicode = 71;
},
{
glyphname = Gstroke;
lastChange = "2023-11-09 15:31:35 +0000";
layers = (
{
layerId = "EE2FFE84-06F1-4AFB-BBEC-60D09A436D14";
shapes = (
{
closed = 1;
nodes = (
(354,300,l),
(586,300,l),
(586,126,o),
(497,16,o),
(354,16,cs),
(188,16,o),
(84,146,o),
(84,354,cs),
(84,563,o),
(188,694,o),
(354,694,cs),
(462,694,o),
(550,618,o),
(583,497,c),
(616,501,l),
(583,639,o),
(482,726,o),
(354,726,cs),
(167,726,o),
(50,583,o),
(50,354,cs),
(50,127,o),
(167,-16,o),
(354,-16,cs),
(517,-16,o),
(620,108,o),
(620,306,cs),
(620,330,l),
(354,330,l)
);
},
{
closed = 1;
nodes = (
(354,169,l),
(669,169,l),
(669,199,l),
(354,199,l)
);
}
);
width = 714;
},
{
layerId = "6C190511-B94A-4F5A-B519-D6E9DB0E7B93";
shapes = (
{
closed = 1;
nodes = (
(370,275,l),
(571,275,l),
(567,158,o),
(497,68,o),
(370,68,cs),
(209,68,o),
(139,201,o),
(139,354,cs),
(139,508,o),
(208,642,o),
(370,642,cs),
(473,642,o),
(537,582,o),
(561,496,c),
(651,502,l),
(620,632,o),
(521,726,o),
(370,726,cs),
(165,726,o),
(49,561,o),
(49,354,cs),
(49,148,o),
(166,-16,o),
(370,-16,cs),
(552,-16,o),
(657,107,o),
(657,315,cs),
(657,359,l),
(370,359,l)
);
},
{
closed = 1;
nodes = (
(370,147,l),
(710,147,l),
(710,221,l),
(370,221,l)
);
}
);
width = 753.63333;
},
{
layerId = "3507EE3D-0D92-4546-A145-3A991F0A2B71";
shapes = (
{
closed = 1;
nodes = (
(385,289,l),
(513,289,l),
(512,194,o),
(469,141,o),
(387,141,cs),
(287,141,o),
(236,226,o),
(236,354,cs),
(236,483,o),
(286,569,o),
(387,569,cs),
(451,569,o),
(493,530,o),
(509,467,c),
(712,477,l),
(675,633,o),
(560,726,o),
(392,726,cs),
(178,726,o),
(35,568,o),
(35,354,cs),
(35,140,o),
(178,-16,o),
(392,-16,cs),
(540,-16,o),
(714,58,o),
(714,335,c),
(714,377,l),
(385,377,l)
);
},
{
closed = 1;
nodes = (
(385,182,l),
(761,182,l),
(761,256,l),
(385,256,l)
);
}
);
width = 791.24883;
}
);
metricLeft = G;
metricRight = "=G-10";
unicode = 484;
},
{
glyphname = H;
kernLeft = b;
kernRight = d;
lastChange = "2023-11-09 16:38:22 +0000";
layers = (
{
anchors = (
{
name = top;
pos = (338,710);
}
);
background = {
shapes = (
{
closed = 1;
nodes = (
(160,0,l),
(160,349,l),
(115,314,l),
(549,314,l),
(504,349,l),
(504,0,l),
(592,0,l),
(592,710,l),
(504,710,l),
(504,365,l),
(549,400,l),
(115,400,l),
(160,365,l),
(160,710,l),
(72,710,l),
(72,0,l)
);
}
);
};
layerId = "EE2FFE84-06F1-4AFB-BBEC-60D09A436D14";
shapes = (
{
closed = 1;
nodes = (
(128,0,l),
(128,359,l),
(119,349,l),
(556,349,l),
(548,359,l),
(548,0,l),
(580,0,l),
(580,710,l),
(548,710,l),
(548,370,l),
(556,379,l),
(119,379,l),
(128,370,l),
(128,710,l),
(96,710,l),
(96,0,l)
);
}
);
width = 676;
},
{
anchors = (
{
name = top;
pos = (352,710);
}
);
layerId = "6C190511-B94A-4F5A-B519-D6E9DB0E7B93";
shapes = (
{
closed = 1;
nodes = (
(178,0,l),
(178,349,l),
(134,315,l),
(569,315,l),
(525,349,l),
(525,0,l),
(611,0,l),
(611,710,l),
(525,710,l),
(525,365,l),
(569,399,l),
(134,399,l),
(178,365,l),
(178,710,l),
(92,710,l),
(92,0,l)
);
}
);
width = 703.06667;
},
{
anchors = (
{
name = top;
pos = (363,710);
}
);
layerId = "3507EE3D-0D92-4546-A145-3A991F0A2B71";
shapes = (
{
closed = 1;
nodes = (
(258,0,l),
(258,335,l),
(175,279,l),
(552,279,l),
(469,335,l),
(469,0,l),
(665,0,l),
(665,710,l),
(469,710,l),
(469,379,l),
(552,436,l),
(175,436,l),
(258,379,l),
(258,710,l),
(62,710,l),
(62,0,l)
);
}
);
width = 726.723;
}
);
unicode = 72;
},
{
glyphname = Hbar;
lastChange = "2023-11-09 15:31:35 +0000";
layers = (
{
layerId = "EE2FFE84-06F1-4AFB-BBEC-60D09A436D14";
shapes = (
{
closed = 1;
nodes = (
(187,0,l),
(219,0,l),
(219,710,l),
(187,710,l)
);
},
{
closed = 1;
nodes = (
(657,0,l),
(689,0,l),
(689,710,l),
(657,710,l)
);
},
{
closed = 1;
nodes = (
(96,586,l),
(96,556,l),
(780,556,l),
(780,586,l)
);
},
{
closed = 1;
nodes = (
(202,377,l),
(202,347,l),
(674,347,l),
(674,377,l)
);
}
);
width = 876;
},
{
layerId = "6C190511-B94A-4F5A-B519-D6E9DB0E7B93";
shapes = (
{
closed = 1;
nodes = (
(156,0,l),
(242,0,l),
(242,710,l),
(156,710,l)
);
},
{
closed = 1;
nodes = (
(626,0,l),
(712,0,l),
(712,710,l),
(626,710,l)
);
},
{
closed = 1;
nodes = (
(92,613,l),
(92,529,l),
(776,529,l),
(776,613,l)
);
},
{
closed = 1;
nodes = (
(177,404,l),
(177,320,l),
(691,320,l),
(691,404,l)
);
}
);
width = 868.26667;
},
{
layerId = "3507EE3D-0D92-4546-A145-3A991F0A2B71";
shapes = (
{
closed = 1;
nodes = (
(122,0,l),
(319,0,l),
(319,710,l),
(122,710,l)
);
},
{
closed = 1;
nodes = (
(566,0,l),
(763,0,l),
(763,710,l),
(566,710,l)
);
},
{
closed = 1;
nodes = (
(62,614,l),
(62,456,l),
(823,456,l),
(823,614,l)
);
},
{
closed = 1;
nodes = (
(185,362,l),
(185,204,l),
(700,204,l),
(700,362,l)
);
}
);
width = 885.31455;
}
);
metricLeft = H;
metricRight = H;
unicode = 294;
},
{
glyphname = I;
kernLeft = b;
kernRight = d;
lastChange = "2023-11-09 15:31:35 +0000";
layers = (
{
anchors = (
{
name = bottom;
pos = (112,0);
},
{
name = ogonek;
pos = (128,0);
},
{
name = top;
pos = (112,710);
}
);
layerId = "EE2FFE84-06F1-4AFB-BBEC-60D09A436D14";
shapes = (
{
closed = 1;
nodes = (
(96,0,l),
(128,0,l),
(128,710,l),
(96,710,l)
);
}
);
width = 224;
},
{
anchors = (
{
name = bottom;
pos = (135,0);
},
{
name = ogonek;
pos = (178,0);
},
{
name = top;
pos = (135,710);
}
);
layerId = "6C190511-B94A-4F5A-B519-D6E9DB0E7B93";
shapes = (
{
closed = 1;
nodes = (
(92,0,l),
(178,0,l),
(178,710,l),
(92,710,l)
);
}
);
width = 270.4;
},
{
anchors = (
{
name = bottom;
pos = (160,0);
},
{
name = ogonek;
pos = (258,0);
},
{
name = top;
pos = (160,710);
}
);
layerId = "3507EE3D-0D92-4546-A145-3A991F0A2B71";
shapes = (
{
closed = 1;
nodes = (
(62,0,l),
(258,0,l),
(258,710,l),
(62,710,l)
);
}
);
width = 320.39437;
}
);
metricLeft = H;
metricRight = H;
unicode = 73;
},
{
glyphname = J;
kernLeft = J;
kernRight = U;
lastChange = "2023-11-09 15:31:35 +0000";
layers = (
{
anchors = (
{
name = top;
pos = (473,710);
}
);
background = {
shapes = (
{
closed = 1;
nodes = (
(27,230,l),
(28,86,o),
(121,-16,o),
(253,-16,cs),
(393,-16,o),
(481,86,o),
(481,248,cs),
(481,710,l),
(393,710,l),
(393,248,ls),
(393,134,o),
(343,70,o),
(253,70,cs),
(167,70,o),
(118,130,o),
(117,238,c)
);
}
);
};
layerId = "EE2FFE84-06F1-4AFB-BBEC-60D09A436D14";
shapes = (
{
closed = 1;
nodes = (
(71,232,l),
(72,86,o),
(158,-16,o),
(279,-16,cs),
(408,-16,o),
(489,86,o),
(489,248,cs),
(489,710,l),
(457,710,l),
(457,248,ls),
(457,101,o),
(388,16,o),
(279,16,cs),
(175,16,o),
(106,101,o),
(105,236,c)
);
}
);
width = 570;
},
{
anchors = (
{
name = top;
pos = (478,710);
}
);
layerId = "6C190511-B94A-4F5A-B519-D6E9DB0E7B93";
shapes = (
{
closed = 1;
nodes = (
(67,230,l),
(68,86,o),
(161,-16,o),
(293,-16,cs),
(432,-16,o),
(520,86,o),
(520,248,cs),
(520,710,l),
(434,710,l),
(434,248,ls),
(434,133,o),
(383,68,o),
(293,68,cs),
(206,68,o),
(156,129,o),
(155,238,c)
);
}
);
width = 597.06667;
},
{
anchors = (
{
name = top;
pos = (502,710);
}
);
layerId = "3507EE3D-0D92-4546-A145-3A991F0A2B71";
shapes = (
{
closed = 1;
nodes = (
(37,266,l),
(38,100,o),
(151,-16,o),
(312,-16,cs),
(482,-16,o),
(600,96,o),
(600,260,cs),
(600,710,l),
(403,710,l),
(403,260,ls),
(403,182,o),
(374,141,o),
(318,141,cs),
(263,141,o),
(234,186,o),
(233,275,c)
);
}
);
width = 646.58216;
}
);
metricLeft = "=U-10";
metricRight = U;
unicode = 74;
},
{
glyphname = K;
kernLeft = H;
kernRight = X;
lastChange = "2023-11-09 15:31:35 +0000";
layers = (
{
anchors = (
{
name = bottom;
pos = (327,0);
},
{
name = top;
pos = (317,710);
}
);
background = {
shapes = (
{
closed = 1;
nodes = (
(42,0,l),
(130,0,l),
(130,710,l),
(42,710,l)
);
},
{
closed = 1;
nodes = (
(44,262,l),
(129,236,l),
(557,710,l),
(449,710,l)
);
},
{
closed = 1;
nodes = (
(178,399,l),
(472,0,l),
(574,0,l),
(275,405,l)
);
}
);
};
layerId = "EE2FFE84-06F1-4AFB-BBEC-60D09A436D14";
shapes = (
{
closed = 1;
nodes = (
(96,0,l),
(128,0,l),
(128,233,l),
(265,380,l),
(558,0,l),
(595,0,l),
(284,401,l),
(573,710,l),
(534,710,l),
(128,275,l),
(128,710,l),
(96,710,l)
);
}
);
width = 625;
},
{
anchors = (
{
name = bottom;
pos = (329,0);
},
{
name = top;
pos = (329,710);
}
);
associatedMasterId = "EE2FFE84-06F1-4AFB-BBEC-60D09A436D14";
background = {
shapes = (
{
closed = 1;
nodes = (
(70,0,l),
(158,0,l),
(158,710,l),
(70,710,l)
);
},
{
closed = 1;
nodes = (
(72,262,l),
(157,236,l),
(585,710,l),
(477,710,l)
);
},
{
closed = 1;
nodes = (
(206,399,l),
(500,0,l),
(602,0,l),
(303,405,l)
);
}
);
};
layerId = "3A429947-F838-409F-94EB-A9A7478FB0A7";
name = "24 de feb. de 23 09:14";
shapes = (
{
closed = 1;
nodes = (
(98,0,l),
(130,0,l),
(130,710,l),
(98,710,l)
);
},
{
closed = 1;
nodes = (
(100,243,l),
(126,229,l),
(575,710,l),
(536,710,l)
);
},
{
closed = 1;
nodes = (
(258,392,l),
(560,0,l),
(597,0,l),
(283,405,l)
);
}
);
width = 600;
},
{
anchors = (
{
name = bottom;
pos = (347,0);
},
{
name = top;
pos = (328,710);
}
);
layerId = "6C190511-B94A-4F5A-B519-D6E9DB0E7B93";
shapes = (
{
closed = 1;
nodes = (
(92,0,l),
(178,0,l),
(178,237,l),
(270,338,l),
(520,0,l),
(625,0,l),
(328,402,l),
(606,710,l),
(497,710,l),
(178,357,l),
(178,710,l),
(92,710,l)
);
}
);
width = 652.06667;
},
{
anchors = (
{
name = bottom;
pos = (364,0);
},
{
name = top;
pos = (358,710);
}
);
layerId = "3507EE3D-0D92-4546-A145-3A991F0A2B71";
shapes = (
{
closed = 1;
nodes = (
(62,0,l),
(258,0,l),
(258,190,l),
(320,266,l),
(494,0,l),
(711,0,l),
(448,393,l),
(697,710,l),
(475,710,l),
(258,429,l),
(258,710,l),
(62,710,l)
);
}
);
width = 740.37089;
}
);
metricLeft = H;
metricRight = X;
unicode = 75;
},
{
glyphname = L;
kernLeft = H;
kernRight = L;
lastChange = "2023-11-09 15:31:35 +0000";
layers = (
{
anchors = (
{
name = bottom;
pos = (303,0);
},
{
name = top;
pos = (112,710);
}
);
background = {
shapes = (
{
ref = E;
}
);
};
layerId = "EE2FFE84-06F1-4AFB-BBEC-60D09A436D14";
shapes = (
{
closed = 1;
nodes = (
(510,0,l),
(510,30,l),
(121,30,l),
(128,21,l),
(128,710,l),
(96,710,l),
(96,0,l)
);
}
);
width = 550;
},
{
anchors = (
{
name = bottom;
pos = (313,0);
},
{
name = top;
pos = (135,710);
}
);
layerId = "6C190511-B94A-4F5A-B519-D6E9DB0E7B93";
shapes = (
{
closed = 1;
nodes = (
(533,0,l),
(533,84,l),
(135,84,l),
(178,40,l),
(178,710,l),
(92,710,l),
(92,0,l)
);
}
);
width = 579.96667;
},
{
anchors = (
{
name = bottom;
pos = (314,0);
},
{
name = top;
pos = (160,710);
}
);
layerId = "3507EE3D-0D92-4546-A145-3A991F0A2B71";
shapes = (
{
closed = 1;
nodes = (
(567,0,l),
(567,157,l),
(146,157,l),
(258,41,l),
(258,710,l),
(62,710,l),
(62,0,l)
);
}
);
width = 595;
}
);
metricLeft = H;
metricRight = "=E-10";
unicode = 76;
},
{
glyphname = Lslash;
lastChange = "2023-11-09 15:31:35 +0000";
layers = (
{
layerId = "EE2FFE84-06F1-4AFB-BBEC-60D09A436D14";
shapes = (
{
closed = 1;
nodes = (
(39,323,l),
(265,427,l),
(252,454,l),
(26,350,l)
);
},
{
pos = (20,0);
ref = L;
}
);
width = 570;
},
{
layerId = "6C190511-B94A-4F5A-B519-D6E9DB0E7B93";
shapes = (
{
closed = 1;
nodes = (
(58,295,l),
(367,439,l),
(330,515,l),
(22,371,l)
);
},
{
alignment = -1;
pos = (35,0);
ref = L;
}
);
width = 615;
},
{
layerId = "3507EE3D-0D92-4546-A145-3A991F0A2B71";
shapes = (
{
closed = 1;
nodes = (
(38,257,l),
(429,438,l),
(382,538,l),
(-8,357,l)
);
},
{
alignment = -1;
pos = (46,0);
ref = L;
}
);
width = 640.70892;
}
);
metricLeft = "=L-70";
metricRight = L;
unicode = 321;
},
{
glyphname = M;
kernLeft = H;
kernRight = H;
lastChange = "2023-11-09 15:31:35 +0000";
layers = (
{
background = {
shapes = (
{
closed = 1;
nodes = (
(52,0,l),
(140,0,l),
(140,710,l),
(52,710,l)
);
},
{
closed = 1;
nodes = (
(345,0,l),
(453,0,l),
(719,710,l),
(624,710,l),
(386,62,l),
(411,62,l),
(174,710,l),
(79,710,l)
);
},
{
closed = 1;
nodes = (
(658,0,l),
(746,0,l),
(746,710,l),
(658,710,l)
);
}
);
};
layerId = "EE2FFE84-06F1-4AFB-BBEC-60D09A436D14";
shapes = (
{
closed = 1;
nodes = (
(96,0,l),
(128,0,l),
(128,678,l),
(407,0,l),
(443,0,l),
(722,678,l),
(722,0,l),
(754,0,l),
(754,710,l),
(700,710,l),
(425,34,l),
(150,710,l),
(96,710,l)
);
}
);
width = 850;
},
{
associatedMasterId = "EE2FFE84-06F1-4AFB-BBEC-60D09A436D14";
background = {
shapes = (
{
closed = 1;
nodes = (
(70,0,l),
(158,0,l),
(158,710,l),
(70,710,l)
);
},
{
closed = 1;
nodes = (
(363,0,l),
(471,0,l),
(737,710,l),
(642,710,l),
(404,62,l),
(429,62,l),
(192,710,l),
(97,710,l)
);
},
{
closed = 1;
nodes = (
(676,0,l),
(764,0,l),
(764,710,l),
(676,710,l)
);
}
);
};
layerId = "1FB2E68D-DD9B-4BCB-982F-D48DBDE51AF6";
name = "5 de feb. de 23 02:23";
shapes = (
{
closed = 1;
nodes = (
(88,0,l),
(120,0,l),
(120,656,l),
(401,0,l),
(435,0,l),
(714,678,l),
(714,0,l),
(746,0,l),
(746,710,l),
(692,710,l),
(417,34,l),
(192,710,l),
(88,710,l)
);
}
);
width = 600;
},
{
layerId = "6C190511-B94A-4F5A-B519-D6E9DB0E7B93";
shapes = (
{
closed = 1;
nodes = (
(92,0,l),
(178,0,l),
(178,538,l),
(381,0,l),
(496,0,l),
(699,538,l),
(699,0,l),
(785,0,l),
(785,710,l),
(665,710,l),
(439,94,l),
(212,710,l),
(92,710,l)
);
}
);
width = 877.06667;
},
{
layerId = "3507EE3D-0D92-4546-A145-3A991F0A2B71";
shapes = (
{
closed = 1;
nodes = (
(62,0,l),
(258,0,l),
(258,414,l),
(400,3,l),
(539,3,l),
(681,414,l),
(681,0,l),
(878,0,l),
(878,710,l),
(618,710,l),
(470,259,l),
(320,710,l),
(62,710,l)
);
}
);
width = 939.51174;
}
);
metricLeft = H;
metricRight = H;
unicode = 77;
},
{
glyphname = N;
kernLeft = H;
kernRight = H;
lastChange = "2023-11-09 15:31:35 +0000";
layers = (
{
anchors = (
{
name = bottom;
pos = (356,0);
},
{
name = top;
pos = (356,710);
}
);
background = {
shapes = (
{
closed = 1;
nodes = (
(52,0,l),
(140,0,l),
(140,603,l),
(484,0,l),
(607,0,l),
(607,710,l),
(519,710,l),
(519,104,l),
(174,710,l),
(52,710,l)
);
}
);
};
layerId = "EE2FFE84-06F1-4AFB-BBEC-60D09A436D14";
shapes = (
{
closed = 1;
nodes = (
(96,0,l),
(128,0,l),
(128,678,l),
(568,0,l),
(615,0,l),
(615,710,l),
(583,710,l),
(583,32,l),
(143,710,l),
(96,710,l)
);
}
);
width = 711;
},
{
anchors = (
{
name = bottom;
pos = (369,0);
},
{
name = top;
pos = (370,710);
}
);
layerId = "6C190511-B94A-4F5A-B519-D6E9DB0E7B93";
shapes = (
{
closed = 1;
nodes = (
(92,0,l),
(178,0,l),
(178,598,l),
(521,0,l),
(646,0,l),
(646,710,l),
(560,710,l),
(560,102,l),
(212,710,l),
(92,710,l)
);
}
);
width = 738.06667;
},
{
anchors = (
{
name = bottom;
pos = (373,0);
},
{
name = top;
pos = (378,710);
}
);
layerId = "3507EE3D-0D92-4546-A145-3A991F0A2B71";
shapes = (
{
closed = 1;
nodes = (
(62,0,l),
(258,0,l),
(258,385,l),
(488,0,l),
(693,0,l),
(693,710,l),
(496,710,l),
(496,305,l),
(261,710,l),
(62,710,l)
);
}
);
width = 754.53991;
}
);
metricLeft = H;
metricRight = H;
unicode = 78;
},
{
glyphname = Eng;
kernLeft = H;
kernRight = H;
lastChange = "2023-11-09 15:31:35 +0000";
layers = (
{
background = {
shapes = (
{
closed = 1;
nodes = (
(92,0,l),
(180,0,l),
(180,595,l),
(559,0,l),
(647,0,l),
(647,710,l),
(559,710,l),
(559,59,l),
(621,65,l),
(211,710,l),
(92,710,l)
);
},
{
closed = 1;
nodes = (
(559,-7,ls),
(559,-42,o),
(535,-64,o),
(496,-64,cs),
(393,-64,l),
(393,-150,l),
(516,-150,ls),
(596,-150,o),
(647,-94,o),
(647,-6,cs),
(647,93,l),
(559,93,l)
);
}
);
};
layerId = "EE2FFE84-06F1-4AFB-BBEC-60D09A436D14";
shapes = (
{
closed = 1;
nodes = (
(96,0,l),
(128,0,l),
(128,678,l),
(583,0,l),
(615,0,l),
(615,710,l),
(583,710,l),
(583,56,l),
(145,710,l),
(96,710,l)
);
},
{
closed = 1;
nodes = (
(583,-30,ls),
(583,-83,o),
(545,-120,o),
(491,-120,cs),
(394,-120,l),
(394,-150,l),
(491,-150,ls),
(564,-150,o),
(615,-100,o),
(615,-30,cs),
(615,33,l),
(583,33,l)
);
}
);
width = 711;
},
{
layerId = "6C190511-B94A-4F5A-B519-D6E9DB0E7B93";
shapes = (
{
closed = 1;
nodes = (
(92,0,l),
(178,0,l),
(178,598,l),
(560,0,l),
(646,0,l),
(646,710,l),
(560,710,l),
(560,159,l),
(209,710,l),
(92,710,l)
);
},
{
closed = 1;
nodes = (
(560,-8,ls),
(560,-46,o),
(538,-66,o),
(496,-66,cs),
(393,-66,l),
(393,-150,l),
(496,-150,ls),
(588,-150,o),
(646,-94,o),
(646,-7,cs),
(646,91,l),
(560,91,l)
);
}
);
width = 738.06667;
},
{
layerId = "3507EE3D-0D92-4546-A145-3A991F0A2B71";
shapes = (
{
closed = 1;
nodes = (
(62,0,l),
(258,0,l),
(258,385,l),
(499,0,l),
(693,0,l),
(693,710,l),
(496,710,l),
(496,321,l),
(260,710,l),
(62,710,l)
);
},
{
closed = 1;
nodes = (
(499,-3,ls),
(499,-33,o),
(480,-49,o),
(443,-49,cs),
(376,-49,l),
(376,-172,l),
(511,-172,ls),
(622,-172,o),
(693,-106,o),
(693,-2,cs),
(693,136,l),
(499,136,l)
);
}
);
width = 754.53991;
}
);
metricLeft = H;
metricRight = H;
unicode = 330;
},
{
glyphname = O;
kernLeft = O;
kernRight = O;
lastChange = "2023-11-09 15:31:35 +0000";
layers = (
{
anchors = (
{
name = bottom;
pos = (357,0);
},
{
name = top;
pos = (357,710);
}
);
background = {
shapes = (
{
closed = 1;
nodes = (
(570,-16,o),
(687,149,o),
(687,354,cs),
(687,560,o),
(571,726,o),
(365,726,cs),
(159,726,o),
(43,560,o),
(43,354,cs),
(43,149,o),
(160,-16,o),
(365,-16,cs)
);
},
{
closed = 1;
nodes = (
(211,70,o),
(135,200,o),
(135,354,cs),
(135,509,o),
(210,640,o),
(365,640,cs),
(520,640,o),
(595,509,o),
(595,354,cs),
(595,200,o),
(519,70,o),
(365,70,cs)
);
}
);
};
layerId = "EE2FFE84-06F1-4AFB-BBEC-60D09A436D14";
shapes = (
{
closed = 1;
nodes = (
(547,-16,o),
(664,127,o),
(664,354,cs),
(664,583,o),
(547,726,o),
(357,726,cs),
(167,726,o),
(50,583,o),
(50,354,cs),
(50,127,o),
(167,-16,o),
(357,-16,cs)
);
},
{
closed = 1;
nodes = (
(188,16,o),
(84,146,o),
(84,354,cs),
(84,563,o),
(188,694,o),
(357,694,cs),
(526,694,o),
(630,563,o),
(630,354,cs),
(630,146,o),
(526,16,o),
(357,16,cs)
);
}
);
width = 714;
},
{
anchors = (
{
name = bottom;
pos = (373,0);
},
{
name = top;
pos = (373,710);
}
);
layerId = "6C190511-B94A-4F5A-B519-D6E9DB0E7B93";
shapes = (
{
closed = 1;
nodes = (
(576,-16,o),
(698,125,o),
(698,354,cs),
(698,585,o),
(576,726,o),
(373,726,cs),
(171,726,o),
(49,585,o),
(49,354,cs),
(49,125,o),
(171,-16,o),
(373,-16,cs)
);
},
{
closed = 1;
nodes = (
(227,68,o),
(139,177,o),
(139,354,cs),
(139,533,o),
(227,642,o),
(373,642,cs),
(520,642,o),
(608,533,o),
(608,354,cs),
(608,177,o),
(520,68,o),
(373,68,cs)
);
}
);
width = 746.86667;
},
{
anchors = (
{
name = bottom;
pos = (395,0);
},
{
name = top;
pos = (395,710);
}
);
layerId = "3507EE3D-0D92-4546-A145-3A991F0A2B71";
shapes = (
{
closed = 1;
nodes = (
(620,-16,o),
(754,126,o),
(754,354,cs),
(754,584,o),
(620,726,o),
(395,726,cs),
(170,726,o),
(35,584,o),
(35,354,cs),
(35,126,o),
(170,-16,o),
(395,-16,cs)
);
},
{
closed = 1;
nodes = (
(295,141,o),
(238,219,o),
(238,354,cs),
(238,490,o),
(295,569,o),
(395,569,cs),
(496,569,o),
(553,490,o),
(553,354,cs),
(553,219,o),
(496,141,o),
(395,141,cs)
);
}
);
width = 789.34272;
}
);
unicode = 79;
},
{
glyphname = Oslash;
lastChange = "2023-11-09 15:31:35 +0000";
layers = (
{
layerId = "EE2FFE84-06F1-4AFB-BBEC-60D09A436D14";
shapes = (
{
ref = O;
},
{
closed = 1;
nodes = (
(69,-16,l),
(107,-16,l),
(656,726,l),
(619,726,l)
);
}
);
width = 714;
},
{
layerId = "6C190511-B94A-4F5A-B519-D6E9DB0E7B93";
shapes = (
{
alignment = -1;
pos = (4,0);
ref = O;
},
{
closed = 1;
nodes = (
(49,-16,l),
(132,-16,l),
(681,726,l),
(599,726,l)
);
}
);
width = 751;
},
{
layerId = "3507EE3D-0D92-4546-A145-3A991F0A2B71";
shapes = (
{
alignment = -1;
ref = O;
},
{
closed = 1;
nodes = (
(48,-16,l),
(179,-16,l),
(736,726,l),
(605,726,l)
);
}
);
width = 789;
}
);
metricLeft = O;
metricRight = O;
unicode = 216;
},
{
glyphname = OE;
lastChange = "2023-11-09 15:31:35 +0000";
layers = (
{
layerId = "EE2FFE84-06F1-4AFB-BBEC-60D09A436D14";
shapes = (
{
closed = 1;
nodes = (
(479,-16,o),
(576,53,o),
(624,169,c),
(624,0,l),
(1021,0,l),
(1021,30,l),
(656,30,l),
(656,339,l),
(1001,339,l),
(1001,369,l),
(656,369,l),
(656,680,l),
(1013,680,l),
(1013,710,l),
(624,710,l),
(624,541,l),
(576,657,o),
(480,726,o),
(354,726,cs),
(170,726,o),
(50,579,o),
(50,354,cs),
(50,131,o),
(171,-16,o),
(354,-16,cs)
);
},
{
closed = 1;
nodes = (
(84,563,o),
(188,694,o),
(354,694,cs),
(520,694,o),
(624,563,o),
(624,354,cs),
(624,146,o),
(520,16,o),
(354,16,cs),
(188,16,o),
(84,146,o),
(84,354,cs)
);
}
);
width = 1071;
},
{
associatedMasterId = "EE2FFE84-06F1-4AFB-BBEC-60D09A436D14";
layerId = "137246E1-289B-43AA-A482-8A8175EABD44";
name = "29 de mar. de 23 18:08";
shapes = (
{
closed = 1;
nodes = (
(519,-16,o),
(630,90,o),
(660,259,c),
(660,450,l),
(630,620,o),
(520,726,o),
(364,726,cs),
(180,726,o),
(60,579,o),
(60,354,cs),
(60,131,o),
(181,-16,o),
(364,-16,cs)
);
},
{
closed = 1;
nodes = (
(198,16,o),
(94,146,o),
(94,354,cs),
(94,563,o),
(198,694,o),
(364,694,cs),
(530,694,o),
(634,563,o),
(634,354,cs),
(634,146,o),
(530,16,o),
(364,16,cs)
);
},
{
closed = 1;
nodes = (
(634,0,l),
(1021,0,l),
(1021,30,l),
(666,30,l),
(666,339,l),
(1001,339,l),
(1001,369,l),
(666,369,l),
(666,680,l),
(1013,680,l),
(1013,710,l),
(634,710,l)
);
}
);
width = 1081;
},
{
layerId = "6C190511-B94A-4F5A-B519-D6E9DB0E7B93";
shapes = (
{
closed = 1;
nodes = (
(474,-16,o),
(553,26,o),
(605,95,c),
(605,0,l),
(1029,0,l),
(1029,84,l),
(691,84,l),
(691,315,l),
(1009,315,l),
(1009,397,l),
(691,397,l),
(691,626,l),
(1021,626,l),
(1021,710,l),
(605,710,l),
(605,615,l),
(553,684,o),
(474,726,o),
(370,726,cs),
(165,726,o),
(49,561,o),
(49,354,cs),
(49,148,o),
(166,-16,o),
(370,-16,cs)
);
},
{
closed = 1;
nodes = (
(139,511,o),
(215,642,o),
(370,642,cs),
(526,642,o),
(602,511,o),
(602,354,cs),
(602,198,o),
(525,68,o),
(370,68,cs),
(216,68,o),
(139,198,o),
(139,354,cs)
);
}
);
width = 1085.5;
},
{
layerId = "3507EE3D-0D92-4546-A145-3A991F0A2B71";
shapes = (
{
closed = 1;
nodes = (
(468,-16,o),
(534,6,o),
(585,44,c),
(585,0,l),
(1093,0,l),
(1093,157,l),
(782,157,l),
(782,278,l),
(1073,278,l),
(1073,434,l),
(782,434,l),
(782,553,l),
(1085,553,l),
(1085,710,l),
(585,710,l),
(585,666,l),
(534,704,o),
(468,726,o),
(392,726,cs),
(178,726,o),
(35,568,o),
(35,354,cs),
(35,140,o),
(178,-16,o),
(392,-16,cs)
);
},
{
closed = 1;
nodes = (
(236,466,o),
(280,569,o),
(392,569,cs),
(503,569,o),
(547,466,o),
(547,354,cs),
(547,243,o),
(503,141,o),
(392,141,cs),
(281,141,o),
(236,243,o),
(236,354,cs)
);
}
);
width = 1131;
}
);
metricLeft = O;
metricRight = E;
unicode = 338;
},
{
glyphname = P;
kernLeft = H;
kernRight = P;
lastChange = "2023-11-09 15:31:35 +0000";
layers = (
{
background = {
shapes = (
{
closed = 1;
nodes = (
(96,0,l),
(184,0,l),
(184,275,l),
(351,275,l),
(510,275,o),
(603,357,o),
(603,495,cs),
(603,630,o),
(510,710,o),
(351,710,c),
(96,710,l)
);
},
{
closed = 1;
nodes = (
(184,624,l),
(351,624,l),
(458,624,o),
(511,581,o),
(511,495,cs),
(511,406,o),
(458,361,o),
(351,361,cs),
(184,361,l)
);
}
);
};
layerId = "EE2FFE84-06F1-4AFB-BBEC-60D09A436D14";
shapes = (
{
closed = 1;
nodes = (
(96,0,l),
(128,0,l),
(128,305,l),
(333,305,l),
(480,305,o),
(573,382,o),
(573,505,cs),
(573,631,o),
(480,710,o),
(333,710,c),
(96,710,l)
);
},
{
closed = 1;
nodes = (
(128,680,l),
(333,680,l),
(465,680,o),
(539,617,o),
(539,505,cs),
(539,396,o),
(465,335,o),
(333,335,cs),
(128,335,l)
);
}
);
width = 618;
},
{
layerId = "6C190511-B94A-4F5A-B519-D6E9DB0E7B93";
shapes = (
{
closed = 1;
nodes = (
(92,0,l),
(178,0,l),
(178,276,l),
(347,276,l),
(505,276,o),
(598,358,o),
(598,495,cs),
(598,630,o),
(505,710,o),
(347,710,c),
(92,710,l)
);
},
{
closed = 1;
nodes = (
(178,626,l),
(347,626,l),
(454,626,o),
(508,582,o),
(508,495,cs),
(508,406,o),
(454,360,o),
(347,360,cs),
(178,360,l)
);
}
);
width = 649.9;
},
{
layerId = "3507EE3D-0D92-4546-A145-3A991F0A2B71";
shapes = (
{
closed = 1;
nodes = (
(62,0,l),
(258,0,l),
(258,225,l),
(366,225,l),
(544,225,o),
(653,318,o),
(653,467,cs),
(653,617,o),
(544,710,o),
(366,710,c),
(62,710,l)
);
},
{
closed = 1;
nodes = (
(258,553,l),
(351,553,ls),
(413,553,o),
(453,523,o),
(453,467,cs),
(453,411,o),
(412,382,o),
(351,382,cs),
(258,382,l)
);
}
);
width = 685.88732;
}
);
metricLeft = H;
metricRight = F;
unicode = 80;
},
{
glyphname = Thorn;
lastChange = "2023-11-09 15:31:35 +0000";
layers = (
{
background = {
shapes = (
{
closed = 1;
nodes = (
(102,710,l),
(70,710,l),
(70,0,l),
(102,0,l)
);
},
{
closed = 1;
nodes = (
(67,497,l),
(267,497,ls),
(374,497,o),
(427,454,o),
(427,368,cs),
(427,279,o),
(374,234,o),
(267,234,cs),
(67,234,l),
(67,148,l),
(267,148,ls),
(426,148,o),
(519,230,o),
(519,368,cs),
(519,503,o),
(426,583,o),
(267,583,cs),
(67,583,l)
);
}
);
};
layerId = "EE2FFE84-06F1-4AFB-BBEC-60D09A436D14";
shapes = (
{
closed = 1;
nodes = (
(128,710,l),
(96,710,l),
(96,0,l),
(128,0,l)
);
},
{
closed = 1;
nodes = (
(112,533,l),
(293,533,ls),
(427,533,o),
(511,469,o),
(511,368,cs),
(511,264,o),
(427,198,o),
(293,198,cs),
(112,198,l),
(112,168,l),
(293,168,ls),
(448,168,o),
(545,245,o),
(545,368,cs),
(545,488,o),
(448,563,o),
(293,563,cs),
(112,563,l)
);
}
);
width = 590;
},
{
layerId = "6C190511-B94A-4F5A-B519-D6E9DB0E7B93";
shapes = (
{
closed = 1;
nodes = (
(178,710,l),
(92,710,l),
(92,0,l),
(178,0,l)
);
},
{
closed = 1;
nodes = (
(117,498,l),
(316,498,ls),
(424,498,o),
(478,455,o),
(478,368,cs),
(478,279,o),
(424,233,o),
(316,233,cs),
(117,233,l),
(117,149,l),
(316,149,ls),
(475,149,o),
(568,231,o),
(568,368,cs),
(568,503,o),
(475,582,o),
(316,582,cs),
(117,582,l)
);
}
);
width = 619.96667;
},
{
layerId = "3507EE3D-0D92-4546-A145-3A991F0A2B71";
shapes = (
{
closed = 1;
nodes = (
(258,710,l),
(62,710,l),
(62,0,l),
(258,0,l)
);
},
{
closed = 1;
nodes = (
(128,425,l),
(343,425,l),
(395,425,o),
(421,405,o),
(421,366,cs),
(421,326,o),
(395,306,o),
(343,306,cs),
(128,306,l),
(128,148,l),
(350,148,l),
(524,148,o),
(622,227,o),
(622,367,cs),
(622,504,o),
(524,583,o),
(350,583,c),
(128,583,l)
);
}
);
width = 655;
}
);
metricLeft = H;
metricRight = P;
unicode = 222;
},
{
glyphname = Q;
kernLeft = O;
kernRight = O;
lastChange = "2023-11-09 15:31:35 +0000";
layers = (
{
anchors = (
{
name = bottom;
pos = (354,0);
},
{
name = top;
pos = (354,710);
}
);
background = {
shapes = (
{
closed = 1;
nodes = (
(565,-16,o),
(682,149,o),
(682,354,cs),
(682,560,o),
(566,726,o),
(360,726,cs),
(154,726,o),
(38,560,o),
(38,354,cs),
(38,149,o),
(155,-16,o),
(360,-16,cs)
);
},
{
closed = 1;
nodes = (
(206,70,o),
(130,200,o),
(130,354,cs),
(130,509,o),
(205,640,o),
(360,640,cs),
(515,640,o),
(590,509,o),
(590,354,cs),
(590,200,o),
(514,70,o),
(360,70,cs)
);
},
{
closed = 1;
nodes = (
(418,208,l),
(326,208,l),
(540,-69,l),
(632,-69,l)
);
}
);
};
layerId = "EE2FFE84-06F1-4AFB-BBEC-60D09A436D14";
shapes = (
{
closed = 1;
nodes = (
(409,-16,o),
(458,-3,o),
(500,22,c),
(570,-69,l),
(606,-69,l),
(524,37,l),
(608,99,o),
(658,211,o),
(658,354,cs),
(658,579,o),
(538,726,o),
(354,726,cs),
(170,726,o),
(50,579,o),
(50,354,cs),
(50,131,o),
(171,-16,o),
(354,-16,cs)
);
},
{
closed = 1;
nodes = (
(84,563,o),
(188,694,o),
(354,694,cs),
(520,694,o),
(624,563,o),
(624,354,cs),
(624,219,o),
(580,117,o),
(505,62,c),
(392,208,l),
(356,208,l),
(481,47,l),
(444,27,o),
(402,16,o),
(354,16,cs),
(188,16,o),
(84,146,o),
(84,354,cs)
);
}
);
width = 708;
},
{
associatedMasterId = "EE2FFE84-06F1-4AFB-BBEC-60D09A436D14";
background = {
shapes = (
{
closed = 1;
nodes = (
(567,-16,o),
(684,149,o),
(684,354,cs),
(684,560,o),
(568,726,o),
(362,726,cs),
(156,726,o),
(40,560,o),
(40,354,cs),
(40,149,o),
(157,-16,o),
(362,-16,cs)
);
},
{
closed = 1;
nodes = (
(208,70,o),
(132,200,o),
(132,354,cs),
(132,509,o),
(207,640,o),
(362,640,cs),
(517,640,o),
(592,509,o),
(592,354,cs),
(592,200,o),
(516,70,o),
(362,70,cs)
);
},
{
closed = 1;
nodes = (
(420,208,l),
(328,208,l),
(542,-69,l),
(634,-69,l)
);
}
);
};
layerId = "57B8AADA-883A-4D88-865F-303C17FF5ECC";
name = "24 de feb. de 23 09:24";
shapes = (
{
ref = O;
},
{
closed = 1;
nodes = (
(402,208,l),
(366,208,l),
(580,-69,l),
(616,-69,l)
);
}
);
width = 728;
},
{
associatedMasterId = "EE2FFE84-06F1-4AFB-BBEC-60D09A436D14";
background = {
shapes = (
{
closed = 1;
nodes = (
(567,-16,o),
(684,149,o),
(684,354,cs),
(684,560,o),
(568,726,o),
(362,726,cs),
(156,726,o),
(40,560,o),
(40,354,cs),
(40,149,o),
(157,-16,o),
(362,-16,cs)
);
},
{
closed = 1;
nodes = (
(208,70,o),
(132,200,o),
(132,354,cs),
(132,509,o),
(207,640,o),
(362,640,cs),
(517,640,o),
(592,509,o),
(592,354,cs),
(592,200,o),
(516,70,o),
(362,70,cs)
);
},
{
closed = 1;
nodes = (
(420,208,l),
(328,208,l),
(542,-69,l),
(634,-69,l)
);
}
);
};
layerId = "64775533-39F8-426A-91C6-DD7A69A21DE2";
name = "24 de feb. de 23 09:25";
shapes = (
{
ref = O;
},
{
closed = 1;
nodes = (
(402,208,l),
(366,208,l),
(580,-69,l),
(616,-69,l)
);
}
);
width = 728;
},
{
anchors = (
{
name = bottom;
pos = (370,0);
},
{
name = top;
pos = (370,710);
}
);
layerId = "6C190511-B94A-4F5A-B519-D6E9DB0E7B93";
shapes = (
{
closed = 1;
nodes = (
(416,-16,o),
(457,-8,o),
(493,7,c),
(552,-69,l),
(642,-69,l),
(556,42,l),
(644,108,o),
(692,223,o),
(692,354,cs),
(692,561,o),
(576,726,o),
(370,726,cs),
(165,726,o),
(49,561,o),
(49,354,cs),
(49,148,o),
(166,-16,o),
(370,-16,cs)
);
},
{
closed = 1;
nodes = (
(139,511,o),
(215,642,o),
(370,642,cs),
(526,642,o),
(602,511,o),
(602,354,cs),
(602,252,o),
(568,161,o),
(503,110,c),
(428,208,l),
(338,208,l),
(438,78,l),
(418,71,o),
(395,68,o),
(370,68,cs),
(216,68,o),
(139,198,o),
(139,354,cs)
);
}
);
width = 740.86667;
},
{
anchors = (
{
name = bottom;
pos = (392,0);
},
{
name = top;
pos = (392,710);
}
);
layerId = "3507EE3D-0D92-4546-A145-3A991F0A2B71";
shapes = (
{
closed = 1;
nodes = (
(443,-16,o),
(490,-7,o),
(532,9,c),
(586,-57,l),
(722,-57,l),
(624,64,l),
(702,130,o),
(748,233,o),
(748,354,cs),
(748,568,o),
(605,726,o),
(392,726,cs),
(178,726,o),
(35,568,o),
(35,354,cs),
(35,140,o),
(178,-16,o),
(392,-16,cs)
);
},
{
closed = 1;
nodes = (
(236,466,o),
(280,569,o),
(392,569,cs),
(503,569,o),
(547,466,o),
(547,354,cs),
(547,297,o),
(534,244,o),
(506,207,c),
(462,261,l),
(327,261,l),
(421,145,l),
(412,142,o),
(402,141,o),
(392,141,cs),
(281,141,o),
(236,243,o),
(236,354,cs)
);
}
);
width = 783.34272;
}
);
metricLeft = O;
metricRight = O;
unicode = 81;
},
{
glyphname = R;
kernLeft = H;
kernRight = R;
lastChange = "2023-11-09 15:31:35 +0000";
layers = (
{
associatedMasterId = "EE2FFE84-06F1-4AFB-BBEC-60D09A436D14";
layerId = "9EE13298-BF92-4B00-8E5D-8782EE099A36";
name = "26 de feb. de 23 23:27";
shapes = (
{
closed = 1;
nodes = (
(517,631,o),
(424,710,o),
(277,710,cs),
(70,710,l),
(70,0,l),
(102,0,l),
(102,311,l),
(277,311,ls),
(518,311,o),
(442,146,o),
(503,0,c),
(536,0,l),
(484,144,o),
(525,285,o),
(379,327,c),
(463,350,o),
(517,415,o),
(517,505,cs)
);
},
{
closed = 1;
nodes = (
(102,680,l),
(277,680,ls),
(409,680,o),
(483,617,o),
(483,505,cs),
(483,400,o),
(409,341,o),
(277,341,cs),
(102,341,l)
);
}
);
width = 606;
},
{
anchors = (
{
name = bottom;
pos = (306,0);
},
{
name = top;
pos = (312,710);
}
);
associatedMasterId = "EE2FFE84-06F1-4AFB-BBEC-60D09A436D14";
background = {
shapes = (
{
closed = 1;
nodes = (
(96,0,l),
(128,0,l),
(128,305,l),
(333,305,l),
(480,305,o),
(573,382,o),
(573,505,cs),
(573,631,o),
(480,710,o),
(333,710,c),
(96,710,l)
);
},
{
closed = 1;
nodes = (
(128,680,l),
(333,680,l),
(465,680,o),
(539,617,o),
(539,505,cs),
(539,396,o),
(465,335,o),
(333,335,cs),
(128,335,l)
);
}
);
};
layerId = "A962C063-6C0C-461E-9F2C-0D2D3C0B8A7D";
name = "16 de may. de 23 13:25";
shapes = (
{
closed = 1;
nodes = (
(96,0,l),
(128,0,l),
(128,311,l),
(333,311,ls),
(594,311,o),
(494,146,o),
(555,0,c),
(588,0,l),
(536,144,o),
(601,285,o),
(435,327,c),
(519,350,o),
(573,415,o),
(573,505,cs),
(573,636,o),
(487,710,o),
(333,710,cs),
(96,710,l)
);
},
{
closed = 1;
nodes = (
(128,680,l),
(333,680,ls),
(471,680,o),
(539,622,o),
(539,505,cs),
(539,400,o),
(465,341,o),
(333,341,cs),
(128,341,l)
);
}
);
width = 643;
},
{
anchors = (
{
name = bottom;
pos = (318,0);
},
{
name = top;
pos = (324,710);
}
);
background = {
anchors = (
{
name = bottom;
pos = (308,0);
},
{
name = top;
pos = (314,710);
}
);
shapes = (
{
closed = 1;
nodes = (
(98,0,l),
(130,0,l),
(130,311,l),
(335,311,ls),
(596,311,o),
(496,146,o),
(557,0,c),
(590,0,l),
(538,144,o),
(603,285,o),
(437,327,c),
(521,350,o),
(575,415,o),
(575,505,cs),
(575,636,o),
(489,710,o),
(335,710,cs),
(98,710,l)
);
},
{
closed = 1;
nodes = (
(130,680,l),
(335,680,ls),
(473,680,o),
(541,622,o),
(541,505,cs),
(541,400,o),
(467,341,o),
(335,341,cs),
(130,341,l)
);
}
);
};
layerId = "EE2FFE84-06F1-4AFB-BBEC-60D09A436D14";
name = Thin;
shapes = (
{
closed = 1;
nodes = (
(96,0,l),
(128,0,l),
(128,311,l),
(335,311,ls),
(462,311,o),
(520,280,o),
(526,208,cs),
(542,0,l),
(575,0,l),
(558,209,ls),
(551,289,o),
(487,334,o),
(380,333,c),
(405,323,l),
(507,337,o),
(575,404,o),
(575,505,cs),
(575,636,o),
(489,710,o),
(335,710,cs),
(96,710,l)
);
},
{
closed = 1;
nodes = (
(128,680,l),
(335,680,ls),
(473,680,o),
(541,622,o),
(541,505,cs),
(541,400,o),
(467,341,o),
(335,341,cs),
(128,341,l)
);
}
);
width = 630;
},
{
anchors = (
{
name = bottom;
pos = (350,0);
},
{
name = top;
pos = (337,710);
}
);
layerId = "6C190511-B94A-4F5A-B519-D6E9DB0E7B93";
name = Thin;
shapes = (
{
closed = 1;
nodes = (
(92,0,l),
(178,0,l),
(178,286,l),
(352,286,ls),
(456,286,o),
(499,265,o),
(505,200,cs),
(523,0,l),
(610,0,l),
(590,209,ls),
(581,302,o),
(536,335,o),
(424,335,c),
(454,326,l),
(527,330,o),
(603,399,o),
(603,495,cs),
(603,627,o),
(510,710,o),
(361,710,cs),
(92,710,l)
);
},
{
closed = 1;
nodes = (
(178,626,l),
(361,626,ls),
(459,626,o),
(513,579,o),
(513,497,cs),
(513,415,o),
(458,370,o),
(361,370,cs),
(178,370,l)
);
}
);
width = 671.56667;
},
{
anchors = (
{
name = bottom;
pos = (367,0);
},
{
name = top;
pos = (350,710);
}
);
layerId = "3507EE3D-0D92-4546-A145-3A991F0A2B71";
name = "Ultra Black";
shapes = (
{
closed = 1;
nodes = (
(62,0,l),
(258,0,l),
(258,242,l),
(363,242,ls),
(432,242,o),
(459,223,o),
(463,164,cs),
(474,0,l),
(671,0,l),
(655,200,ls),
(649,288,o),
(601,324,o),
(500,324,c),
(506,317,l),
(608,335,o),
(665,395,o),
(665,498,cs),
(665,638,o),
(546,710,o),
(401,710,cs),
(62,710,l)
);
},
{
closed = 1;
nodes = (
(258,553,l),
(365,553,ls),
(430,553,o),
(465,526,o),
(465,475,cs),
(465,426,o),
(430,399,o),
(365,399,cs),
(258,399,l)
);
}
);
width = 713.53991;
}
);
metricLeft = H;
metricRight = "=P+10";
unicode = 82;
},
{
glyphname = S;
kernLeft = O;
kernRight = O;
lastChange = "2023-11-09 15:31:35 +0000";
layers = (
{
anchors = (
{
name = bottom;
pos = (310,0);
},
{
name = top;
pos = (310,710);
}
);
background = {
shapes = (
{
closed = 1;
nodes = (
(45,109,o),
(157,-12,o),
(326,-12,cs),
(460,-12,o),
(581,52,o),
(581,184,cs),
(581,311,o),
(477,357,o),
(334,398,cs),
(200,436,o),
(163,466,o),
(163,527,cs),
(163,593,o),
(222,640,o),
(308,640,cs),
(400,640,o),
(480,562,o),
(485,458,c),
(435,491,l),
(618,503,l),
(575,469,l),
(571,632,o),
(426,726,o),
(320,726,cs),
(167,726,o),
(71,649,o),
(71,527,cs),
(71,419,o),
(140,364,o),
(306,321,cs),
(427,290,o),
(489,240,o),
(489,184,cs),
(489,116,o),
(429,74,o),
(331,74,cs),
(194,74,o),
(147,144,o),
(137,269,c),
(186,236,l),
(3,224,l),
(47,256,l)
);
}
);
};
layerId = "EE2FFE84-06F1-4AFB-BBEC-60D09A436D14";
shapes = (
{
closed = 1;
nodes = (
(60,90,o),
(174,-12,o),
(318,-12,cs),
(459,-12,o),
(563,70,o),
(563,174,cs),
(563,267,o),
(491,328,o),
(326,375,cs),
(162,423,o),
(107,464,o),
(107,540,cs),
(107,635,o),
(181,694,o),
(300,694,cs),
(423,694,o),
(510,616,o),
(510,505,c),
(544,508,l),
(544,630,o),
(439,726,o),
(310,726,cs),
(164,726,o),
(73,654,o),
(73,540,cs),
(73,450,o),
(141,394,o),
(298,352,cs),
(459,309,o),
(529,255,o),
(529,174,cs),
(529,88,o),
(438,20,o),
(323,20,cs),
(194,20,o),
(93,109,o),
(93,222,c),
(60,219,l)
);
}
);
width = 623;
},
{
anchors = (
{
name = bottom;
pos = (331,0);
},
{
name = top;
pos = (330,710);
}
);
layerId = "6C190511-B94A-4F5A-B519-D6E9DB0E7B93";
shapes = (
{
closed = 1;
nodes = (
(71,83,o),
(185,-12,o),
(340,-12,cs),
(469,-12,o),
(589,56,o),
(589,188,cs),
(589,296,o),
(486,360,o),
(357,396,cs),
(267,421,o),
(164,445,o),
(164,531,cs),
(164,599,o),
(224,642,o),
(305,642,cs),
(403,642,o),
(471,583,o),
(484,494,c),
(574,500,l),
(559,631,o),
(458,726,o),
(306,726,cs),
(170,726,o),
(74,651,o),
(74,531,cs),
(74,417,o),
(179,360,o),
(295,331,cs),
(437,295,o),
(499,251,o),
(499,179,cs),
(499,108,o),
(438,72,o),
(347,72,cs),
(235,72,o),
(167,137,o),
(149,233,c),
(59,227,l)
);
}
);
width = 648.13333;
},
{
anchors = (
{
name = bottom;
pos = (359,0);
},
{
name = top;
pos = (359,710);
}
);
layerId = "3507EE3D-0D92-4546-A145-3A991F0A2B71";
shapes = (
{
closed = 1;
nodes = (
(55,84,o),
(181,-12,o),
(366,-12,cs),
(536,-12,o),
(654,70,o),
(654,207,cs),
(654,323,o),
(554,394,o),
(376,428,cs),
(309,443,o),
(260,460,o),
(257,502,cs),
(252,544,o),
(290,572,o),
(347,572,cs),
(407,572,o),
(447,533,o),
(452,468,c),
(645,476,l),
(628,627,o),
(515,726,o),
(352,726,cs),
(174,726,o),
(58,641,o),
(58,506,cs),
(58,392,o),
(152,326,o),
(332,284,cs),
(422,263,o),
(454,243,o),
(456,204,cs),
(457,165,o),
(421,144,o),
(369,144,cs),
(295,144,o),
(250,184,o),
(240,247,c),
(45,238,l)
);
}
);
width = 699.03756;
}
);
metricLeft = "=O+10";
metricRight = "=O+10";
unicode = 83;
},
{
glyphname = Saltillo;
lastChange = "2023-11-09 15:31:35 +0000";
layers = (
{
layerId = "EE2FFE84-06F1-4AFB-BBEC-60D09A436D14";
shapes = (
{
closed = 1;
nodes = (
(50,580,l),
(56,397,l),
(84,397,l),
(90,580,l),
(90,710,l),
(50,710,l)
);
}
);
width = 140;
},
{
layerId = "6C190511-B94A-4F5A-B519-D6E9DB0E7B93";
shapes = (
{
closed = 1;
nodes = (
(49,574,l),
(63,378,l),
(124,378,l),
(137,574,l),
(137,710,l),
(49,710,l)
);
}
);
width = 186.4;
},
{
layerId = "3507EE3D-0D92-4546-A145-3A991F0A2B71";
shapes = (
{
closed = 1;
nodes = (
(35,561,l),
(50,356,l),
(153,356,l),
(166,561,l),
(166,710,l),
(35,710,l)
);
}
);
width = 201;
}
);
metricLeft = O;
metricRight = O;
unicode = 42891;
},
{
glyphname = Germandbls;
lastChange = "2023-11-09 15:31:35 +0000";
layers = (
{
background = {
shapes = (
{
closed = 1;
nodes = (
(197,82,l),
(197,0,l),
(301,0,ls),
(456,0,o),
(553,82,o),
(553,213,cs),
(553,351,o),
(441,428,o),
(262,414,c),
(262,387,l),
(540,657,l),
(505,583,l),
(505,710,l),
(43,710,l),
(43,0,l),
(130,0,l),
(130,628,l),
(450,628,l),
(438,667,l),
(160,397,l),
(207,461,l),
(207,356,l),
(281,357,ls),
(391,359,o),
(463,303,o),
(463,213,cs),
(463,127,o),
(387,82,o),
(301,82,cs)
);
}
);
};
layerId = "EE2FFE84-06F1-4AFB-BBEC-60D09A436D14";
shapes = (
{
closed = 1;
nodes = (
(223,30,l),
(223,0,l),
(357,0,ls),
(499,0,o),
(599,85,o),
(599,206,cs),
(599,341,o),
(489,409,o),
(267,408,c),
(268,404,l),
(597,694,l),
(561,583,l),
(561,710,l),
(272,710,ls),
(150,710,o),
(96,655,o),
(96,530,cs),
(96,0,l),
(128,0,l),
(128,531,ls),
(128,639,o),
(168,680,o),
(273,680,cs),
(559,680,l),
(557,699,l),
(184,367,l),
(233,461,l),
(233,378,l),
(268,378,ls),
(467,378,o),
(565,324,o),
(565,206,cs),
(565,103,o),
(479,30,o),
(357,30,cs)
);
}
);
width = 654;
},
{
layerId = "6C190511-B94A-4F5A-B519-D6E9DB0E7B93";
shapes = (
{
closed = 1;
nodes = (
(245,84,l),
(245,0,l),
(379,0,ls),
(534,0,o),
(631,90,o),
(631,221,cs),
(631,352,o),
(511,436,o),
(339,423,c),
(310,378,l),
(618,649,l),
(583,583,l),
(583,710,l),
(292,710,ls),
(169,710,o),
(92,630,o),
(92,501,cs),
(92,0,l),
(178,0,l),
(178,501,ls),
(178,582,o),
(219,626,o),
(292,626,cs),
(530,626,l),
(518,668,l),
(208,396,l),
(255,461,l),
(255,352,l),
(357,353,ls),
(472,354,o),
(543,303,o),
(543,217,cs),
(543,136,o),
(480,84,o),
(379,84,cs)
);
}
);
width = 692.66667;
},
{
layerId = "3507EE3D-0D92-4546-A145-3A991F0A2B71";
shapes = (
{
closed = 1;
nodes = (
(325,157,l),
(325,0,l),
(437,0,ls),
(630,0,o),
(731,78,o),
(731,221,cs),
(731,354,o),
(594,437,o),
(398,424,c),
(440,319,l),
(741,589,l),
(705,510,l),
(705,710,l),
(364,710,ls),
(165,710,o),
(62,619,o),
(62,445,cs),
(62,0,l),
(258,0,l),
(258,445,ls),
(258,517,o),
(294,553,o),
(364,553,cs),
(587,553,l),
(575,653,l),
(273,382,l),
(335,468,l),
(335,294,l),
(431,295,ls),
(496,295,o),
(532,271,o),
(532,226,cs),
(532,183,o),
(498,157,o),
(437,157,cs)
);
}
);
width = 774;
}
);
metricLeft = H;
metricRight = B;
unicode = 7838;
},
{
glyphname = T;
kernLeft = T;
kernRight = T;
lastChange = "2023-11-09 15:31:35 +0000";
layers = (
{
anchors = (
{
name = bottom;
pos = (286,0);
},
{
name = top;
pos = (286,710);
}
);
background = {
shapes = (
{
closed = 1;
nodes = (
(274,0,l),
(362,0,l),
(362,710,l),
(274,710,l)
);
},
{
closed = 1;
nodes = (
(74,624,l),
(562,624,l),
(562,710,l),
(74,710,l)
);
}
);
};
layerId = "EE2FFE84-06F1-4AFB-BBEC-60D09A436D14";
shapes = (
{
closed = 1;
nodes = (
(28,710,l),
(28,680,l),
(270,680,l),
(270,0,l),
(302,0,l),
(302,680,l),
(544,680,l),
(544,710,l)
);
}
);
width = 572;
},
{
anchors = (
{
name = bottom;
pos = (289,0);
},
{
name = top;
pos = (289,710);
}
);
layerId = "6C190511-B94A-4F5A-B519-D6E9DB0E7B93";
shapes = (
{
closed = 1;
nodes = (
(25,710,l),
(25,626,l),
(246,626,l),
(246,0,l),
(332,0,l),
(332,626,l),
(553,626,l),
(553,710,l)
);
}
);
width = 577.8;
},
{
anchors = (
{
name = bottom;
pos = (334,0);
},
{
name = top;
pos = (334,710);
}
);
layerId = "3507EE3D-0D92-4546-A145-3A991F0A2B71";
shapes = (
{
closed = 1;
nodes = (
(29,710,l),
(29,553,l),
(236,553,l),
(236,0,l),
(433,0,l),
(433,553,l),
(640,553,l),
(640,710,l)
);
}
);
width = 668.4507;
}
);
unicode = 84;
},
{
glyphname = Tbar;
lastChange = "2023-11-09 15:31:35 +0000";
layers = (
{
layerId = "EE2FFE84-06F1-4AFB-BBEC-60D09A436D14";
shapes = (
{
ref = T;
},
{
closed = 1;
nodes = (
(109,333,l),
(462,333,l),
(462,363,l),
(109,363,l)
);
}
);
width = 572;
},
{
layerId = "6C190511-B94A-4F5A-B519-D6E9DB0E7B93";
shapes = (
{
alignment = -1;
ref = T;
},
{
closed = 1;
nodes = (
(113,311,l),
(466,311,l),
(466,385,l),
(113,385,l)
);
}
);
width = 577.8;
},
{
layerId = "3507EE3D-0D92-4546-A145-3A991F0A2B71";
shapes = (
{
alignment = -1;
ref = T;
},
{
closed = 1;
nodes = (
(119,267,l),
(549,267,l),
(549,357,l),
(119,357,l)
);
}
);
width = 668.4507;
}
);
metricLeft = T;
metricRight = T;
unicode = 358;
},
{
glyphname = U;
kernLeft = U;
kernRight = U;
lastChange = "2023-11-09 15:31:35 +0000";
layers = (
{
anchors = (
{
name = bottom;
pos = (331,0);
},
{
name = ogonek;
pos = (428,0);
},
{
name = top;
pos = (331,710);
}
);
background = {
shapes = (
{
closed = 1;
nodes = (
(563,711,l),
(475,711,l),
(475,248,ls),
(475,134,o),
(414,70,o),
(305,70,cs),
(196,70,o),
(135,134,o),
(135,248,cs),
(135,711,l),
(47,711,l),
(47,248,ls),
(47,86,o),
(147,-16,o),
(305,-16,cs),
(463,-16,o),
(563,86,o),
(563,248,cs)
);
}
);
};
layerId = "EE2FFE84-06F1-4AFB-BBEC-60D09A436D14";
shapes = (
{
closed = 1;
nodes = (
(581,711,l),
(549,711,l),
(549,248,ls),
(549,99,o),
(471,16,o),
(331,16,cs),
(191,16,o),
(113,99,o),
(113,248,cs),
(113,711,l),
(81,711,l),
(81,248,ls),
(81,79,o),
(171,-16,o),
(331,-16,cs),
(491,-16,o),
(581,79,o),
(581,248,cs)
);
}
);
width = 662;
},
{
anchors = (
{
name = bottom;
pos = (345,0);
},
{
name = ogonek;
pos = (444,0);
},
{
name = top;
pos = (345,710);
}
);
layerId = "6C190511-B94A-4F5A-B519-D6E9DB0E7B93";
shapes = (
{
closed = 1;
nodes = (
(612,711,l),
(526,711,l),
(526,248,ls),
(526,133,o),
(460,68,o),
(345,68,cs),
(229,68,o),
(163,133,o),
(163,248,cs),
(163,711,l),
(77,711,l),
(77,248,ls),
(77,86,o),
(180,-16,o),
(345,-16,cs),
(509,-16,o),
(612,86,o),
(612,248,cs)
);
}
);
width = 689.06667;
},
{
anchors = (
{
name = bottom;
pos = (356,0);
},
{
name = ogonek;
pos = (463,0);
},
{
name = top;
pos = (356,710);
}
);
layerId = "3507EE3D-0D92-4546-A145-3A991F0A2B71";
shapes = (
{
closed = 1;
nodes = (
(666,711,l),
(469,711,l),
(469,262,ls),
(469,181,o),
(427,141,o),
(356,141,cs),
(286,141,o),
(243,181,o),
(243,262,cs),
(243,711,l),
(47,711,l),
(47,262,ls),
(47,92,o),
(166,-16,o),
(356,-16,cs),
(546,-16,o),
(666,92,o),
(666,262,cs)
);
}
);
width = 712.723;
}
);
metricLeft = "=H-15";
metricRight = "=H-15";
unicode = 85;
},
{
glyphname = V;
kernLeft = V;
kernRight = V;
lastChange = "2023-11-09 15:31:35 +0000";
layers = (
{
background = {
shapes = (
{
closed = 1;
nodes = (
(303,0,l),
(411,0,l),
(667,710,l),
(572,710,l),
(344,62,l),
(369,62,l),
(141,710,l),
(47,710,l)
);
}
);
};
layerId = "EE2FFE84-06F1-4AFB-BBEC-60D09A436D14";
shapes = (
{
closed = 1;
nodes = (
(303,0,l),
(339,0,l),
(618,710,l),
(583,710,l),
(321,34,l),
(59,710,l),
(24,710,l)
);
}
);
width = 642;
},
{
layerId = "6C190511-B94A-4F5A-B519-D6E9DB0E7B93";
shapes = (
{
closed = 1;
nodes = (
(278,0,l),
(391,0,l),
(648,710,l),
(553,710,l),
(335,96,l),
(115,710,l),
(21,710,l)
);
}
);
width = 669.06667;
},
{
layerId = "3507EE3D-0D92-4546-A145-3A991F0A2B71";
shapes = (
{
closed = 1;
nodes = (
(284,0,l),
(505,0,l),
(761,710,l),
(562,710,l),
(395,222,l),
(226,710,l),
(27,710,l)
);
}
);
width = 788.97653;
}
);
unicode = 86;
},
{
glyphname = W;
kernLeft = V;
kernRight = V;
lastChange = "2023-11-09 15:31:35 +0000";
layers = (
{
anchors = (
{
name = bottom;
pos = (439,0);
},
{
name = top;
pos = (439,710);
}
);
background = {
shapes = (
{
closed = 1;
nodes = (
(228,0,l),
(336,0,l),
(475,531,l),
(614,0,l),
(722,0,l),
(908,710,l),
(813,710,l),
(668,121,l),
(522,710,l),
(427,710,l),
(282,121,l),
(136,710,l),
(42,710,l)
);
}
);
};
layerId = "EE2FFE84-06F1-4AFB-BBEC-60D09A436D14";
shapes = (
{
closed = 1;
nodes = (
(223,0,l),
(271,0,l),
(439,676,l),
(607,0,l),
(655,0,l),
(854,710,l),
(821,710,l),
(632,33,l),
(461,710,l),
(417,710,l),
(246,33,l),
(57,710,l),
(24,710,l)
);
}
);
width = 878;
},
{
anchors = (
{
name = bottom;
pos = (455,0);
},
{
name = top;
pos = (455,710);
}
);
layerId = "6C190511-B94A-4F5A-B519-D6E9DB0E7B93";
shapes = (
{
closed = 1;
nodes = (
(208,0,l),
(315,0,l),
(455,536,l),
(595,0,l),
(703,0,l),
(890,710,l),
(795,710,l),
(650,118,l),
(504,710,l),
(406,710,l),
(261,118,l),
(115,710,l),
(21,710,l)
);
}
);
width = 910.86667;
},
{
anchors = (
{
name = bottom;
pos = (522,0);
},
{
name = top;
pos = (522,710);
}
);
layerId = "3507EE3D-0D92-4546-A145-3A991F0A2B71";
shapes = (
{
closed = 1;
nodes = (
(223,0,l),
(421,0,l),
(522,385,l),
(622,0,l),
(821,0,l),
(1016,710,l),
(815,710,l),
(709,272,l),
(600,710,l),
(443,710,l),
(335,272,l),
(228,710,l),
(27,710,l)
);
}
);
width = 1043.84977;
}
);
metricLeft = V;
metricRight = V;
unicode = 87;
},
{
glyphname = X;
kernLeft = X;
kernRight = X;
lastChange = "2023-11-09 15:31:35 +0000";
layers = (
{
background = {
shapes = (
{
closed = 1;
nodes = (
(280,368,l),
(264,359,l),
(30,0,l),
(130,0,l),
(350,337,l),
(367,348,l),
(603,710,l),
(503,710,l)
);
},
{
closed = 1;
nodes = (
(32,710,l),
(277,335,l),
(292,324,l),
(503,0,l),
(605,0,l),
(351,389,l),
(337,399,l),
(134,710,l)
);
}
);
};
guides = (
{
angle = -90;
pos = (588,0);
}
);
layerId = "EE2FFE84-06F1-4AFB-BBEC-60D09A436D14";
shapes = (
{
closed = 1;
nodes = (
(309,382,l),
(76,710,l),
(37,710,l),
(287,357,l),
(30,0,l),
(69,0,l),
(309,332,l),
(549,0,l),
(588,0,l),
(331,357,l),
(581,710,l),
(542,710,l)
);
}
);
width = 618;
},
{
associatedMasterId = "EE2FFE84-06F1-4AFB-BBEC-60D09A436D14";
background = {
shapes = (
{
closed = 1;
nodes = (
(280,368,l),
(264,359,l),
(30,0,l),
(130,0,l),
(350,337,l),
(367,348,l),
(603,710,l),
(503,710,l)
);
},
{
closed = 1;
nodes = (
(32,710,l),
(277,335,l),
(292,324,l),
(503,0,l),
(605,0,l),
(351,389,l),
(337,399,l),
(134,710,l)
);
}
);
};
layerId = "C47B0997-5802-47AD-AE45-D8AD767F0936";
name = "5 de feb. de 23 12:24";
shapes = (
{
closed = 1;
nodes = (
(322,368,l),
(284,359,l),
(50,0,l),
(88,0,l),
(308,337,l),
(347,348,l),
(583,710,l),
(545,710,l)
);
},
{
closed = 1;
nodes = (
(52,710,l),
(297,335,l),
(336,324,l),
(547,0,l),
(585,0,l),
(331,389,l),
(293,399,l),
(90,710,l)
);
}
);
width = 600;
},
{
layerId = "6C190511-B94A-4F5A-B519-D6E9DB0E7B93";
shapes = (
{
closed = 1;
nodes = (
(316,426,l),
(129,710,l),
(29,710,l),
(261,357,l),
(27,0,l),
(125,0,l),
(314,288,l),
(502,0,l),
(602,0,l),
(368,356,l),
(599,710,l),
(501,710,l)
);
}
);
width = 628.63333;
},
{
layerId = "3507EE3D-0D92-4546-A145-3A991F0A2B71";
shapes = (
{
closed = 1;
nodes = (
(391,502,l),
(256,710,l),
(31,710,l),
(278,357,l),
(29,0,l),
(255,0,l),
(390,213,l),
(525,0,l),
(751,0,l),
(502,357,l),
(749,710,l),
(525,710,l)
);
}
);
width = 780.46009;
}
);
unicode = 88;
},
{
glyphname = Y;
kernLeft = V;
kernRight = V;
lastChange = "2023-11-09 15:31:35 +0000";
layers = (
{
anchors = (
{
name = bottom;
pos = (297,0);
},
{
name = top;
pos = (297,710);
}
);
background = {
shapes = (
{
closed = 1;
nodes = (
(365,287,l),
(623,710,l),
(525,710,l),
(333,389,l),
(140,710,l),
(42,710,l),
(301,287,l)
);
},
{
closed = 1;
nodes = (
(289,0,l),
(377,0,l),
(377,360,l),
(289,360,l)
);
}
);
};
layerId = "EE2FFE84-06F1-4AFB-BBEC-60D09A436D14";
shapes = (
{
closed = 1;
nodes = (
(281,290,l),
(281,0,l),
(313,0,l),
(313,290,l),
(569,710,l),
(532,710,l),
(297,321,l),
(62,710,l),
(24,710,l)
);
}
);
width = 593;
},
{
anchors = (
{
name = bottom;
pos = (315,0);
},
{
name = top;
pos = (315,710);
}
);
layerId = "6C190511-B94A-4F5A-B519-D6E9DB0E7B93";
shapes = (
{
closed = 1;
nodes = (
(272,290,l),
(272,0,l),
(358,0,l),
(358,290,l),
(609,710,l),
(507,710,l),
(315,381,l),
(123,710,l),
(21,710,l)
);
}
);
width = 629.73333;
},
{
anchors = (
{
name = bottom;
pos = (370,0);
},
{
name = top;
pos = (370,710);
}
);
layerId = "3507EE3D-0D92-4546-A145-3A991F0A2B71";
shapes = (
{
closed = 1;
nodes = (
(271,266,l),
(271,0,l),
(468,0,l),
(468,266,l),
(711,710,l),
(501,710,l),
(370,447,l),
(238,710,l),
(27,710,l)
);
}
);
width = 739;
}
);
metricLeft = V;
metricRight = V;
unicode = 89;
},
{
glyphname = Z;
kernLeft = Z;
kernRight = Z;
lastChange = "2023-11-09 15:31:35 +0000";
layers = (
{
anchors = (
{
name = bottom;
pos = (266,0);
},
{
name = top;
pos = (266,710);
}
);
background = {
shapes = (
{
closed = 1;
nodes = (
(493,710,l),
(45,710,l),
(45,624,l),
(397,624,l),
(28,97,l),
(28,0,l),
(501,0,l),
(501,86,l),
(123,86,l),
(493,614,l)
);
}
);
};
layerId = "EE2FFE84-06F1-4AFB-BBEC-60D09A436D14";
shapes = (
{
closed = 1;
nodes = (
(485,710,l),
(47,710,l),
(47,680,l),
(450,680,l),
(30,30,l),
(30,0,l),
(493,0,l),
(493,30,l),
(65,30,l),
(485,680,l)
);
}
);
width = 523;
},
{
anchors = (
{
name = bottom;
pos = (279,0);
},
{
name = top;
pos = (279,710);
}
);
layerId = "6C190511-B94A-4F5A-B519-D6E9DB0E7B93";
shapes = (
{
closed = 1;
nodes = (
(507,710,l),
(44,710,l),
(44,626,l),
(407,626,l),
(27,89,l),
(27,0,l),
(515,0,l),
(515,84,l),
(124,84,l),
(507,624,l)
);
}
);
width = 542.33333;
},
{
anchors = (
{
name = bottom;
pos = (326,0);
},
{
name = top;
pos = (326,710);
}
);
layerId = "3507EE3D-0D92-4546-A145-3A991F0A2B71";
shapes = (
{
closed = 1;
nodes = (
(596,710,l),
(53,710,l),
(53,553,l),
(349,553,l),
(29,152,l),
(29,0,l),
(604,0,l),
(604,157,l),
(261,157,l),
(596,574,l)
);
}
);
width = 633.31925;
}
);
unicode = 90;
},
{
glyphname = R.ss04;
kernLeft = H;
kernRight = R;
lastChange = "2023-11-09 15:31:35 +0000";
layers = (
{
anchors = (
{
name = bottom;
pos = (318,0);
},
{
name = top;
pos = (318,710);
}
);
background = {
shapes = (
{
ref = R;
}
);
};
layerId = "EE2FFE84-06F1-4AFB-BBEC-60D09A436D14";
shapes = (
{
closed = 1;
nodes = (
(96,0,l),
(128,0,l),
(128,311,l),
(333,311,ls),
(342,311,o),
(352,311,o),
(360,312,c),
(539,0,l),
(573,0,l),
(392,315,l),
(505,333,o),
(573,403,o),
(573,505,cs),
(573,631,o),
(480,710,o),
(333,710,cs),
(96,710,l)
);
},
{
closed = 1;
nodes = (
(128,680,l),
(333,680,ls),
(465,680,o),
(539,617,o),
(539,505,cs),
(539,400,o),
(465,341,o),
(333,341,cs),
(128,341,l)
);
}
);
width = 628;
},
{
anchors = (
{
name = bottom;
pos = (267,0);
},
{
name = top;
pos = (267,710);
}
);
associatedMasterId = "EE2FFE84-06F1-4AFB-BBEC-60D09A436D14";
background = {
shapes = (
{
closed = 1;
nodes = (
(52,0,l),
(140,0,l),
(140,285,l),
(277,285,l),
(432,285,o),
(529,366,o),
(529,495,cs),
(529,630,o),
(436,710,o),
(277,710,c),
(52,710,l)
);
},
{
closed = 1;
nodes = (
(140,624,l),
(277,624,l),
(380,624,o),
(437,578,o),
(437,497,cs),
(437,416,o),
(380,371,o),
(277,371,cs),
(140,371,l)
);
},
{
closed = 1;
nodes = (
(451,0,l),
(544,0,l),
(367,312,l),
(274,312,l)
);
}
);
};
layerId = "E52F05DD-F8BB-41FB-A85A-A270D0A939B3";
name = "24 de feb. de 23 09:29";
shapes = (
{
closed = 1;
nodes = (
(483,0,l),
(517,0,l),
(335,318,l),
(301,318,l)
);
},
{
closed = 1;
nodes = (
(70,0,l),
(102,0,l),
(102,311,l),
(277,311,l),
(424,311,o),
(517,386,o),
(517,505,cs),
(517,631,o),
(424,710,o),
(277,710,c),
(70,710,l)
);
},
{
closed = 1;
nodes = (
(102,680,l),
(277,680,l),
(409,680,o),
(483,617,o),
(483,505,cs),
(483,400,o),
(409,341,o),
(277,341,cs),
(102,341,l)
);
}
);
width = 587;
},
{
anchors = (
{
name = bottom;
pos = (332,0);
},
{
name = top;
pos = (332,710);
}
);
layerId = "6C190511-B94A-4F5A-B519-D6E9DB0E7B93";
shapes = (
{
closed = 1;
nodes = (
(92,0,l),
(178,0,l),
(178,286,l),
(347,286,ls),
(351,286,o),
(354,286,o),
(358,286,c),
(521,0,l),
(616,0,l),
(446,299,l),
(544,325,o),
(598,396,o),
(598,495,cs),
(598,630,o),
(505,710,o),
(347,710,cs),
(92,710,l)
);
},
{
closed = 1;
nodes = (
(178,626,l),
(347,626,ls),
(451,626,o),
(508,579,o),
(508,497,cs),
(508,415,o),
(451,370,o),
(347,370,cs),
(178,370,l)
);
}
);
width = 678;
},
{
anchors = (
{
name = bottom;
pos = (349,0);
},
{
name = top;
pos = (349,710);
}
);
layerId = "3507EE3D-0D92-4546-A145-3A991F0A2B71";
shapes = (
{
closed = 1;
nodes = (
(62,0,l),
(258,0,l),
(258,244,l),
(347,244,l),
(350,244,o),
(351,244,o),
(354,244,c),
(476,0,l),
(686,0,l),
(535,280,l),
(615,315,o),
(653,393,o),
(653,478,cs),
(653,626,o),
(550,710,o),
(366,710,cs),
(62,710,l)
);
},
{
closed = 1;
nodes = (
(258,553,l),
(351,553,ls),
(410,553,o),
(454,528,o),
(454,475,cs),
(454,423,o),
(410,399,o),
(351,399,cs),
(258,399,l)
);
}
);
width = 729;
}
);
metricLeft = H;
metricRight = "=P+10";
},
{
glyphname = I.ss05;
lastChange = "2023-11-09 15:31:35 +0000";
layers = (
{
anchors = (
{
name = bottom;
pos = (160,0);
},
{
name = ogonek;
pos = (270,0);
},
{
name = top;
pos = (160,710);
}
);
background = {
shapes = (
{
closed = 1;
nodes = (
(4,710,l),
(4,624,l),
(124,624,l),
(124,86,l),
(-2,86,l),
(-2,0,l),
(338,0,l),
(338,86,l),
(212,86,l),
(212,624,l),
(332,624,l),
(332,710,l)
);
}
);
};
layerId = "EE2FFE84-06F1-4AFB-BBEC-60D09A436D14";
shapes = (
{
closed = 1;
nodes = (
(56,710,l),
(56,680,l),
(144,680,l),
(144,30,l),
(50,30,l),
(50,0,l),
(270,0,l),
(270,30,l),
(176,30,l),
(176,680,l),
(264,680,l),
(264,710,l)
);
}
);
width = 320;
},
{
anchors = (
{
name = bottom;
pos = (217,0);
},
{
name = ogonek;
pos = (385,0);
},
{
name = top;
pos = (217,710);
}
);
layerId = "6C190511-B94A-4F5A-B519-D6E9DB0E7B93";
shapes = (
{
closed = 1;
nodes = (
(55,710,l),
(55,626,l),
(174,626,l),
(174,84,l),
(49,84,l),
(49,0,l),
(385,0,l),
(385,84,l),
(260,84,l),
(260,626,l),
(379,626,l),
(379,710,l)
);
}
);
width = 434.06667;
},
{
anchors = (
{
name = bottom;
pos = (246,0);
},
{
name = ogonek;
pos = (458,0);
},
{
name = top;
pos = (246,710);
}
);
layerId = "3507EE3D-0D92-4546-A145-3A991F0A2B71";
shapes = (
{
closed = 1;
nodes = (
(41,710,l),
(41,553,l),
(148,553,l),
(148,157,l),
(35,157,l),
(35,0,l),
(458,0,l),
(458,157,l),
(345,157,l),
(345,553,l),
(452,553,l),
(452,710,l)
);
}
);
width = 492.92019;
}
);
metricLeft = O;
metricRight = O;
},
{
glyphname = G.ss06;
lastChange = "2023-11-09 15:31:35 +0000";
layers = (
{
anchors = (
{
name = bottom;
pos = (354,0);
},
{
name = top;
pos = (354,710);
}
);
background = {
shapes = (
{
pos = (-2,0);
ref = G;
}
);
};
layerId = "EE2FFE84-06F1-4AFB-BBEC-60D09A436D14";
shapes = (
{
closed = 1;
nodes = (
(354,300,l),
(586,300,l),
(586,126,o),
(497,16,o),
(354,16,cs),
(188,16,o),
(84,146,o),
(84,354,cs),
(84,563,o),
(188,694,o),
(354,694,cs),
(462,694,o),
(550,618,o),
(583,477,c),
(616,481,l),
(583,639,o),
(482,726,o),
(354,726,cs),
(167,726,o),
(50,583,o),
(50,354,cs),
(50,127,o),
(167,-16,o),
(354,-16,cs),
(517,-16,o),
(620,108,o),
(620,306,cs),
(620,330,l),
(354,330,l)
);
}
);
width = 665;
},
{
anchors = (
{
name = bottom;
pos = (370,0);
},
{
name = top;
pos = (370,710);
}
);
layerId = "6C190511-B94A-4F5A-B519-D6E9DB0E7B93";
shapes = (
{
closed = 1;
nodes = (
(370,275,l),
(571,275,l),
(567,158,o),
(497,68,o),
(370,68,cs),
(209,68,o),
(139,201,o),
(139,354,cs),
(139,508,o),
(208,642,o),
(370,642,cs),
(473,642,o),
(537,582,o),
(561,486,c),
(651,492,l),
(620,632,o),
(521,726,o),
(370,726,cs),
(165,726,o),
(49,561,o),
(49,354,cs),
(49,148,o),
(166,-16,o),
(370,-16,cs),
(552,-16,o),
(657,107,o),
(657,315,cs),
(657,359,l),
(370,359,l)
);
}
);
width = 700.76667;
},
{
anchors = (
{
name = bottom;
pos = (392,0);
},
{
name = top;
pos = (392,710);
}
);
layerId = "3507EE3D-0D92-4546-A145-3A991F0A2B71";
shapes = (
{
closed = 1;
nodes = (
(385,246,l),
(513,246,l),
(499,180,o),
(457,141,o),
(387,141,cs),
(287,141,o),
(236,226,o),
(236,354,cs),
(236,483,o),
(286,569,o),
(387,569,cs),
(451,569,o),
(493,530,o),
(509,459,c),
(712,467,l),
(675,633,o),
(560,726,o),
(392,726,cs),
(178,726,o),
(35,568,o),
(35,354,cs),
(35,140,o),
(178,-16,o),
(392,-16,cs),
(540,-16,o),
(714,58,o),
(714,335,c),
(714,377,l),
(385,377,l)
);
}
);
width = 744;
}
);
metricLeft = O;
metricRight = C;
note = "<svg xmlns=\"http://www.w3.org/2000/svg\" viewBox=\"0 0 606 742\"><path d=\"M606,726v-360h-284v86h199c-7,115-76,204-199,204c-161,0-230-133-230-284c0-152,68-286,230-286c102,0,166,59,189,144l92-6c-31-130-130-224-281-224c-206,0-322,166-322,372c0,205,117,370,322,370c93,0,181-54,212-131l8,115Z\"></path></svg>";
},
{
glyphname = a;
kernLeft = a;
kernRight = l;
lastChange = "2023-11-14 19:46:21 +0000";
layers = (
{
anchors = (
{
name = bottom;
pos = (264,0);
},
{
name = ogonek;
pos = (516,0);
},
{
name = top;
pos = (264,530);
}
);
background = {
shapes = (
{
closed = 1;
nodes = (
(328,-12,o),
(392,48,o),
(401,102,c),
(392,110,l),
(391,49,o),
(430,0,o),
(507,0,cs),
(534,0,l),
(534,76,l),
(512,76,ls),
(490,76,o),
(480,86,o),
(480,108,cs),
(480,320,ls),
(480,468,o),
(394,542,o),
(266,542,cs),
(156,542,o),
(69,474,o),
(49,374,c),
(141,367,l),
(154,421,o),
(201,460,o),
(266,460,cs),
(354,460,o),
(407,404,o),
(391,287,c),
(438,338,l),
(240,299,ls),
(122,276,o),
(40,249,o),
(40,139,cs),
(40,44,o),
(126,-12,o),
(231,-12,cs)
);
},
{
closed = 1;
nodes = (
(130,213,o),
(194,216,o),
(272,230,cs),
(440,261,l),
(396,267,l),
(396,228,ls),
(396,124,o),
(328,64,o),
(242,64,cs),
(165,64,o),
(130,98,o),
(130,139,cs)
);
}
);
};
layerId = "EE2FFE84-06F1-4AFB-BBEC-60D09A436D14";
shapes = (
{
closed = 1;
nodes = (
(92,370,l),
(107,461,o),
(166,512,o),
(258,512,cs),
(372,512,o),
(422,452,o),
(422,315,c),
(232,280,ls),
(139,263,o),
(50,226,o),
(50,131,cs),
(50,48,o),
(116,-10,o),
(223,-12,cs),
(312,-10,o),
(388,34,o),
(424,115,c),
(419,25,o),
(451,0,o),
(498,0,cs),
(516,0,l),
(516,30,l),
(498,30,ls),
(467,30,o),
(454,48,o),
(454,90,cs),
(454,320,ls),
(454,468,o),
(389,542,o),
(258,542,cs),
(149,542,o),
(77,481,o),
(59,373,c)
);
},
{
closed = 1;
nodes = (
(82,219,o),
(177,241,o),
(264,257,cs),
(424,287,l),
(425,219,ls),
(427,108,o),
(347,23,o),
(234,18,cs),
(141,13,o),
(82,60,o),
(82,131,cs)
);
}
);
width = 551;
},
{
anchors = (
{
name = bottom;
pos = (243,0);
},
{
name = ogonek;
pos = (386,0);
},
{
name = top;
pos = (243,530);
}
);
associatedMasterId = "EE2FFE84-06F1-4AFB-BBEC-60D09A436D14";
background = {
shapes = (
{
closed = 1;
nodes = (
(323,-12,o),
(387,48,o),
(396,102,c),
(387,110,l),
(386,49,o),
(425,0,o),
(502,0,cs),
(529,0,l),
(529,76,l),
(507,76,ls),
(485,76,o),
(475,86,o),
(475,108,cs),
(475,320,ls),
(475,468,o),
(389,542,o),
(261,542,cs),
(151,542,o),
(64,474,o),
(44,374,c),
(136,367,l),
(149,421,o),
(196,460,o),
(261,460,cs),
(349,460,o),
(402,404,o),
(386,287,c),
(433,338,l),
(235,299,ls),
(117,276,o),
(35,249,o),
(35,139,cs),
(35,44,o),
(121,-12,o),
(226,-12,cs)
);
},
{
closed = 1;
nodes = (
(125,213,o),
(189,216,o),
(267,230,cs),
(435,261,l),
(391,267,l),
(391,228,ls),
(391,124,o),
(323,64,o),
(237,64,cs),
(160,64,o),
(125,98,o),
(125,139,cs)
);
}
);
};
layerId = "456932B6-354B-4A2F-81B9-CE7212349174";
name = "30 de mar. de 23 15:28";
shapes = (
{
closed = 1;
nodes = (
(217,280,ls),
(124,263,o),
(35,226,o),
(35,131,cs),
(35,48,o),
(101,-10,o),
(208,-12,cs),
(322,-10,o),
(414,62,o),
(430,192,c),
(411,192,l),
(410,155,o),
(409,127,o),
(409,90,cs),
(409,38,o),
(442,-2,o),
(483,0,cs),
(488,0,o),
(492,0,o),
(496,0,c),
(496,30,l),
(491,30,o),
(488,30,o),
(483,30,cs),
(457,31,o),
(439,56,o),
(439,90,cs),
(439,320,ls),
(439,468,o),
(371,542,o),
(243,542,cs),
(121,542,o),
(46,459,o),
(40,339,c),
(-6,376,l),
(134,366,l),
(77,338,l),
(79,446,o),
(142,512,o),
(243,512,cs),
(346,512,o),
(407,442,o),
(407,327,cs),
(407,303,l),
(430,319,l)
);
},
{
closed = 1;
nodes = (
(67,219,o),
(162,241,o),
(249,257,cs),
(425,290,l),
(409,295,l),
(410,219,ls),
(411,108,o),
(332,23,o),
(219,18,cs),
(126,13,o),
(67,60,o),
(67,131,cs)
);
}
);
width = 526;
},
{
anchors = (
{
name = bottom;
pos = (280,0);
},
{
name = ogonek;
pos = (540,3);
},
{
name = top;
pos = (281,530);
}
);
layerId = "6C190511-B94A-4F5A-B519-D6E9DB0E7B93";
shapes = (
{
closed = 1;
nodes = (
(145,367,l),
(161,428,o),
(206,462,o),
(273,462,cs),
(358,462,o),
(401,418,o),
(402,329,c),
(247,298,ls),
(129,276,o),
(47,248,o),
(47,139,cs),
(47,44,o),
(132,-12,o),
(238,-12,cs),
(322,-12,o),
(380,33,o),
(403,82,c),
(403,17,o),
(450,0,o),
(504,0,cs),
(540,0,l),
(540,74,l),
(518,74,ls),
(496,74,o),
(486,85,o),
(486,107,cs),
(486,320,ls),
(486,462,o),
(409,542,o),
(273,542,cs),
(160,542,o),
(77,477,o),
(56,374,c)
);
},
{
closed = 1;
nodes = (
(135,213,o),
(200,218,o),
(279,232,cs),
(404,254,l),
(404,247,ls),
(404,123,o),
(335,63,o),
(249,62,cs),
(171,62,o),
(135,97,o),
(135,139,cs)
);
}
);
width = 575.16667;
},
{
anchors = (
{
name = bottom;
pos = (310,0);
},
{
name = ogonek;
pos = (624,1);
},
{
name = top;
pos = (310,530);
}
);
layerId = "3507EE3D-0D92-4546-A145-3A991F0A2B71";
shapes = (
{
closed = 1;
nodes = (
(234,353,l),
(242,406,o),
(266,432,o),
(307,432,cs),
(354,432,o),
(375,400,o),
(375,330,c),
(236,302,ls),
(101,275,o),
(33,231,o),
(33,140,cs),
(33,47,o),
(114,-12,o),
(223,-12,cs),
(328,-12,o),
(389,21,o),
(418,80,c),
(442,-32,o),
(582,-4,o),
(604,-2,cs),
(624,0,l),
(624,121,l),
(606,121,ls),
(589,121,o),
(572,127,o),
(572,170,cs),
(572,306,ls),
(572,464,o),
(486,542,o),
(308,542,cs),
(151,542,o),
(62,481,o),
(42,360,c)
);
},
{
closed = 1;
nodes = (
(232,189,o),
(264,203,o),
(315,213,cs),
(378,225,l),
(378,218,ls),
(378,142,o),
(345,101,o),
(294,101,cs),
(255,101,o),
(232,121,o),
(232,149,cs)
);
}
);
width = 647.59624;
}
);
metricLeft = o;
metricRight = "=l-5";
unicode = 97;
},
{
glyphname = ae;
lastChange = "2023-11-09 15:31:35 +0000";
layers = (
{
background = {
shapes = (
{
closed = 1;
nodes = (
(255,301,ls),
(138,280,o),
(55,253,o),
(55,141,cs),
(55,46,o),
(141,-10,o),
(246,-12,cs),
(352,-10,o),
(421,43,o),
(440,136,c),
(495,320,l),
(495,468,o),
(409,542,o),
(281,542,cs),
(159,542,o),
(66,459,o),
(60,339,c),
(32,376,l),
(172,366,l),
(153,338,l),
(154,407,o),
(206,460,o),
(281,460,cs),
(359,460,o),
(409,416,o),
(409,327,cs),
(409,303,l),
(430,333,l)
);
},
{
closed = 1;
nodes = (
(145,217,o),
(209,216,o),
(287,231,cs),
(425,257,l),
(411,274,l),
(411,219,ls),
(411,121,o),
(343,64,o),
(257,60,cs),
(180,56,o),
(145,100,o),
(145,141,cs)
);
},
{
closed = 1;
nodes = (
(756,-12,o),
(846,50,o),
(877,150,c),
(785,157,l),
(761,102,o),
(710,70,o),
(654,70,cs),
(564,70,o),
(510,132,o),
(502,238,c),
(885,238,l),
(885,275,l),
(884,277,l),
(875,467,o),
(770,542,o),
(654,542,cs),
(507,542,o),
(411,434,o),
(411,265,cs),
(411,96,o),
(507,-12,o),
(654,-12,cs)
);
},
{
closed = 1;
nodes = (
(518,406,o),
(571,460,o),
(654,460,cs),
(717,460,o),
(776,424,o),
(791,314,c),
(504,314,l)
);
}
);
};
layerId = "EE2FFE84-06F1-4AFB-BBEC-60D09A436D14";
shapes = (
{
closed = 1;
nodes = (
(95,370,l),
(107,459,o),
(167,512,o),
(258,512,cs),
(363,512,o),
(422,446,o),
(422,315,c),
(232,280,ls),
(139,263,o),
(50,226,o),
(50,131,cs),
(50,48,o),
(116,-10,o),
(223,-12,cs),
(337,-10,o),
(438,62,o),
(444,192,c),
(450,320,l),
(450,468,o),
(386,542,o),
(258,542,cs),
(148,542,o),
(76,474,o),
(59,373,c)
);
},
{
closed = 1;
nodes = (
(82,219,o),
(177,241,o),
(264,257,cs),
(424,287,l),
(424,219,ls),
(424,108,o),
(347,23,o),
(234,18,cs),
(141,13,o),
(82,60,o),
(82,131,cs)
);
},
{
alignment = -1;
pos = (384,0);
ref = e;
}
);
width = 934;
},
{
associatedMasterId = "EE2FFE84-06F1-4AFB-BBEC-60D09A436D14";
background = {
shapes = (
{
closed = 1;
nodes = (
(250,301,ls),
(133,280,o),
(50,253,o),
(50,141,cs),
(50,46,o),
(136,-10,o),
(241,-12,cs),
(347,-10,o),
(416,43,o),
(435,136,c),
(490,320,l),
(490,468,o),
(404,542,o),
(276,542,cs),
(154,542,o),
(61,459,o),
(55,339,c),
(27,376,l),
(167,366,l),
(148,338,l),
(149,407,o),
(201,460,o),
(276,460,cs),
(354,460,o),
(404,416,o),
(404,327,cs),
(404,303,l),
(425,333,l)
);
},
{
closed = 1;
nodes = (
(140,217,o),
(204,216,o),
(282,231,cs),
(420,257,l),
(406,274,l),
(406,219,ls),
(406,121,o),
(338,64,o),
(252,60,cs),
(175,56,o),
(140,100,o),
(140,141,cs)
);
},
{
closed = 1;
nodes = (
(751,-12,o),
(841,50,o),
(872,150,c),
(780,157,l),
(756,102,o),
(705,70,o),
(649,70,cs),
(559,70,o),
(505,132,o),
(497,238,c),
(880,238,l),
(880,275,l),
(879,277,l),
(870,467,o),
(765,542,o),
(649,542,cs),
(502,542,o),
(406,434,o),
(406,265,cs),
(406,96,o),
(502,-12,o),
(649,-12,cs)
);
},
{
closed = 1;
nodes = (
(513,406,o),
(566,460,o),
(649,460,cs),
(712,460,o),
(771,424,o),
(786,314,c),
(499,314,l)
);
}
);
};
layerId = "E6022EAD-E776-496E-ABC3-4A5031DA1E76";
name = "30 de mar. de 23 10:45";
shapes = (
{
closed = 1;
nodes = (
(80,370,l),
(92,459,o),
(152,512,o),
(243,512,cs),
(348,512,o),
(407,446,o),
(407,327,cs),
(407,315,l),
(217,280,ls),
(124,263,o),
(35,226,o),
(35,131,cs),
(35,48,o),
(101,-10,o),
(208,-12,cs),
(322,-10,o),
(420,62,o),
(429,192,cs),
(435,320,l),
(435,468,o),
(371,542,o),
(243,542,cs),
(133,542,o),
(61,474,o),
(44,373,c)
);
},
{
closed = 1;
nodes = (
(67,219,o),
(162,241,o),
(249,257,cs),
(409,287,l),
(409,219,ls),
(409,108,o),
(332,23,o),
(219,18,cs),
(126,13,o),
(67,60,o),
(67,131,cs)
);
},
{
alignment = -1;
pos = (369,0);
ref = e;
}
);
width = 894;
},
{
layerId = "6C190511-B94A-4F5A-B519-D6E9DB0E7B93";
shapes = (
{
closed = 1;
nodes = (
(147,367,l),
(160,422,o),
(208,462,o),
(273,462,cs),
(350,462,o),
(401,418,o),
(402,329,c),
(247,300,ls),
(130,279,o),
(47,252,o),
(47,141,cs),
(47,46,o),
(132,-10,o),
(238,-12,cs),
(344,-10,o),
(414,44,o),
(432,138,c),
(486,320,l),
(486,468,o),
(401,542,o),
(273,542,cs),
(163,542,o),
(77,475,o),
(56,374,c)
);
},
{
closed = 1;
nodes = (
(135,217,o),
(200,217,o),
(279,232,cs),
(404,255,l),
(404,219,ls),
(404,121,o),
(335,63,o),
(249,59,cs),
(171,55,o),
(135,99,o),
(135,141,cs)
);
},
{
alignment = -1;
pos = (365,0);
ref = e;
}
);
width = 932.06667;
},
{
layerId = "3507EE3D-0D92-4546-A145-3A991F0A2B71";
shapes = (
{
closed = 1;
nodes = (
(235,353,l),
(242,405,o),
(266,432,o),
(307,432,cs),
(354,432,o),
(375,405,o),
(375,329,c),
(213,296,ls),
(98,273,o),
(33,230,o),
(33,140,cs),
(33,47,o),
(128,-13,o),
(232,-13,cs),
(360,-13,o),
(440,35,o),
(472,144,c),
(572,306,l),
(579,463,o),
(484,542,o),
(308,542,cs),
(152,542,o),
(62,480,o),
(42,360,c)
);
},
{
closed = 1;
nodes = (
(232,189,o),
(264,200,o),
(314,211,cs),
(379,224,l),
(379,192,l),
(377,126,o),
(344,92,o),
(297,91,cs),
(253,90,o),
(232,116,o),
(232,143,cs)
);
},
{
alignment = -1;
pos = (351,0);
ref = e;
}
);
width = 988;
}
);
metricLeft = a;
metricRight = e;
unicode = 230;
},
{
glyphname = b;
kernLeft = b;
kernRight = o;
lastChange = "2023-11-09 15:31:35 +0000";
layers = (
{
background = {
shapes = (
{
closed = 1;
nodes = (
(27,0,l),
(105,0,l),
(109,108,l),
(100,91,l),
(126,26,o),
(185,-12,o),
(275,-12,cs),
(429,-12,o),
(499,120,o),
(499,265,cs),
(499,410,o),
(429,542,o),
(275,542,cs),
(185,542,o),
(126,504,o),
(101,436,c),
(113,422,l),
(113,710,l),
(27,710,l)
);
},
{
closed = 1;
nodes = (
(105,367,o),
(148,464,o),
(257,464,cs),
(367,464,o),
(409,368,o),
(409,265,cs),
(409,166,o),
(367,70,o),
(257,70,cs),
(148,70,o),
(105,167,o),
(105,265,cs)
);
}
);
};
layerId = "EE2FFE84-06F1-4AFB-BBEC-60D09A436D14";
shapes = (
{
closed = 1;
nodes = (
(85,0,l),
(107,0,l),
(110,130,l),
(146,43,o),
(219,-12,o),
(299,-12,cs),
(435,-12,o),
(520,95,o),
(520,265,cs),
(520,433,o),
(435,539,o),
(299,539,cs),
(219,539,o),
(143,482,o),
(115,402,c),
(115,710,l),
(85,710,l)
);
},
{
closed = 1;
nodes = (
(112,408,o),
(189,509,o),
(299,509,cs),
(415,509,o),
(488,415,o),
(488,265,cs),
(488,113,o),
(415,17,o),
(299,17,cs),
(189,17,o),
(112,119,o),
(112,265,cs)
);
}
);
width = 570;
},
{
layerId = "6C190511-B94A-4F5A-B519-D6E9DB0E7B93";
shapes = (
{
closed = 1;
nodes = (
(80,0,l),
(156,0,l),
(159,76,l),
(189,22,o),
(253,-12,o),
(327,-12,cs),
(465,-12,o),
(551,95,o),
(551,265,cs),
(551,435,o),
(465,542,o),
(327,542,cs),
(256,542,o),
(193,510,o),
(164,460,c),
(164,710,l),
(80,710,l)
);
},
{
closed = 1;
nodes = (
(156,388,o),
(216,466,o),
(310,466,cs),
(403,466,o),
(463,388,o),
(463,265,cs),
(463,144,o),
(403,68,o),
(310,68,cs),
(216,68,o),
(156,144,o),
(156,265,cs)
);
}
);
width = 598.03333;
},
{
layerId = "3507EE3D-0D92-4546-A145-3A991F0A2B71";
shapes = (
{
closed = 1;
nodes = (
(56,0,l),
(245,0,l),
(248,77,l),
(278,21,o),
(334,-12,o),
(404,-12,cs),
(542,-12,o),
(628,95,o),
(628,265,cs),
(628,435,o),
(542,542,o),
(404,542,cs),
(339,542,o),
(283,510,o),
(250,454,c),
(250,710,l),
(56,710,l)
);
},
{
closed = 1;
nodes = (
(241,351,o),
(278,406,o),
(336,406,cs),
(393,406,o),
(430,351,o),
(430,265,cs),
(430,181,o),
(390,125,o),
(336,125,cs),
(278,125,o),
(241,181,o),
(241,265,cs)
);
}
);
width = 661.22066;
}
);
metricLeft = n;
metricRight = o;
unicode = 98;
},
{
glyphname = c;
kernLeft = o;
kernRight = o;
lastChange = "2023-11-09 15:31:35 +0000";
layers = (
{
anchors = (
{
name = bottom;
pos = (275,0);
},
{
name = top;
pos = (275,530);
}
);
background = {
shapes = (
{
closed = 1;
nodes = (
(532,360,l),
(506,340,l),
(500,464,o),
(397,542,o),
(283,542,cs),
(136,542,o),
(40,434,o),
(40,265,cs),
(40,96,o),
(136,-12,o),
(283,-12,cs),
(409,-12,o),
(516,82,o),
(511,228,c),
(535,180,l),
(396,190,l),
(420,228,l),
(425,129,o),
(360,70,o),
(283,70,cs),
(186,70,o),
(130,143,o),
(130,265,cs),
(130,387,o),
(186,460,o),
(283,460,cs),
(351,460,o),
(413,413,o),
(416,333,c),
(393,350,l)
);
}
);
};
layerId = "EE2FFE84-06F1-4AFB-BBEC-60D09A436D14";
shapes = (
{
closed = 1;
nodes = (
(488,365,l),
(462,471,o),
(391,542,o),
(275,542,cs),
(125,542,o),
(50,415,o),
(50,265,cs),
(50,115,o),
(125,-12,o),
(275,-12,cs),
(396,-12,o),
(467,66,o),
(491,175,c),
(458,178,l),
(434,80,o),
(367,18,o),
(275,18,cs),
(157,18,o),
(82,113,o),
(82,265,cs),
(82,417,o),
(157,512,o),
(275,512,cs),
(364,512,o),
(429,455,o),
(455,363,c)
);
}
);
width = 531;
},
{
anchors = (
{
name = bottom;
pos = (290,0);
},
{
name = top;
pos = (290,530);
}
);
layerId = "6C190511-B94A-4F5A-B519-D6E9DB0E7B93";
shapes = (
{
closed = 1;
nodes = (
(510,358,l),
(496,472,o),
(398,542,o),
(290,542,cs),
(142,542,o),
(47,433,o),
(47,265,cs),
(47,97,o),
(142,-12,o),
(290,-12,cs),
(402,-12,o),
(498,62,o),
(515,182,c),
(426,188,l),
(414,112,o),
(356,68,o),
(290,68,cs),
(192,68,o),
(135,142,o),
(135,265,cs),
(135,388,o),
(192,462,o),
(290,462,cs),
(353,462,o),
(411,421,o),
(422,352,c)
);
}
);
width = 552.26667;
},
{
anchors = (
{
name = bottom;
pos = (325,0);
},
{
name = top;
pos = (325,530);
}
);
layerId = "3507EE3D-0D92-4546-A145-3A991F0A2B71";
shapes = (
{
closed = 1;
nodes = (
(609,318,l),
(595,457,o),
(482,542,o),
(325,542,cs),
(149,542,o),
(33,432,o),
(33,265,cs),
(33,98,o),
(149,-12,o),
(325,-12,cs),
(486,-12,o),
(599,76,o),
(611,216,c),
(412,222,l),
(405,157,o),
(374,127,o),
(325,127,cs),
(265,127,o),
(232,176,o),
(232,265,cs),
(232,354,o),
(265,403,o),
(325,403,cs),
(371,403,o),
(403,371,o),
(411,310,c)
);
}
);
width = 634;
}
);
metricLeft = o;
metricRight = "=o-10";
unicode = 99;
},
{
glyphname = eth;
lastChange = "2023-11-09 15:31:35 +0000";
layers = (
{
layerId = "EE2FFE84-06F1-4AFB-BBEC-60D09A436D14";
shapes = (
{
ref = partialdiff;
},
{
closed = 1;
nodes = (
(560,649,l),
(550,677,l),
(252,570,l),
(262,541,l)
);
}
);
width = 610;
},
{
layerId = "6C190511-B94A-4F5A-B519-D6E9DB0E7B93";
shapes = (
{
alignment = -1;
ref = partialdiff;
},
{
closed = 1;
nodes = (
(544,634,l),
(521,696,l),
(223,589,l),
(246,526,l)
);
}
);
width = 595.5;
},
{
layerId = "3507EE3D-0D92-4546-A145-3A991F0A2B71";
shapes = (
{
alignment = -1;
ref = partialdiff;
},
{
closed = 1;
nodes = (
(573,645,l),
(543,715,l),
(214,569,l),
(245,499,l)
);
}
);
width = 632.49296;
}
);
metricLeft = o;
metricRight = o;
unicode = 240;
},
{
glyphname = dcroat;
lastChange = "2023-11-09 15:31:35 +0000";
layers = (
{
layerId = "EE2FFE84-06F1-4AFB-BBEC-60D09A436D14";
shapes = (
{
ref = d;
},
{
closed = 1;
nodes = (
(301,606,l),
(545,606,l),
(545,636,l),
(301,636,l)
);
}
);
width = 620;
},
{
layerId = "6C190511-B94A-4F5A-B519-D6E9DB0E7B93";
shapes = (
{
alignment = -1;
ref = d;
},
{
closed = 1;
nodes = (
(328,584,l),
(581,584,l),
(581,658,l),
(328,658,l)
);
}
);
width = 650.93333;
},
{
layerId = "3507EE3D-0D92-4546-A145-3A991F0A2B71";
shapes = (
{
alignment = -1;
ref = d;
},
{
closed = 1;
nodes = (
(305,569,l),
(672,569,l),
(672,659,l),
(305,659,l)
);
}
);
width = 718;
}
);
metricLeft = o;
metricRight = "=d-10";
unicode = 273;
},
{
glyphname = e;
kernLeft = o;
kernRight = o;
lastChange = "2023-11-09 15:31:35 +0000";
layers = (
{
anchors = (
{
name = bottom;
pos = (275,0);
},
{
name = ogonek;
pos = (338,0);
},
{
name = top;
pos = (275,530);
}
);
background = {
shapes = (
{
closed = 1;
nodes = (
(395,-12,o),
(493,63,o),
(514,181,c),
(533,148,l),
(394,158,l),
(422,180,l),
(403,111,o),
(347,70,o),
(283,70,cs),
(186,70,o),
(130,143,o),
(130,265,cs),
(130,387,o),
(186,460,o),
(283,460,cs),
(355,460,o),
(421,413,o),
(424,265,c),
(514,265,l),
(508,464,o),
(401,542,o),
(283,542,cs),
(136,542,o),
(40,434,o),
(40,265,cs),
(40,96,o),
(136,-12,o),
(283,-12,cs)
);
},
{
closed = 1;
nodes = (
(514,238,l),
(514,275,l),
(509,297,l),
(463,297,l),
(463,314,l),
(84,314,l),
(84,238,l)
);
}
);
};
layerId = "EE2FFE84-06F1-4AFB-BBEC-60D09A436D14";
shapes = (
{
closed = 1;
nodes = (
(50,115,o),
(125,-12,o),
(275,-12,cs),
(373,-12,o),
(454,48,o),
(485,143,c),
(452,145,l),
(423,67,o),
(355,18,o),
(275,18,cs),
(159,18,o),
(84,110,o),
(82,258,c),
(500,258,l),
(500,265,l),
(500,415,o),
(425,542,o),
(275,542,cs),
(125,542,o),
(50,415,o),
(50,265,cs)
);
},
{
closed = 1;
nodes = (
(90,427,o),
(163,512,o),
(275,512,cs),
(387,512,o),
(460,427,o),
(467,288,c),
(83,288,l)
);
}
);
width = 550;
},
{
anchors = (
{
name = bottom;
pos = (265,0);
},
{
name = ogonek;
pos = (328,0);
},
{
name = top;
pos = (265,530);
}
);
associatedMasterId = "EE2FFE84-06F1-4AFB-BBEC-60D09A436D14";
background = {
shapes = (
{
closed = 1;
nodes = (
(395,-12,o),
(493,63,o),
(514,181,c),
(533,148,l),
(394,158,l),
(422,180,l),
(403,111,o),
(347,70,o),
(283,70,cs),
(186,70,o),
(130,143,o),
(130,265,cs),
(130,387,o),
(186,460,o),
(283,460,cs),
(355,460,o),
(421,413,o),
(424,265,c),
(514,265,l),
(508,464,o),
(401,542,o),
(283,542,cs),
(136,542,o),
(40,434,o),
(40,265,cs),
(40,96,o),
(136,-12,o),
(283,-12,cs)
);
},
{
closed = 1;
nodes = (
(514,238,l),
(514,275,l),
(509,297,l),
(463,297,l),
(463,314,l),
(84,314,l),
(84,238,l)
);
}
);
};
layerId = "E9BBF2E6-3E46-4BD2-A166-D8A1CCFF5D66";
name = "24 de feb. de 23 10:25";
shapes = (
{
closed = 1;
nodes = (
(56,258,l),
(490,258,l),
(488,288,l),
(56,288,l)
);
},
{
closed = 1;
nodes = (
(490,259,l),
(490,261,o),
(490,263,o),
(490,265,cs),
(490,415,o),
(415,542,o),
(265,542,cs),
(115,542,o),
(40,415,o),
(40,265,cs),
(40,115,o),
(115,-12,o),
(265,-12,cs),
(363,-12,o),
(444,48,o),
(475,143,c),
(442,145,l),
(413,67,o),
(345,18,o),
(265,18,cs),
(147,18,o),
(72,113,o),
(72,265,cs),
(72,417,o),
(147,512,o),
(265,512,cs),
(383,512,o),
(458,417,o),
(458,265,cs),
(458,263,o),
(458,261,o),
(458,259,c)
);
}
);
width = 525;
},
{
anchors = (
{
name = bottom;
pos = (290,0);
},
{
name = ogonek;
pos = (365,0);
},
{
name = top;
pos = (290,528);
}
);
layerId = "6C190511-B94A-4F5A-B519-D6E9DB0E7B93";
shapes = (
{
closed = 1;
nodes = (
(47,97,o),
(142,-12,o),
(290,-12,cs),
(391,-12,o),
(481,50,o),
(512,150,c),
(422,157,l),
(398,101,o),
(346,68,o),
(290,68,cs),
(199,68,o),
(144,131,o),
(136,239,c),
(520,239,l),
(519,277,l),
(511,465,o),
(407,542,o),
(290,542,cs),
(142,542,o),
(47,433,o),
(47,265,cs)
);
},
{
closed = 1;
nodes = (
(152,407,o),
(206,462,o),
(290,462,cs),
(354,462,o),
(414,424,o),
(428,313,c),
(138,313,l)
);
}
);
width = 567.4;
},
{
anchors = (
{
name = bottom;
pos = (325,0);
},
{
name = ogonek;
pos = (401,0);
},
{
name = top;
pos = (325,529);
}
);
layerId = "3507EE3D-0D92-4546-A145-3A991F0A2B71";
shapes = (
{
closed = 1;
nodes = (
(33,98,o),
(149,-12,o),
(325,-12,cs),
(459,-12,o),
(564,54,o),
(597,158,c),
(404,171,l),
(392,141,o),
(360,120,o),
(325,120,cs),
(272,120,o),
(238,158,o),
(236,217,c),
(603,217,l),
(604,238,l),
(611,423,o),
(492,542,o),
(325,542,cs),
(149,542,o),
(33,432,o),
(33,265,cs)
);
},
{
closed = 1;
nodes = (
(240,375,o),
(274,410,o),
(325,410,cs),
(371,410,o),
(407,379,o),
(411,319,c),
(236,319,l)
);
}
);
width = 637;
}
);
metricLeft = o;
metricRight = o;
unicode = 101;
},
{
glyphname = f;
kernLeft = f;
kernRight = f;
lastChange = "2023-11-09 15:31:35 +0000";
layers = (
{
background = {
shapes = (
{
closed = 1;
nodes = (
(176,0,l),
(176,563,ls),
(176,607,o),
(200,634,o),
(234,634,c),
(316,634,l),
(316,710,l),
(234,710,l),
(135,710,o),
(90,652,o),
(90,563,c),
(90,0,l)
);
},
{
closed = 1;
nodes = (
(309,454,l),
(309,530,l),
(19,530,l),
(19,454,l)
);
}
);
};
layerId = "EE2FFE84-06F1-4AFB-BBEC-60D09A436D14";
shapes = (
{
closed = 1;
nodes = (
(176,0,l),
(176,603,ls),
(176,653,o),
(206,683,o),
(254,683,cs),
(319,683,l),
(319,710,l),
(258,710,ls),
(189,710,o),
(146,667,o),
(146,598,cs),
(146,0,l)
);
},
{
closed = 1;
nodes = (
(319,500,l),
(319,530,l),
(65,530,l),
(65,500,l)
);
}
);
width = 364;
},
{
layerId = "6C190511-B94A-4F5A-B519-D6E9DB0E7B93";
shapes = (
{
closed = 1;
nodes = (
(216,0,l),
(216,564,ls),
(216,609,o),
(240,636,o),
(274,636,cs),
(356,636,l),
(356,710,l),
(274,710,ls),
(176,710,o),
(132,653,o),
(132,564,cs),
(132,0,l)
);
},
{
closed = 1;
nodes = (
(349,456,l),
(349,530,l),
(60,530,l),
(60,456,l)
);
}
);
width = 397.83333;
},
{
layerId = "3507EE3D-0D92-4546-A145-3A991F0A2B71";
shapes = (
{
closed = 1;
nodes = (
(313,0,l),
(313,514,ls),
(313,550,o),
(334,573,o),
(367,573,c),
(454,573,l),
(454,710,l),
(328,710,l),
(182,710,o),
(118,647,o),
(118,514,c),
(118,0,l)
);
},
{
closed = 1;
nodes = (
(445,356,l),
(445,493,l),
(36,493,l),
(36,356,l)
);
}
);
width = 482;
}
);
metricLeft = "=b-20";
metricRight = "=r-5";
unicode = 102;
},
{
glyphname = g;
kernLeft = o;
kernRight = u;
lastChange = "2023-11-09 15:31:35 +0000";
layers = (
{
anchors = (
{
name = top;
pos = (271,530);
}
);
background = {
shapes = (
{
closed = 1;
nodes = (
(331,28,o),
(401,70,o),
(426,154,c),
(412,154,l),
(412,32,ls),
(412,-41,o),
(356,-80,o),
(263,-80,cs),
(182,-80,o),
(133,-35,o),
(119,38,c),
(155,0,l),
(15,-10,l),
(33,37,l),
(41,-80,o),
(132,-162,o),
(263,-162,cs),
(402,-162,o),
(498,-88,o),
(498,52,cs),
(498,530,l),
(416,530,l),
(416,406,l),
(426,406,l),
(419,485,o),
(352,542,o),
(266,542,cs),
(123,542,o),
(27,434,o),
(27,285,cs),
(27,136,o),
(120,28,o),
(266,28,cs)
);
},
{
closed = 1;
nodes = (
(117,387,o),
(173,460,o),
(266,460,cs),
(359,460,o),
(415,387,o),
(413,285,cs),
(412,183,o),
(356,110,o),
(266,110,cs),
(173,110,o),
(117,183,o),
(117,285,cs)
);
}
);
};
layerId = "EE2FFE84-06F1-4AFB-BBEC-60D09A436D14";
shapes = (
{
closed = 1;
nodes = (
(349,25,o),
(421,78,o),
(455,159,c),
(455,57,ls),
(455,-59,o),
(385,-133,o),
(276,-133,cs),
(182,-133,o),
(113,-80,o),
(108,-4,c),
(76,-6,l),
(76,-94,o),
(164,-163,o),
(276,-163,cs),
(404,-163,o),
(485,-78,o),
(485,57,cs),
(485,530,l),
(455,530,l),
(455,402,l),
(427,482,o),
(351,539,o),
(271,539,cs),
(135,539,o),
(50,441,o),
(50,285,cs),
(50,125,o),
(135,25,o),
(271,25,cs)
);
},
{
closed = 1;
nodes = (
(82,423,o),
(155,509,o),
(271,509,cs),
(381,509,o),
(458,417,o),
(458,285,cs),
(458,150,o),
(381,55,o),
(271,55,cs),
(155,55,o),
(82,144,o),
(82,285,cs)
);
}
);
width = 570;
},
{
anchors = (
{
name = top;
pos = (286,530);
}
);
layerId = "6C190511-B94A-4F5A-B519-D6E9DB0E7B93";
shapes = (
{
closed = 1;
nodes = (
(348,28,o),
(407,64,o),
(433,120,c),
(433,33,ls),
(433,-42,o),
(376,-82,o),
(283,-82,cs),
(217,-82,o),
(171,-52,o),
(150,-2,c),
(62,-8,l),
(86,-101,o),
(170,-162,o),
(283,-162,cs),
(421,-162,o),
(517,-88,o),
(517,52,cs),
(517,530,l),
(437,530,l),
(437,446,l),
(413,505,o),
(352,542,o),
(280,542,cs),
(143,542,o),
(47,436,o),
(47,285,cs),
(47,134,o),
(144,28,o),
(281,28,cs)
);
},
{
closed = 1;
nodes = (
(135,394,o),
(193,462,o),
(286,462,cs),
(378,462,o),
(436,394,o),
(434,285,cs),
(433,176,o),
(375,108,o),
(286,108,cs),
(193,108,o),
(135,176,o),
(135,285,cs)
);
}
);
width = 597.06667;
},
{
anchors = (
{
name = top;
pos = (328,530);
}
);
layerId = "3507EE3D-0D92-4546-A145-3A991F0A2B71";
shapes = (
{
closed = 1;
nodes = (
(324,22,o),
(384,52,o),
(409,96,c),
(409,60,ls),
(409,-10,o),
(379,-42,o),
(323,-42,cs),
(285,-42,o),
(255,-25,o),
(246,-1,c),
(50,-14,l),
(84,-104,o),
(188,-161,o),
(320,-161,cs),
(488,-161,o),
(605,-69,o),
(605,72,cs),
(605,530,l),
(412,530,l),
(412,450,l),
(381,509,o),
(325,542,o),
(260,542,cs),
(122,542,o),
(33,435,o),
(33,271,cs),
(33,120,o),
(122,22,o),
(260,22,cs)
);
},
{
closed = 1;
nodes = (
(231,355,o),
(268,407,o),
(325,407,cs),
(382,407,o),
(419,355,o),
(418,273,cs),
(418,193,o),
(381,139,o),
(325,139,cs),
(271,139,o),
(231,193,o),
(231,273,cs)
);
}
);
width = 660.94836;
}
);
metricLeft = o;
metricRight = d;
unicode = 103;
},
{
glyphname = gstroke;
lastChange = "2023-11-09 15:31:35 +0000";
layers = (
{
layerId = "EE2FFE84-06F1-4AFB-BBEC-60D09A436D14";
shapes = (
{
ref = g;
},
{
closed = 1;
nodes = (
(234,254,l),
(544,254,l),
(544,284,l),
(234,284,l)
);
}
);
width = 609;
},
{
layerId = "6C190511-B94A-4F5A-B519-D6E9DB0E7B93";
shapes = (
{
alignment = -1;
ref = g;
},
{
closed = 1;
nodes = (
(234,232,l),
(573,232,l),
(573,306,l),
(234,306,l)
);
}
);
width = 633.16667;
},
{
layerId = "3507EE3D-0D92-4546-A145-3A991F0A2B71";
shapes = (
{
alignment = -1;
ref = g;
},
{
closed = 1;
nodes = (
(309,222,l),
(656,222,l),
(656,312,l),
(309,312,l)
);
}
);
width = 691.94836;
}
);
metricLeft = g;
metricRight = "=g-20";
unicode = 485;
},
{
glyphname = h;
kernLeft = b;
kernRight = n;
lastChange = "2023-11-10 18:31:13 +0000";
layers = (
{
anchors = (
{
name = top;
pos = (100,710);
}
);
background = {
shapes = (
{
closed = 1;
nodes = (
(39,0,l),
(125,0,l),
(125,317,ls),
(125,414,o),
(180,466,o),
(264,466,cs),
(343,466,o),
(375,414,o),
(375,317,cs),
(375,0,l),
(461,0,l),
(461,341,ls),
(461,453,o),
(403,542,o),
(282,542,cs),
(199,542,o),
(130,500,o),
(110,407,c),
(121,395,l),
(117,530,l),
(39,530,l)
);
}
);
};
layerId = "EE2FFE84-06F1-4AFB-BBEC-60D09A436D14";
shapes = (
{
closed = 1;
nodes = (
(85,0,l),
(115,0,l),
(115,317,ls),
(115,431,o),
(178,512,o),
(289,512,cs),
(398,512,o),
(441,432,o),
(441,317,cs),
(441,0,l),
(471,0,l),
(471,341,ls),
(471,453,o),
(412,542,o),
(297,542,cs),
(201,542,o),
(118,494,o),
(111,385,c),
(115,385,l),
(115,710,l),
(85,710,l)
);
}
);
width = 556;
},
{
anchors = (
{
name = top;
pos = (122,710);
}
);
layerId = "6C190511-B94A-4F5A-B519-D6E9DB0E7B93";
shapes = (
{
closed = 1;
nodes = (
(80,0,l),
(164,0,l),
(164,311,ls),
(164,409,o),
(220,462,o),
(304,462,cs),
(380,462,o),
(417,412,o),
(417,311,cs),
(417,0,l),
(501,0,l),
(501,341,ls),
(501,464,o),
(432,542,o),
(322,542,cs),
(246,542,o),
(175,507,o),
(152,428,c),
(164,413,l),
(164,710,l),
(80,710,l)
);
}
);
width = 581.13333;
},
{
anchors = (
{
name = top;
pos = (153,710);
}
);
layerId = "3507EE3D-0D92-4546-A145-3A991F0A2B71";
shapes = (
{
closed = 1;
nodes = (
(56,0,l),
(250,0,l),
(250,272,ls),
(250,348,o),
(270,392,o),
(319,392,cs),
(371,392,o),
(381,348,o),
(381,272,cs),
(381,0,l),
(575,0,l),
(575,341,ls),
(575,459,o),
(508,542,o),
(397,542,cs),
(307,542,o),
(235,502,o),
(222,370,c),
(250,402,l),
(250,710,l),
(56,710,l)
);
}
);
width = 630.60094;
}
);
metricLeft = b;
metricRight = n;
unicode = 104;
},
{
color = 3;
glyphname = hbar;
kernLeft = b;
kernRight = n;
lastChange = "2023-11-10 18:34:07 +0000";
layers = (
{
layerId = "EE2FFE84-06F1-4AFB-BBEC-60D09A436D14";
shapes = (
{
pos = (40,0);
ref = h;
},
{
closed = 1;
nodes = (
(65,606,l),
(309,606,l),
(309,636,l),
(65,636,l)
);
}
);
width = 576;
},
{
layerId = "6C190511-B94A-4F5A-B519-D6E9DB0E7B93";
shapes = (
{
alignment = -1;
pos = (35,0);
ref = h;
},
{
closed = 1;
nodes = (
(60,584,l),
(314,584,l),
(314,658,l),
(60,658,l)
);
}
);
width = 606;
},
{
layerId = "3507EE3D-0D92-4546-A145-3A991F0A2B71";
shapes = (
{
alignment = -1;
pos = (45,0);
ref = h;
},
{
closed = 1;
nodes = (
(36,569,l),
(403,569,l),
(403,659,l),
(36,659,l)
);
}
);
width = 664;
}
);
metricLeft = "=b-20";
unicode = 295;
},
{
glyphname = idotless;
lastChange = "2023-11-09 15:31:35 +0000";
layers = (
{
anchors = (
{
name = ogonek;
pos = (115,0);
},
{
name = top;
pos = (100,530);
}
);
layerId = "EE2FFE84-06F1-4AFB-BBEC-60D09A436D14";
shapes = (
{
closed = 1;
nodes = (
(85,0,l),
(115,0,l),
(115,530,l),
(85,530,l)
);
}
);
width = 200;
},
{
anchors = (
{
name = ogonek;
pos = (164,0);
},
{
name = top;
pos = (122,530);
}
);
layerId = "6C190511-B94A-4F5A-B519-D6E9DB0E7B93";
shapes = (
{
closed = 1;
nodes = (
(80,0,l),
(164,0,l),
(164,530,l),
(80,530,l)
);
}
);
width = 244.46667;
},
{
anchors = (
{
name = ogonek;
pos = (250,0);
},
{
name = top;
pos = (153,530);
}
);
layerId = "3507EE3D-0D92-4546-A145-3A991F0A2B71";
shapes = (
{
closed = 1;
nodes = (
(56,0,l),
(250,0,l),
(250,530,l),
(56,530,l)
);
}
);
width = 305.9061;
}
);
metricLeft = n;
metricRight = d;
unicode = 305;
},
{
color = 3;
glyphname = jdotless;
lastChange = "2023-11-10 18:25:51 +0000";
layers = (
{
anchors = (
{
name = top;
pos = (130,530);
}
);
background = {
shapes = (
{
closed = 1;
nodes = (
(130,530,l),
(130,-3,ls),
(130,-46,o),
(107,-74,o),
(72,-74,cs),
(30,-74,l),
(30,-150,l),
(82,-150,ls),
(171,-150,o),
(216,-92,o),
(216,-3,cs),
(216,530,l)
);
}
);
};
layerId = "EE2FFE84-06F1-4AFB-BBEC-60D09A436D14";
shapes = (
{
closed = 1;
nodes = (
(115,530,l),
(115,-3,ls),
(115,-93,o),
(99,-123,o),
(21,-123,cs),
(-5,-123,l),
(-5,-150,l),
(21,-150,ls),
(111,-150,o),
(145,-109,o),
(145,-3,cs),
(145,530,l)
);
}
);
width = 230;
},
{
anchors = (
{
name = top;
pos = (138,530);
}
);
layerId = "6C190511-B94A-4F5A-B519-D6E9DB0E7B93";
shapes = (
{
closed = 1;
nodes = (
(96,530,l),
(96,-3,ls),
(96,-48,o),
(73,-76,o),
(36,-76,cs),
(-5,-76,l),
(-5,-150,l),
(46,-150,ls),
(135,-150,o),
(180,-93,o),
(180,-3,cs),
(180,530,l)
);
}
);
width = 259.96667;
},
{
anchors = (
{
name = top;
pos = (226,530);
}
);
layerId = "3507EE3D-0D92-4546-A145-3A991F0A2B71";
shapes = (
{
closed = 1;
nodes = (
(128,530,l),
(128,47,ls),
(128,10,o),
(107,-13,o),
(74,-13,c),
(-1,-13,l),
(-1,-150,l),
(116,-150,l),
(259,-150,o),
(323,-87,o),
(323,47,c),
(323,530,l)
);
}
);
width = 378.51174;
}
);
metricRight = n;
unicode = 567;
},
{
glyphname = k;
kernLeft = n;
kernRight = x;
lastChange = "2023-11-09 15:31:35 +0000";
layers = (
{
anchors = (
{
name = bottom;
pos = (299,0);
},
{
name = top;
pos = (100,710);
}
);
background = {
shapes = (
{
closed = 1;
nodes = (
(39,0,l),
(125,0,l),
(125,710,l),
(39,710,l)
);
},
{
closed = 1;
nodes = (
(503,0,l),
(280,314,l),
(261,278,l),
(493,530,l),
(376,530,l),
(71,186,l),
(71,59,l),
(247,265,l),
(215,265,l),
(397,0,l)
);
}
);
};
layerId = "EE2FFE84-06F1-4AFB-BBEC-60D09A436D14";
shapes = (
{
closed = 1;
nodes = (
(85,0,l),
(115,0,l),
(115,156,l),
(245,283,l),
(484,0,l),
(521,0,l),
(265,301,l),
(501,530,l),
(459,530,l),
(115,195,l),
(115,710,l),
(85,710,l)
);
}
);
width = 570;
},
{
anchors = (
{
name = bottom;
pos = (274,0);
},
{
name = top;
pos = (274,530);
}
);
associatedMasterId = "EE2FFE84-06F1-4AFB-BBEC-60D09A436D14";
background = {
shapes = (
{
closed = 1;
nodes = (
(42,0,l),
(128,0,l),
(128,710,l),
(42,710,l)
);
},
{
closed = 1;
nodes = (
(506,0,l),
(283,314,l),
(264,278,l),
(496,530,l),
(379,530,l),
(74,186,l),
(74,59,l),
(250,265,l),
(218,265,l),
(400,0,l)
);
}
);
};
layerId = "057BC141-43A0-44B5-9F16-EF09775895DB";
name = "24 de feb. de 23 10:41";
shapes = (
{
closed = 1;
nodes = (
(60,0,l),
(90,0,l),
(90,710,l),
(60,710,l)
);
},
{
closed = 1;
nodes = (
(476,530,l),
(434,530,l),
(74,179,l),
(74,141,l)
);
},
{
closed = 1;
nodes = (
(211,294,l),
(459,0,l),
(496,0,l),
(229,314,l)
);
}
);
width = 536;
},
{
anchors = (
{
name = bottom;
pos = (298,0);
},
{
name = top;
pos = (122,710);
}
);
layerId = "6C190511-B94A-4F5A-B519-D6E9DB0E7B93";
shapes = (
{
closed = 1;
nodes = (
(80,0,l),
(164,0,l),
(164,136,l),
(267,247,l),
(440,0,l),
(543,0,l),
(325,305,l),
(533,530,l),
(418,530,l),
(164,245,l),
(164,710,l),
(80,710,l)
);
}
);
width = 590.3;
},
{
anchors = (
{
name = bottom;
pos = (331,0);
},
{
name = top;
pos = (153,710);
}
);
layerId = "3507EE3D-0D92-4546-A145-3A991F0A2B71";
shapes = (
{
closed = 1;
nodes = (
(56,0,l),
(250,0,l),
(250,158,l),
(303,215,l),
(436,0,l),
(640,0,l),
(424,319,l),
(631,530,l),
(410,530,l),
(250,361,l),
(250,710,l),
(56,710,l)
);
}
);
width = 685;
}
);
metricLeft = n;
metricRight = x;
unicode = 107;
},
{
glyphname = l;
kernLeft = l;
kernRight = l;
lastChange = "2023-11-09 15:31:35 +0000";
layers = (
{
anchors = (
{
name = bottom;
pos = (144,0);
},
{
name = top;
pos = (100,710);
}
);
background = {
shapes = (
{
closed = 1;
nodes = (
(53,104,l),
(53,42,o),
(95,0,o),
(157,0,c),
(217,0,l),
(217,76,l),
(171,76,l),
(149,76,o),
(139,86,o),
(139,108,cs),
(139,710,l),
(53,710,l)
);
}
);
};
layerId = "EE2FFE84-06F1-4AFB-BBEC-60D09A436D14";
shapes = (
{
closed = 1;
nodes = (
(85,80,l),
(85,27,o),
(116,0,o),
(179,0,c),
(203,0,l),
(203,27,l),
(171,27,l),
(135,27,o),
(115,46,o),
(115,80,cs),
(115,710,l),
(85,710,l)
);
}
);
width = 243;
},
{
anchors = (
{
name = bottom;
pos = (165,0);
},
{
name = top;
pos = (121,710);
}
);
layerId = "6C190511-B94A-4F5A-B519-D6E9DB0E7B93";
shapes = (
{
closed = 1;
nodes = (
(80,103,l),
(80,42,o),
(122,0,o),
(184,0,c),
(243,0,l),
(243,74,l),
(197,74,l),
(175,74,o),
(164,85,o),
(164,107,cs),
(164,710,l),
(80,710,l)
);
}
);
width = 282.63333;
},
{
anchors = (
{
name = bottom;
pos = (196,0);
},
{
name = top;
pos = (153,710);
}
);
layerId = "3507EE3D-0D92-4546-A145-3A991F0A2B71";
shapes = (
{
closed = 1;
nodes = (
(56,177,l),
(56,61,o),
(126,0,o),
(233,0,c),
(329,0,l),
(329,137,l),
(297,137,l),
(268,137,o),
(250,155,o),
(250,185,cs),
(250,710,l),
(56,710,l)
);
}
);
width = 357.60094;
}
);
metricLeft = u;
unicode = 108;
},
{
glyphname = lcaron;
lastChange = "2023-11-09 15:31:35 +0000";
layers = (
{
background = {
shapes = (
{
closed = 1;
nodes = (
(27,710,l),
(27,402,l),
(-1,482,o),
(-77,539,o),
(-157,539,cs),
(-293,539,o),
(-378,433,o),
(-378,265,cs),
(-378,95,o),
(-293,-12,o),
(-157,-12,cs),
(-77,-12,o),
(-4,43,o),
(32,130,c),
(35,0,l),
(57,0,l),
(57,710,l)
);
},
{
closed = 1;
nodes = (
(30,126,o),
(-52,17,o),
(-157,17,cs),
(-273,17,o),
(-346,113,o),
(-346,265,cs),
(-346,415,o),
(-273,509,o),
(-157,509,cs),
(-52,509,o),
(30,402,o),
(30,265,cs)
);
},
{
pos = (76,0);
ref = caroncomb.alt;
}
);
};
layerId = "EE2FFE84-06F1-4AFB-BBEC-60D09A436D14";
shapes = (
{
alignment = -1;
ref = l;
},
{
pos = (119,0);
ref = apostrophemod;
}
);
width = 274;
},
{
layerId = "6C190511-B94A-4F5A-B519-D6E9DB0E7B93";
shapes = (
{
alignment = -1;
ref = l;
},
{
alignment = -1;
pos = (164,0);
ref = apostrophemod;
}
);
width = 361;
},
{
layerId = "3507EE3D-0D92-4546-A145-3A991F0A2B71";
shapes = (
{
alignment = -1;
ref = l;
},
{
alignment = -1;
pos = (261,0);
ref = apostrophemod;
}
);
width = 521;
}
);
metricLeft = l;
metricRight = l;
unicode = 318;
},
{
glyphname = lslash;
lastChange = "2023-11-09 15:31:35 +0000";
layers = (
{
layerId = "EE2FFE84-06F1-4AFB-BBEC-60D09A436D14";
shapes = (
{
pos = (93,0);
ref = l;
},
{
closed = 1;
nodes = (
(98,331,l),
(308,427,l),
(295,454,l),
(85,358,l)
);
}
);
width = 348;
},
{
layerId = "6C190511-B94A-4F5A-B519-D6E9DB0E7B93";
shapes = (
{
alignment = -1;
pos = (79,0);
ref = l;
},
{
closed = 1;
nodes = (
(112,304,l),
(337,408,l),
(306,475,l),
(80,372,l)
);
}
);
width = 377;
},
{
layerId = "3507EE3D-0D92-4546-A145-3A991F0A2B71";
shapes = (
{
alignment = -1;
pos = (62,0);
ref = l;
},
{
closed = 1;
nodes = (
(83,302,l),
(415,403,l),
(389,488,l),
(56,387,l)
);
}
);
width = 443.80282;
}
);
metricLeft = l;
metricRight = l;
unicode = 322;
},
{
glyphname = m;
kernLeft = n;
kernRight = n;
lastChange = "2023-11-09 15:31:35 +0000";
layers = (
{
anchors = (
{
name = bottom;
pos = (420,0);
},
{
name = top;
pos = (420,530);
}
);
background = {
shapes = (
{
closed = 1;
nodes = (
(28,0,l),
(114,0,l),
(114,317,ls),
(114,410,o),
(162,466,o),
(243,466,cs),
(306,466,o),
(344,410,o),
(344,317,cs),
(344,0,l),
(430,0,l),
(430,317,ls),
(430,412,o),
(477,466,o),
(559,466,cs),
(623,466,o),
(660,412,o),
(660,317,cs),
(660,0,l),
(746,0,l),
(746,341,ls),
(746,469,o),
(684,542,o),
(577,542,cs),
(482,542,o),
(424,491,o),
(408,400,c),
(424,399,l),
(409,489,o),
(349,542,o),
(261,542,cs),
(176,542,o),
(117,494,o),
(100,410,c),
(111,397,l),
(106,530,l),
(28,530,l)
);
}
);
};
layerId = "EE2FFE84-06F1-4AFB-BBEC-60D09A436D14";
shapes = (
{
closed = 1;
nodes = (
(85,0,l),
(115,0,l),
(115,317,ls),
(115,426,o),
(187,512,o),
(280,512,cs),
(359,512,o),
(405,437,o),
(405,317,cs),
(405,0,l),
(435,0,l),
(435,308,ls),
(435,422,o),
(507,512,o),
(599,512,cs),
(680,512,o),
(731,436,o),
(731,314,cs),
(731,0,l),
(761,0,l),
(761,338,ls),
(761,458,o),
(696,542,o),
(603,542,cs),
(519,542,o),
(450,487,o),
(428,399,c),
(410,487,o),
(355,542,o),
(286,542,cs),
(202,542,o),
(133,488,o),
(115,415,c),
(113,530,l),
(85,530,l)
);
}
);
width = 846;
},
{
associatedMasterId = "EE2FFE84-06F1-4AFB-BBEC-60D09A436D14";
background = {
shapes = (
{
closed = 1;
nodes = (
(11,0,l),
(97,0,l),
(97,317,ls),
(97,410,o),
(145,466,o),
(226,466,cs),
(289,466,o),
(327,410,o),
(327,317,cs),
(327,0,l),
(413,0,l),
(413,317,ls),
(413,412,o),
(460,466,o),
(542,466,cs),
(606,466,o),
(643,412,o),
(643,317,cs),
(643,0,l),
(729,0,l),
(729,341,ls),
(729,469,o),
(667,542,o),
(560,542,cs),
(465,542,o),
(407,491,o),
(391,400,c),
(407,399,l),
(392,489,o),
(332,542,o),
(244,542,cs),
(159,542,o),
(100,494,o),
(83,410,c),
(94,397,l),
(89,530,l),
(11,530,l)
);
}
);
};
layerId = "09ED80C9-A39B-4FA7-92C4-302824AFB0B4";
name = "8 de feb. de 23 15:09";
shapes = (
{
closed = 1;
nodes = (
(40,0,l),
(70,0,l),
(70,317,ls),
(70,426,o),
(142,512,o),
(235,512,cs),
(314,512,o),
(360,437,o),
(360,317,cs),
(360,0,l),
(390,0,l),
(390,341,ls),
(390,459,o),
(327,542,o),
(238,542,cs),
(154,542,o),
(88,488,o),
(70,415,c),
(68,530,l),
(40,530,l)
);
},
{
closed = 1;
nodes = (
(390,308,l),
(390,422,o),
(462,512,o),
(554,512,cs),
(635,512,o),
(686,436,o),
(686,314,cs),
(686,0,l),
(716,0,l),
(716,338,ls),
(716,458,o),
(651,542,o),
(558,542,cs),
(473,542,o),
(406,486,o),
(384,397,c)
);
}
);
width = 756;
},
{
anchors = (
{
name = bottom;
pos = (438,0);
},
{
name = top;
pos = (438,530);
}
);
layerId = "6C190511-B94A-4F5A-B519-D6E9DB0E7B93";
shapes = (
{
closed = 1;
nodes = (
(80,0,l),
(164,0,l),
(164,317,ls),
(164,411,o),
(213,468,o),
(295,468,cs),
(358,468,o),
(396,411,o),
(396,317,cs),
(396,0,l),
(480,0,l),
(480,317,ls),
(480,412,o),
(528,468,o),
(611,468,cs),
(675,468,o),
(713,413,o),
(713,317,cs),
(713,0,l),
(797,0,l),
(797,341,ls),
(797,469,o),
(735,542,o),
(628,542,cs),
(545,542,o),
(490,502,o),
(467,431,c),
(444,502,o),
(389,542,o),
(312,542,cs),
(239,542,o),
(184,505,o),
(159,441,c),
(157,530,l),
(80,530,l)
);
}
);
width = 876.93333;
},
{
anchors = (
{
name = bottom;
pos = (457,0);
},
{
name = top;
pos = (457,530);
}
);
layerId = "3507EE3D-0D92-4546-A145-3A991F0A2B71";
shapes = (
{
closed = 1;
nodes = (
(56,0,l),
(250,0,l),
(250,274,ls),
(250,354,o),
(270,393,o),
(317,393,cs),
(359,393,o),
(374,358,o),
(374,274,cs),
(374,0,l),
(540,0,l),
(540,274,ls),
(540,354,o),
(560,393,o),
(607,393,cs),
(649,393,o),
(665,356,o),
(665,274,cs),
(665,0,l),
(859,0,l),
(859,341,ls),
(859,475,o),
(785,542,o),
(678,542,cs),
(611,542,o),
(556,507,o),
(527,434,c),
(503,502,o),
(451,542,o),
(379,542,cs),
(314,542,o),
(262,508,o),
(234,450,c),
(230,530,l),
(56,530,l)
);
}
);
width = 915.05164;
}
);
metricLeft = n;
metricRight = n;
unicode = 109;
},
{
glyphname = n;
kernLeft = n;
kernRight = n;
lastChange = "2023-11-14 19:46:26 +0000";
layers = (
{
anchors = (
{
name = bottom;
pos = (278,0);
},
{
name = top;
pos = (278,530);
}
);
background = {
shapes = (
{
closed = 1;
nodes = (
(166,0,l),
(252,0,l),
(252,317,ls),
(252,414,o),
(307,466,o),
(391,466,cs),
(470,466,o),
(502,414,o),
(502,317,cs),
(502,0,l),
(588,0,l),
(588,341,ls),
(588,453,o),
(530,542,o),
(409,542,cs),
(326,542,o),
(257,500,o),
(237,407,c),
(248,395,l),
(244,530,l),
(166,530,l)
);
}
);
};
layerId = "EE2FFE84-06F1-4AFB-BBEC-60D09A436D14";
shapes = (
{
closed = 1;
nodes = (
(85,0,l),
(115,0,l),
(115,317,ls),
(115,431,o),
(178,512,o),
(289,512,cs),
(398,512,o),
(441,432,o),
(441,317,cs),
(441,0,l),
(471,0,l),
(471,341,ls),
(471,453,o),
(412,542,o),
(297,542,cs),
(201,542,o),
(118,494,o),
(111,385,c),
(116,385,l),
(113,530,l),
(85,530,l)
);
}
);
width = 556;
},
{
anchors = (
{
name = bottom;
pos = (291,0);
},
{
name = top;
pos = (291,530);
}
);
layerId = "6C190511-B94A-4F5A-B519-D6E9DB0E7B93";
shapes = (
{
closed = 1;
nodes = (
(80,0,l),
(164,0,l),
(164,317,ls),
(164,415,o),
(220,468,o),
(304,468,cs),
(384,468,o),
(417,415,o),
(417,317,cs),
(417,0,l),
(501,0,l),
(501,341,ls),
(501,453,o),
(443,542,o),
(322,542,cs),
(239,542,o),
(169,500,o),
(150,406,c),
(160,395,l),
(157,530,l),
(80,530,l)
);
}
);
width = 581.13333;
},
{
anchors = (
{
name = bottom;
pos = (315,0);
},
{
name = top;
pos = (315,530);
}
);
layerId = "3507EE3D-0D92-4546-A145-3A991F0A2B71";
shapes = (
{
closed = 1;
nodes = (
(56,0,l),
(250,0,l),
(250,274,ls),
(250,350,o),
(270,393,o),
(319,393,cs),
(371,393,o),
(380,350,o),
(380,274,cs),
(380,0,l),
(575,0,l),
(575,341,ls),
(575,471,o),
(502,542,o),
(390,542,cs),
(298,542,o),
(226,500,o),
(214,364,c),
(239,361,l),
(230,530,l),
(56,530,l)
);
}
);
width = 630.60094;
}
);
unicode = 110;
},
{
glyphname = eng;
kernLeft = n;
kernRight = n;
lastChange = "2023-11-09 15:31:35 +0000";
layers = (
{
layerId = "EE2FFE84-06F1-4AFB-BBEC-60D09A436D14";
shapes = (
{
ref = n;
},
{
closed = 1;
nodes = (
(441,-30,ls),
(441,-83,o),
(403,-120,o),
(349,-120,cs),
(271,-120,l),
(271,-150,l),
(347,-150,ls),
(420,-150,o),
(471,-100,o),
(471,-30,cs),
(471,33,l),
(441,33,l)
);
}
);
width = 556;
},
{
layerId = "6C190511-B94A-4F5A-B519-D6E9DB0E7B93";
shapes = (
{
alignment = -1;
ref = n;
},
{
closed = 1;
nodes = (
(417,-8,ls),
(417,-49,o),
(392,-76,o),
(353,-76,cs),
(270,-76,l),
(270,-150,l),
(351,-150,ls),
(443,-150,o),
(501,-94,o),
(501,-7,cs),
(501,91,l),
(417,91,l)
);
}
);
width = 581.13333;
},
{
layerId = "3507EE3D-0D92-4546-A145-3A991F0A2B71";
shapes = (
{
alignment = -1;
ref = n;
},
{
closed = 1;
nodes = (
(380,-3,ls),
(380,-34,o),
(360,-52,o),
(324,-52,cs),
(280,-52,l),
(280,-172,l),
(393,-172,ls),
(505,-172,o),
(575,-106,o),
(575,-2,cs),
(575,136,l),
(380,136,l)
);
}
);
width = 630.60094;
}
);
metricLeft = n;
metricRight = n;
unicode = 331;
},
{
glyphname = o;
kernLeft = o;
kernRight = o;
lastChange = "2023-11-11 21:07:47 +0000";
layers = (
{
anchors = (
{
name = bottom;
pos = (275,0);
},
{
name = top;
pos = (275,530);
}
);
background = {
shapes = (
{
closed = 1;
nodes = (
(412,-12,o),
(508,96,o),
(508,265,cs),
(508,434,o),
(412,542,o),
(265,542,cs),
(118,542,o),
(22,434,o),
(22,265,cs),
(22,96,o),
(118,-12,o),
(265,-12,cs)
);
},
{
closed = 1;
nodes = (
(168,70,o),
(112,143,o),
(112,265,cs),
(112,387,o),
(168,460,o),
(265,460,cs),
(362,460,o),
(418,387,o),
(418,265,cs),
(418,143,o),
(362,70,o),
(265,70,cs)
);
}
);
};
layerId = "EE2FFE84-06F1-4AFB-BBEC-60D09A436D14";
shapes = (
{
closed = 1;
nodes = (
(413,-12,o),
(500,95,o),
(500,265,cs),
(500,435,o),
(413,542,o),
(275,542,cs),
(137,542,o),
(50,435,o),
(50,265,cs),
(50,95,o),
(137,-12,o),
(275,-12,cs)
);
},
{
closed = 1;
nodes = (
(156,18,o),
(82,113,o),
(82,265,cs),
(82,417,o),
(156,512,o),
(275,512,cs),
(394,512,o),
(468,417,o),
(468,265,cs),
(468,113,o),
(394,18,o),
(275,18,cs)
);
}
);
width = 550;
},
{
anchors = (
{
name = bottom;
pos = (290,0);
},
{
name = top;
pos = (290,530);
}
);
layerId = "6C190511-B94A-4F5A-B519-D6E9DB0E7B93";
shapes = (
{
closed = 1;
nodes = (
(436,-12,o),
(532,96,o),
(532,265,cs),
(532,434,o),
(436,542,o),
(290,542,cs),
(143,542,o),
(47,434,o),
(47,265,cs),
(47,96,o),
(143,-12,o),
(290,-12,cs)
);
},
{
closed = 1;
nodes = (
(192,68,o),
(135,142,o),
(135,265,cs),
(135,388,o),
(192,462,o),
(290,462,cs),
(387,462,o),
(444,388,o),
(444,265,cs),
(444,142,o),
(387,68,o),
(290,68,cs)
);
}
);
width = 579;
},
{
anchors = (
{
name = bottom;
pos = (325,0);
},
{
name = top;
pos = (325,530);
}
);
layerId = "3507EE3D-0D92-4546-A145-3A991F0A2B71";
shapes = (
{
closed = 1;
nodes = (
(501,-12,o),
(617,98,o),
(617,265,cs),
(617,432,o),
(501,542,o),
(325,542,cs),
(149,542,o),
(33,432,o),
(33,265,cs),
(33,98,o),
(149,-12,o),
(325,-12,cs)
);
},
{
closed = 1;
nodes = (
(265,127,o),
(232,176,o),
(232,265,cs),
(232,354,o),
(265,403,o),
(325,403,cs),
(385,403,o),
(418,354,o),
(418,265,cs),
(418,176,o),
(385,127,o),
(325,127,cs)
);
}
);
width = 650.11268;
}
);
unicode = 111;
},
{
glyphname = oslash;
lastChange = "2023-11-09 15:31:35 +0000";
layers = (
{
layerId = "EE2FFE84-06F1-4AFB-BBEC-60D09A436D14";
shapes = (
{
pos = (-1,0);
ref = o;
},
{
closed = 1;
nodes = (
(12,-12,l),
(51,-12,l),
(516,542,l),
(477,542,l)
);
}
);
width = 516;
},
{
layerId = "6C190511-B94A-4F5A-B519-D6E9DB0E7B93";
shapes = (
{
alignment = -1;
ref = o;
},
{
closed = 1;
nodes = (
(12,-12,l),
(99,-12,l),
(564,542,l),
(477,542,l)
);
}
);
width = 564.33333;
},
{
layerId = "3507EE3D-0D92-4546-A145-3A991F0A2B71";
shapes = (
{
alignment = -1;
ref = o;
},
{
closed = 1;
nodes = (
(46,-12,l),
(161,-12,l),
(594,542,l),
(480,542,l)
);
}
);
width = 634.48826;
}
);
unicode = 248;
},
{
glyphname = p;
kernLeft = n;
kernRight = o;
lastChange = "2023-11-09 15:31:35 +0000";
layers = (
{
background = {
shapes = (
{
closed = 1;
nodes = (
(123,-150,l),
(123,112,l),
(111,98,l),
(136,26,o),
(195,-12,o),
(280,-12,cs),
(439,-12,o),
(509,120,o),
(509,265,cs),
(509,410,o),
(439,542,o),
(280,542,cs),
(195,542,o),
(136,504,o),
(110,435,c),
(119,418,l),
(115,530,l),
(37,530,l),
(37,-150,l)
);
},
{
closed = 1;
nodes = (
(113,363,o),
(157,460,o),
(265,460,cs),
(374,460,o),
(417,364,o),
(417,265,cs),
(417,166,o),
(374,70,o),
(265,70,cs),
(157,70,o),
(113,167,o),
(113,265,cs)
);
}
);
};
layerId = "EE2FFE84-06F1-4AFB-BBEC-60D09A436D14";
shapes = (
{
closed = 1;
nodes = (
(115,-150,l),
(115,173,l),
(107,158,l),
(124,63,o),
(209,-9,o),
(299,-9,cs),
(435,-9,o),
(520,97,o),
(520,265,cs),
(520,435,o),
(435,542,o),
(299,542,cs),
(209,542,o),
(129,473,o),
(99,367,c),
(111,355,l),
(107,530,l),
(85,530,l),
(85,-150,l)
);
},
{
closed = 1;
nodes = (
(112,404,o),
(194,513,o),
(299,513,cs),
(415,513,o),
(488,417,o),
(488,265,cs),
(488,115,o),
(415,21,o),
(299,21,cs),
(194,21,o),
(112,128,o),
(112,265,cs)
);
}
);
width = 570;
},
{
layerId = "6C190511-B94A-4F5A-B519-D6E9DB0E7B93";
shapes = (
{
closed = 1;
nodes = (
(164,-150,l),
(164,114,l),
(152,100,l),
(177,27,o),
(237,-12,o),
(322,-12,cs),
(480,-12,o),
(551,119,o),
(551,265,cs),
(551,411,o),
(480,542,o),
(322,542,cs),
(237,542,o),
(177,503,o),
(151,433,c),
(160,416,l),
(156,530,l),
(80,530,l),
(80,-150,l)
);
},
{
closed = 1;
nodes = (
(155,364,o),
(200,462,o),
(308,462,cs),
(417,462,o),
(461,366,o),
(461,265,cs),
(461,164,o),
(417,68,o),
(308,68,cs),
(200,68,o),
(155,166,o),
(155,265,cs)
);
}
);
width = 598.03333;
},
{
layerId = "3507EE3D-0D92-4546-A145-3A991F0A2B71";
shapes = (
{
closed = 1;
nodes = (
(250,-150,l),
(250,110,l),
(237,106,l),
(267,30,o),
(326,-12,o),
(402,-12,cs),
(546,-12,o),
(628,102,o),
(628,265,cs),
(628,428,o),
(546,542,o),
(402,542,cs),
(322,542,o),
(262,500,o),
(236,424,c),
(249,420,l),
(245,530,l),
(56,530,l),
(56,-150,l)
);
},
{
closed = 1;
nodes = (
(240,342,o),
(273,405,o),
(335,405,cs),
(394,405,o),
(429,343,o),
(429,265,cs),
(429,185,o),
(397,125,o),
(335,125,cs),
(274,125,o),
(240,185,o),
(240,265,cs)
);
}
);
width = 661.22066;
}
);
metricLeft = n;
metricRight = o;
unicode = 112;
},
{
glyphname = thorn;
lastChange = "2023-11-09 15:31:35 +0000";
layers = (
{
layerId = "EE2FFE84-06F1-4AFB-BBEC-60D09A436D14";
shapes = (
{
closed = 1;
nodes = (
(85,-150,l),
(117,-150,l),
(117,114,l),
(155,36,o),
(224,-12,o),
(300,-12,cs),
(436,-12,o),
(522,95,o),
(522,265,cs),
(522,433,o),
(436,539,o),
(300,539,cs),
(221,539,o),
(146,485,o),
(117,407,c),
(117,710,l),
(85,710,l)
);
},
{
closed = 1;
nodes = (
(117,402,o),
(199,509,o),
(304,509,cs),
(420,509,o),
(493,415,o),
(493,265,cs),
(493,113,o),
(420,17,o),
(304,17,cs),
(199,17,o),
(117,126,o),
(117,265,cs)
);
}
);
width = 572;
},
{
layerId = "6C190511-B94A-4F5A-B519-D6E9DB0E7B93";
shapes = (
{
closed = 1;
nodes = (
(80,-150,l),
(166,-150,l),
(166,64,l),
(198,16,o),
(251,-12,o),
(327,-12,cs),
(480,-12,o),
(551,119,o),
(551,265,cs),
(551,411,o),
(480,542,o),
(327,542,cs),
(251,542,o),
(196,514,o),
(166,463,c),
(166,710,l),
(80,710,l)
);
},
{
closed = 1;
nodes = (
(157,368,o),
(201,466,o),
(310,466,cs),
(420,466,o),
(463,370,o),
(463,265,cs),
(463,164,o),
(420,68,o),
(310,68,cs),
(201,68,o),
(157,166,o),
(157,265,cs)
);
}
);
width = 598.1;
},
{
layerId = "3507EE3D-0D92-4546-A145-3A991F0A2B71";
shapes = (
{
closed = 1;
nodes = (
(56,-150,l),
(252,-150,l),
(252,32,l),
(280,5,o),
(320,-12,o),
(367,-12,cs),
(521,-12,o),
(611,102,o),
(611,265,cs),
(611,428,o),
(521,542,o),
(367,542,cs),
(311,542,o),
(275,525,o),
(252,500,c),
(252,710,l),
(56,710,l)
);
},
{
closed = 1;
nodes = (
(242,334,o),
(271,387,o),
(327,387,cs),
(384,387,o),
(412,335,o),
(412,265,cs),
(412,196,o),
(384,144,o),
(327,144,cs),
(271,144,o),
(242,197,o),
(242,265,cs)
);
}
);
width = 644;
}
);
metricLeft = h;
metricRight = o;
unicode = 254;
},
{
glyphname = r;
kernLeft = n;
kernRight = r;
lastChange = "2023-11-14 17:53:46 +0000";
layers = (
{
anchors = (
{
name = bottom;
pos = (100,0);
},
{
name = top;
pos = (179,530);
}
);
background = {
shapes = (
{
closed = 1;
nodes = (
(56,0,l),
(142,0,l),
(142,316,ls),
(142,407,o),
(179,454,o),
(260,454,cs),
(312,454,l),
(312,530,l),
(260,530,ls),
(177,530,o),
(141,488,o),
(129,410,c),
(136,402,l),
(132,530,l),
(56,530,l)
);
}
);
};
layerId = "EE2FFE84-06F1-4AFB-BBEC-60D09A436D14";
shapes = (
{
closed = 1;
nodes = (
(85,0,l),
(115,0,l),
(115,316,ls),
(115,421,o),
(173,503,o),
(259,503,cs),
(293,503,l),
(293,530,l),
(259,530,ls),
(176,530,o),
(125,472,o),
(100,370,c),
(112,360,l),
(107,530,l),
(85,530,l)
);
}
);
width = 343;
},
{
anchors = (
{
name = bottom;
pos = (122,0);
},
{
name = top;
pos = (196,530);
}
);
layerId = "6C190511-B94A-4F5A-B519-D6E9DB0E7B93";
shapes = (
{
closed = 1;
nodes = (
(80,0,l),
(164,0,l),
(164,316,ls),
(164,407,o),
(202,456,o),
(283,456,cs),
(335,456,l),
(335,530,l),
(283,530,ls),
(203,530,o),
(163,489,o),
(150,399,c),
(158,391,l),
(154,530,l),
(80,530,l)
);
}
);
width = 381.66667;
},
{
anchors = (
{
name = bottom;
pos = (153,0);
},
{
name = top;
pos = (255,530);
}
);
layerId = "3507EE3D-0D92-4546-A145-3A991F0A2B71";
shapes = (
{
closed = 1;
nodes = (
(56,0,l),
(250,0,l),
(250,280,ls),
(250,357,o),
(284,393,o),
(375,393,cs),
(423,393,l),
(423,530,l),
(377,530,ls),
(297,530,o),
(254,472,o),
(237,365,c),
(250,363,l),
(245,530,l),
(56,530,l)
);
}
);
width = 456;
}
);
metricLeft = n;
metricRight = o;
unicode = 114;
},
{
glyphname = s;
kernLeft = o;
kernRight = o;
lastChange = "2023-11-09 15:31:35 +0000";
layers = (
{
anchors = (
{
name = bottom;
pos = (262,0);
},
{
name = top;
pos = (252,530);
}
);
background = {
shapes = (
{
closed = 1;
nodes = (
(458,458,o),
(367,542,o),
(242,542,cs),
(134,542,o),
(38,482,o),
(38,374,cs),
(38,276,o),
(142,242,o),
(238,219,cs),
(294,206,o),
(368,198,o),
(368,140,cs),
(368,84,o),
(307,70,o),
(251,70,cs),
(162,70,o),
(97,129,o),
(110,217,c),
(174,178,l),
(-18,164,l),
(23,217,l),
(1,79,o),
(111,-12,o),
(251,-12,cs),
(355,-12,o),
(458,31,o),
(458,135,cs),
(458,237,o),
(352,269,o),
(253,294,cs),
(197,309,o),
(128,321,o),
(128,379,cs),
(128,433,o),
(179,460,o),
(233,460,cs),
(312,460,o),
(376,412,o),
(372,333,c),
(340,364,l),
(478,374,l),
(458,333,l)
);
}
);
};
layerId = "EE2FFE84-06F1-4AFB-BBEC-60D09A436D14";
shapes = (
{
closed = 1;
nodes = (
(428,477,o),
(349,542,o),
(252,542,cs),
(140,542,o),
(64,480,o),
(68,392,cs),
(71,321,o),
(125,283,o),
(248,246,cs),
(318,225,o),
(426,208,o),
(426,130,cs),
(426,55,o),
(362,18,o),
(261,18,cs),
(160,18,o),
(81,80,o),
(81,159,c),
(50,155,l),
(51,61,o),
(144,-12,o),
(261,-12,cs),
(382,-12,o),
(458,40,o),
(458,130,cs),
(458,204,o),
(393,239,o),
(263,272,cs),
(145,304,o),
(103,338,o),
(100,392,cs),
(96,462,o),
(155,512,o),
(243,512,cs),
(333,512,o),
(398,461,o),
(412,379,c),
(443,385,l)
);
}
);
width = 508;
},
{
anchors = (
{
name = bottom;
pos = (268,0);
},
{
name = top;
pos = (265,530);
}
);
layerId = "6C190511-B94A-4F5A-B519-D6E9DB0E7B93";
shapes = (
{
closed = 1;
nodes = (
(456,475,o),
(369,542,o),
(264,542,cs),
(142,542,o),
(60,478,o),
(60,377,cs),
(60,274,o),
(163,246,o),
(260,224,cs),
(320,210,o),
(395,203,o),
(395,140,cs),
(395,85,o),
(328,68,o),
(276,68,cs),
(197,68,o),
(146,109,o),
(135,173,c),
(47,167,l),
(55,57,o),
(151,-12,o),
(276,-12,cs),
(377,-12,o),
(483,32,o),
(483,135,cs),
(483,240,o),
(395,273,o),
(275,296,cs),
(217,308,o),
(148,329,o),
(148,381,cs),
(148,432,o),
(196,462,o),
(255,462,cs),
(314,462,o),
(373,426,o),
(385,366,c),
(473,372,l)
);
}
);
width = 530.23333;
},
{
anchors = (
{
name = bottom;
pos = (311,0);
},
{
name = top;
pos = (310,530);
}
);
layerId = "3507EE3D-0D92-4546-A145-3A991F0A2B71";
shapes = (
{
closed = 1;
nodes = (
(554,476,o),
(462,543,o),
(310,543,cs),
(138,543,o),
(46,481,o),
(46,373,cs),
(46,280,o),
(111,237,o),
(292,205,cs),
(337,196,o),
(372,186,o),
(373,153,cs),
(375,125,o),
(343,110,o),
(311,110,cs),
(264,110,o),
(235,134,o),
(227,177,c),
(33,169,l),
(42,54,o),
(143,-12,o),
(318,-12,cs),
(477,-12,o),
(572,44,o),
(572,152,cs),
(572,248,o),
(504,294,o),
(323,320,cs),
(277,327,o),
(248,341,o),
(245,371,cs),
(242,402,o),
(269,422,o),
(306,422,cs),
(343,422,o),
(374,396,o),
(380,352,c),
(572,358,l)
);
}
);
width = 605;
}
);
metricLeft = o;
metricRight = o;
unicode = 115;
},
{
glyphname = germandbls;
lastChange = "2023-11-09 15:31:35 +0000";
layers = (
{
background = {
shapes = (
{
closed = 1;
nodes = (
(184,30,l),
(184,0,l),
(288,0,ls),
(430,0,o),
(530,85,o),
(530,206,cs),
(530,334,o),
(408,415,o),
(233,409,c),
(492,660,l),
(492,710,l),
(57,710,l),
(57,0,l),
(89,0,l),
(89,680,l),
(470,680,l),
(194,412,l),
(194,378,l),
(242,379,ls),
(391,382,o),
(496,311,o),
(496,206,cs),
(496,103,o),
(410,30,o),
(288,30,cs)
);
}
);
};
layerId = "EE2FFE84-06F1-4AFB-BBEC-60D09A436D14";
shapes = (
{
closed = 1;
nodes = (
(392,30,o),
(484,99,o),
(484,194,cs),
(484,294,o),
(394,362,o),
(266,359,cs),
(222,358,l),
(222,389,l),
(266,388,ls),
(369,386,o),
(442,449,o),
(442,541,cs),
(442,628,o),
(375,690,o),
(279,690,cs),
(184,690,o),
(117,612,o),
(117,502,cs),
(117,0,l),
(85,0,l),
(85,502,ls),
(85,631,o),
(165,722,o),
(279,722,cs),
(395,722,o),
(476,647,o),
(476,541,cs),
(476,445,o),
(403,373,o),
(298,367,c),
(297,384,l),
(427,376,o),
(518,297,o),
(518,194,cs),
(518,83,o),
(412,0,o),
(276,0,cs),
(212,0,l),
(212,30,l),
(276,30,ls)
);
}
);
width = 563;
},
{
layerId = "6C190511-B94A-4F5A-B519-D6E9DB0E7B93";
shapes = (
{
closed = 1;
nodes = (
(381,80,o),
(460,121,o),
(460,206,cs),
(460,298,o),
(380,340,o),
(286,338,cs),
(242,337,l),
(242,418,l),
(286,417,ls),
(370,415,o),
(418,472,o),
(418,541,cs),
(418,596,o),
(363,642,o),
(294,642,cs),
(218,642,o),
(164,595,o),
(164,502,cs),
(164,0,l),
(80,0,l),
(80,502,ls),
(80,642,o),
(172,722,o),
(294,722,cs),
(417,722,o),
(504,650,o),
(504,541,cs),
(504,454,o),
(447,382,o),
(347,376,c),
(346,393,l),
(460,386,o),
(548,312,o),
(548,199,cs),
(548,68,o),
(428,0,o),
(296,0,cs),
(232,0,l),
(232,80,l),
(296,80,ls)
);
}
);
width = 590.06667;
},
{
layerId = "3507EE3D-0D92-4546-A145-3A991F0A2B71";
shapes = (
{
closed = 1;
nodes = (
(432,156,o),
(477,177,o),
(477,222,cs),
(477,271,o),
(437,292,o),
(371,291,cs),
(320,290,l),
(320,441,l),
(357,440,ls),
(405,439,o),
(435,467,o),
(435,507,cs),
(435,541,o),
(403,566,o),
(359,566,cs),
(293,566,o),
(250,518,o),
(250,437,cs),
(250,0,l),
(56,0,l),
(56,437,ls),
(56,620,o),
(164,722,o),
(359,722,cs),
(520,722,o),
(631,644,o),
(631,519,cs),
(631,430,o),
(560,368,o),
(433,359,c),
(432,376,l),
(579,372,o),
(675,302,o),
(675,194,cs),
(675,33,o),
(506,0,o),
(374,0,cs),
(310,0,l),
(310,156,l),
(374,156,ls)
);
}
);
width = 703;
}
);
metricLeft = h;
metricRight = f;
unicode = 223;
},
{
glyphname = t;
kernLeft = t;
kernRight = t;
lastChange = "2023-11-09 15:31:35 +0000";
layers = (
{
anchors = (
{
name = bottom;
pos = (227,0);
}
);
background = {
shapes = (
{
closed = 1;
nodes = (
(85,147,l),
(85,58,o),
(130,0,o),
(239,0,c),
(301,0,l),
(301,76,l),
(239,76,l),
(195,76,o),
(171,103,o),
(171,147,cs),
(171,650,l),
(85,650,l)
);
},
{
closed = 1;
nodes = (
(14,454,l),
(314,454,l),
(314,530,l),
(14,530,l)
);
}
);
};
layerId = "EE2FFE84-06F1-4AFB-BBEC-60D09A436D14";
shapes = (
{
closed = 1;
nodes = (
(153,107,ls),
(153,41,o),
(193,0,o),
(256,0,cs),
(312,0,l),
(312,27,l),
(256,27,ls),
(209,27,o),
(183,56,o),
(183,107,cs),
(183,650,l),
(153,650,l)
);
},
{
closed = 1;
nodes = (
(60,500,l),
(312,500,l),
(312,530,l),
(60,530,l)
);
}
);
width = 352;
},
{
anchors = (
{
name = bottom;
pos = (234,0);
}
);
layerId = "6C190511-B94A-4F5A-B519-D6E9DB0E7B93";
shapes = (
{
closed = 1;
nodes = (
(133,141,ls),
(133,51,o),
(185,0,o),
(280,0,cs),
(356,0,l),
(356,74,l),
(280,74,ls),
(238,74,o),
(217,97,o),
(217,141,cs),
(217,650,l),
(133,650,l)
);
},
{
closed = 1;
nodes = (
(55,456,l),
(358,456,l),
(358,530,l),
(55,530,l)
);
}
);
width = 395;
},
{
anchors = (
{
name = bottom;
pos = (271,0);
}
);
layerId = "3507EE3D-0D92-4546-A145-3A991F0A2B71";
shapes = (
{
closed = 1;
nodes = (
(123,195,l),
(123,62,o),
(189,0,o),
(320,0,c),
(458,0,l),
(458,137,l),
(373,137,l),
(338,137,o),
(318,159,o),
(318,195,cs),
(318,651,l),
(123,651,l)
);
},
{
closed = 1;
nodes = (
(31,394,l),
(455,394,l),
(455,530,l),
(31,530,l)
);
}
);
width = 481;
}
);
metricLeft = "=f-5";
metricRight = c;
unicode = 116;
},
{
glyphname = tbar;
kernLeft = t;
kernRight = t;
lastChange = "2023-11-09 15:31:35 +0000";
layers = (
{
layerId = "EE2FFE84-06F1-4AFB-BBEC-60D09A436D14";
shapes = (
{
ref = t;
},
{
closed = 1;
nodes = (
(60,267,l),
(312,267,l),
(312,297,l),
(60,297,l)
);
}
);
width = 352;
},
{
layerId = "6C190511-B94A-4F5A-B519-D6E9DB0E7B93";
shapes = (
{
alignment = -1;
ref = t;
},
{
closed = 1;
nodes = (
(55,245,l),
(358,245,l),
(358,319,l),
(55,319,l)
);
}
);
width = 395;
},
{
layerId = "3507EE3D-0D92-4546-A145-3A991F0A2B71";
shapes = (
{
alignment = -1;
ref = t;
},
{
closed = 1;
nodes = (
(31,225,l),
(455,225,l),
(455,315,l),
(31,315,l)
);
}
);
width = 481;
}
);
metricLeft = t;
metricRight = t;
unicode = 359;
},
{
glyphname = tcaron;
kernLeft = t;
kernRight = t;
lastChange = "2023-11-09 15:31:35 +0000";
layers = (
{
layerId = "EE2FFE84-06F1-4AFB-BBEC-60D09A436D14";
shapes = (
{
alignment = -1;
ref = t;
},
{
closed = 1;
nodes = (
(249,680,l),
(219,567,l),
(244,567,l),
(284,680,l)
);
},
{
pos = (175,680);
ref = period;
}
);
width = 352;
},
{
layerId = "6C190511-B94A-4F5A-B519-D6E9DB0E7B93";
shapes = (
{
alignment = -1;
ref = t;
},
{
closed = 1;
nodes = (
(297,665,l),
(259,572,l),
(308,572,l),
(364,665,l)
);
},
{
alignment = -1;
pos = (210,665);
ref = period;
}
);
width = 395.5;
},
{
layerId = "3507EE3D-0D92-4546-A145-3A991F0A2B71";
shapes = (
{
alignment = -1;
ref = t;
},
{
closed = 1;
nodes = (
(405,661,l),
(356,571,l),
(458,571,l),
(534,661,l)
);
},
{
alignment = -1;
pos = (306,661);
ref = period;
}
);
width = 532.33803;
}
);
metricLeft = t;
unicode = 357;
},
{
glyphname = u;
kernLeft = u;
kernRight = u;
lastChange = "2023-11-09 15:31:35 +0000";
layers = (
{
anchors = (
{
name = bottom;
pos = (278,0);
},
{
name = ogonek;
pos = (471,0);
},
{
name = top;
pos = (278,530);
}
);
layerId = "EE2FFE84-06F1-4AFB-BBEC-60D09A436D14";
shapes = (
{
closed = 1;
nodes = (
(471,530,l),
(441,530,l),
(441,213,ls),
(441,99,o),
(378,18,o),
(267,18,cs),
(158,18,o),
(115,98,o),
(115,213,cs),
(115,530,l),
(85,530,l),
(85,189,ls),
(85,77,o),
(144,-12,o),
(259,-12,cs),
(355,-12,o),
(438,36,o),
(445,145,c),
(440,145,l),
(443,0,l),
(471,0,l)
);
}
);
width = 556;
},
{
anchors = (
{
name = bottom;
pos = (284,0);
},
{
name = ogonek;
pos = (495,0);
},
{
name = top;
pos = (284,530);
}
);
layerId = "6C190511-B94A-4F5A-B519-D6E9DB0E7B93";
shapes = (
{
closed = 1;
nodes = (
(495,530,l),
(411,530,l),
(411,214,ls),
(411,115,o),
(356,62,o),
(274,62,cs),
(197,62,o),
(164,115,o),
(164,214,cs),
(164,530,l),
(80,530,l),
(80,189,ls),
(80,77,o),
(138,-12,o),
(256,-12,cs),
(336,-12,o),
(405,29,o),
(425,120,c),
(415,131,l),
(415,0,l),
(495,0,l)
);
}
);
width = 575.33333;
},
{
anchors = (
{
name = bottom;
pos = (313,0);
},
{
name = ogonek;
pos = (573,0);
},
{
name = top;
pos = (313,530);
}
);
layerId = "3507EE3D-0D92-4546-A145-3A991F0A2B71";
shapes = (
{
closed = 1;
nodes = (
(573,530,l),
(379,530,l),
(379,256,ls),
(379,180,o),
(360,137,o),
(311,137,cs),
(259,137,o),
(250,180,o),
(250,256,cs),
(250,530,l),
(56,530,l),
(56,189,ls),
(56,59,o),
(129,-12,o),
(239,-12,cs),
(331,-12,o),
(402,30,o),
(415,165,c),
(390,168,l),
(398,0,l),
(573,0,l)
);
}
);
width = 628.96714;
}
);
metricLeft = n;
metricRight = n;
unicode = 117;
},
{
glyphname = v;
kernLeft = v;
kernRight = v;
lastChange = "2023-11-09 15:31:35 +0000";
layers = (
{
background = {
shapes = (
{
pos = (-101,0);
ref = V;
}
);
};
layerId = "EE2FFE84-06F1-4AFB-BBEC-60D09A436D14";
shapes = (
{
closed = 1;
nodes = (
(426,530,l),
(241,31,l),
(56,530,l),
(24,530,l),
(222,0,l),
(260,0,l),
(458,530,l)
);
}
);
width = 482;
},
{
layerId = "6C190511-B94A-4F5A-B519-D6E9DB0E7B93";
shapes = (
{
closed = 1;
nodes = (
(424,530,l),
(268,88,l),
(112,530,l),
(22,530,l),
(215,0,l),
(321,0,l),
(514,530,l)
);
}
);
width = 536.13333;
},
{
layerId = "3507EE3D-0D92-4546-A145-3A991F0A2B71";
shapes = (
{
closed = 1;
nodes = (
(440,530,l),
(329,192,l),
(218,530,l),
(21,530,l),
(219,0,l),
(439,0,l),
(638,530,l)
);
}
);
width = 658.15023;
}
);
unicode = 118;
},
{
glyphname = w;
kernLeft = v;
kernRight = v;
lastChange = "2023-11-09 15:31:35 +0000";
layers = (
{
anchors = (
{
name = bottom;
pos = (389,0);
},
{
name = top;
pos = (389,530);
}
);
background = {
shapes = (
{
closed = 1;
nodes = (
(177,0,l),
(285,0,l),
(412,434,l),
(392,434,l),
(519,0,l),
(627,0,l),
(790,530,l),
(698,530,l),
(566,71,l),
(580,71,l),
(448,530,l),
(356,530,l),
(224,71,l),
(238,71,l),
(106,530,l),
(14,530,l)
);
}
);
};
layerId = "EE2FFE84-06F1-4AFB-BBEC-60D09A436D14";
shapes = (
{
closed = 1;
nodes = (
(373,530,l),
(221,33,l),
(56,530,l),
(24,530,l),
(203,0,l),
(239,0,l),
(389,480,l),
(538,0,l),
(574,0,l),
(753,530,l),
(721,530,l),
(556,33,l),
(404,530,l)
);
}
);
width = 777;
},
{
anchors = (
{
name = bottom;
pos = (410,0);
},
{
name = top;
pos = (410,530);
}
);
layerId = "6C190511-B94A-4F5A-B519-D6E9DB0E7B93";
shapes = (
{
closed = 1;
nodes = (
(364,530,l),
(238,93,l),
(112,530,l),
(22,530,l),
(186,0,l),
(291,0,l),
(409,403,l),
(527,0,l),
(633,0,l),
(797,530,l),
(707,530,l),
(580,93,l),
(454,530,l)
);
}
);
width = 818.56667;
},
{
anchors = (
{
name = bottom;
pos = (436,0);
},
{
name = top;
pos = (436,530);
}
);
layerId = "3507EE3D-0D92-4546-A145-3A991F0A2B71";
shapes = (
{
closed = 1;
nodes = (
(364,530,l),
(279,229,l),
(198,530,l),
(21,530,l),
(180,0,l),
(350,0,l),
(436,287,l),
(521,0,l),
(690,0,l),
(850,530,l),
(672,530,l),
(591,229,l),
(506,530,l)
);
}
);
width = 870;
}
);
metricLeft = v;
metricRight = v;
unicode = 119;
},
{
glyphname = x;
kernLeft = x;
kernRight = x;
lastChange = "2023-11-09 15:31:35 +0000";
layers = (
{
background = {
shapes = (
{
closed = 1;
nodes = (
(530,0,l),
(325,289,l),
(317,242,l),
(521,530,l),
(415,530,l),
(269,316,l),
(303,311,l),
(152,530,l),
(47,530,l),
(249,247,l),
(248,296,l),
(37,0,l),
(142,0,l),
(291,215,l),
(268,228,l),
(425,0,l)
);
}
);
};
layerId = "EE2FFE84-06F1-4AFB-BBEC-60D09A436D14";
shapes = (
{
closed = 1;
nodes = (
(268,285,l),
(93,530,l),
(56,530,l),
(246,266,l),
(49,0,l),
(86,0,l),
(268,248,l),
(450,0,l),
(487,0,l),
(290,266,l),
(480,530,l),
(443,530,l)
);
}
);
width = 536;
},
{
layerId = "6C190511-B94A-4F5A-B519-D6E9DB0E7B93";
shapes = (
{
closed = 1;
nodes = (
(293,336,l),
(160,530,l),
(57,530,l),
(241,272,l),
(47,0,l),
(150,0,l),
(293,206,l),
(436,0,l),
(538,0,l),
(346,271,l),
(529,530,l),
(426,530,l)
);
}
);
width = 585.3;
},
{
layerId = "3507EE3D-0D92-4546-A145-3A991F0A2B71";
shapes = (
{
closed = 1;
nodes = (
(348,386,l),
(255,531,l),
(50,531,l),
(237,268,l),
(46,0,l),
(252,0,l),
(348,151,l),
(442,0,l),
(649,0,l),
(457,268,l),
(645,531,l),
(440,531,l)
);
}
);
width = 694.26761;
}
);
metricLeft = "=v+25";
metricRight = "=v+25";
unicode = 120;
},
{
glyphname = y;
kernLeft = v;
kernRight = v;
lastChange = "2023-11-09 15:31:35 +0000";
layers = (
{
anchors = (
{
name = top;
pos = (256,530);
}
);
background = {
shapes = (
{
closed = 1;
nodes = (
(194,10,l),
(223,10,l),
(204,-39,ls),
(194,-64,o),
(179,-74,o),
(154,-74,cs),
(88,-74,l),
(88,-150,l),
(163,-150,ls),
(223,-150,o),
(261,-124,o),
(281,-67,cs),
(495,530,l),
(404,530,l),
(251,92,l),
(93,530,l),
(1,530,l)
);
}
);
};
layerId = "EE2FFE84-06F1-4AFB-BBEC-60D09A436D14";
shapes = (
{
closed = 1;
nodes = (
(233,10,l),
(249,10,l),
(230,-39,ls),
(204,-105,o),
(185,-123,o),
(132,-123,cs),
(92,-123,l),
(92,-150,l),
(131,-150,ls),
(193,-150,o),
(227,-125,o),
(249,-67,cs),
(473,530,l),
(441,530,l),
(256,31,l),
(56,530,l),
(24,530,l)
);
}
);
width = 497;
},
{
anchors = (
{
name = top;
pos = (269,530);
}
);
layerId = "6C190511-B94A-4F5A-B519-D6E9DB0E7B93";
shapes = (
{
closed = 1;
nodes = (
(216,10,l),
(244,10,l),
(225,-39,ls),
(215,-65,o),
(200,-76,o),
(174,-76,cs),
(113,-76,l),
(113,-150,l),
(182,-150,ls),
(242,-150,o),
(280,-124,o),
(300,-67,cs),
(515,530,l),
(426,530,l),
(271,90,l),
(112,530,l),
(22,530,l)
);
}
);
width = 536.63333;
},
{
anchors = (
{
name = top;
pos = (312,530);
}
);
layerId = "3507EE3D-0D92-4546-A145-3A991F0A2B71";
shapes = (
{
closed = 1;
nodes = (
(210,39,l),
(261,39,l),
(252,17,ls),
(241,-8,o),
(224,-17,o),
(187,-17,cs),
(116,-17,l),
(116,-150,l),
(229,-150,ls),
(317,-150,o),
(368,-116,o),
(396,-40,cs),
(600,530,l),
(423,530,l),
(313,201,l),
(198,530,l),
(21,530,l)
);
}
);
width = 620;
}
);
metricLeft = v;
metricRight = v;
unicode = 121;
},
{
glyphname = z;
kernLeft = z;
kernRight = z;
lastChange = "2023-11-09 15:31:35 +0000";
layers = (
{
anchors = (
{
name = bottom;
pos = (269,0);
},
{
name = top;
pos = (269,530);
}
);
background = {
shapes = (
{
closed = 1;
nodes = (
(502,530,l),
(84,530,l),
(84,448,l),
(461,448,l),
(441,494,l),
(42,65,l),
(74,180,l),
(74,0,l),
(510,0,l),
(510,82,l),
(117,82,l),
(138,44,l),
(533,468,l),
(502,409,l)
);
}
);
};
layerId = "EE2FFE84-06F1-4AFB-BBEC-60D09A436D14";
shapes = (
{
closed = 1;
nodes = (
(469,530,l),
(69,530,l),
(69,500,l),
(433,500,l),
(59,30,l),
(59,0,l),
(477,0,l),
(477,30,l),
(95,30,l),
(469,500,l)
);
}
);
width = 536;
},
{
anchors = (
{
name = bottom;
pos = (276,0);
},
{
name = top;
pos = (276,530);
}
);
layerId = "6C190511-B94A-4F5A-B519-D6E9DB0E7B93";
shapes = (
{
closed = 1;
nodes = (
(484,530,l),
(67,530,l),
(67,456,l),
(394,456,l),
(57,91,l),
(57,0,l),
(492,0,l),
(492,74,l),
(148,74,l),
(484,437,l)
);
}
);
width = 549;
},
{
anchors = (
{
name = bottom;
pos = (318,0);
},
{
name = top;
pos = (318,530);
}
);
layerId = "3507EE3D-0D92-4546-A145-3A991F0A2B71";
shapes = (
{
closed = 1;
nodes = (
(564,530,l),
(75,530,l),
(75,393,l),
(325,393,l),
(56,136,l),
(56,0,l),
(571,0,l),
(571,137,l),
(287,137,l),
(564,398,l)
);
}
);
width = 626;
}
);
metricLeft = "=x+10";
metricRight = "=x+10";
unicode = 122;
},
{
glyphname = a.ss01;
kernLeft = a;
kernRight = n;
lastChange = "2023-11-09 15:31:35 +0000";
layers = (
{
anchors = (
{
name = bottom;
pos = (253,0);
},
{
name = ogonek;
pos = (449,0);
},
{
name = top;
pos = (253,530);
}
);
background = {
shapes = (
{
closed = 1;
nodes = (
(217,301,ls),
(100,280,o),
(17,253,o),
(17,141,cs),
(17,46,o),
(103,-10,o),
(208,-12,cs),
(308,-10,o),
(379,53,o),
(385,112,c),
(375,112,l),
(379,0,l),
(457,0,l),
(457,320,ls),
(457,468,o),
(371,542,o),
(243,542,cs),
(121,542,o),
(28,459,o),
(22,339,c),
(-6,376,l),
(134,366,l),
(115,338,l),
(116,407,o),
(168,460,o),
(243,460,cs),
(321,460,o),
(371,416,o),
(371,327,cs),
(371,303,l),
(392,333,l)
);
},
{
closed = 1;
nodes = (
(107,217,o),
(171,216,o),
(249,231,cs),
(387,257,l),
(373,274,l),
(373,219,ls),
(373,121,o),
(305,64,o),
(219,60,cs),
(142,56,o),
(107,100,o),
(107,141,cs)
);
}
);
};
layerId = "EE2FFE84-06F1-4AFB-BBEC-60D09A436D14";
shapes = (
{
closed = 1;
nodes = (
(227,280,ls),
(134,263,o),
(45,226,o),
(45,131,cs),
(45,48,o),
(111,-10,o),
(218,-12,cs),
(332,-10,o),
(424,62,o),
(433,192,c),
(421,192,l),
(427,0,l),
(449,0,l),
(449,320,ls),
(449,468,o),
(381,542,o),
(253,542,cs),
(131,542,o),
(56,459,o),
(50,339,c),
(4,376,l),
(144,366,l),
(87,338,l),
(89,446,o),
(152,512,o),
(253,512,cs),
(356,512,o),
(417,442,o),
(417,327,cs),
(417,303,l),
(440,319,l)
);
},
{
closed = 1;
nodes = (
(77,219,o),
(172,241,o),
(259,257,cs),
(435,290,l),
(419,295,l),
(419,219,ls),
(419,108,o),
(342,23,o),
(229,18,cs),
(136,13,o),
(77,60,o),
(77,131,cs)
);
}
);
width = 534;
},
{
anchors = (
{
name = bottom;
pos = (266,0);
},
{
name = ogonek;
pos = (481,0);
},
{
name = top;
pos = (268,530);
}
);
layerId = "6C190511-B94A-4F5A-B519-D6E9DB0E7B93";
shapes = (
{
closed = 1;
nodes = (
(242,300,ls),
(125,279,o),
(42,252,o),
(42,141,cs),
(42,46,o),
(127,-10,o),
(233,-12,cs),
(333,-10,o),
(405,53,o),
(411,115,c),
(402,115,l),
(405,0,l),
(481,0,l),
(481,320,ls),
(481,468,o),
(396,542,o),
(268,542,cs),
(146,542,o),
(53,459,o),
(47,339,c),
(19,376,l),
(159,366,l),
(138,338,l),
(139,408,o),
(192,462,o),
(268,462,cs),
(346,462,o),
(397,417,o),
(397,327,cs),
(397,303,l),
(418,333,l)
);
},
{
closed = 1;
nodes = (
(130,217,o),
(195,217,o),
(274,232,cs),
(413,258,l),
(399,275,l),
(399,219,ls),
(399,121,o),
(330,63,o),
(244,59,cs),
(166,55,o),
(130,99,o),
(130,141,cs)
);
}
);
width = 561.06667;
},
{
anchors = (
{
name = bottom;
pos = (303,0);
},
{
name = ogonek;
pos = (567,0);
},
{
name = top;
pos = (303,530);
}
);
layerId = "3507EE3D-0D92-4546-A145-3A991F0A2B71";
shapes = (
{
closed = 1;
nodes = (
(208,296,ls),
(93,273,o),
(28,230,o),
(28,140,cs),
(28,47,o),
(109,-15,o),
(212,-13,cs),
(347,-10,o),
(393,46,o),
(400,113,c),
(384,113,l),
(394,0,l),
(567,0,l),
(567,306,ls),
(567,466,o),
(479,542,o),
(303,542,cs),
(132,542,o),
(40,468,o),
(33,325,c),
(5,362,l),
(255,352,l),
(228,324,l),
(229,396,o),
(254,432,o),
(302,432,cs),
(349,432,o),
(370,405,o),
(370,334,cs),
(370,303,l),
(392,334,l)
);
},
{
closed = 1;
nodes = (
(227,188,o),
(260,201,o),
(309,211,cs),
(393,228,l),
(372,260,l),
(373,226,ls),
(375,148,o),
(341,100,o),
(289,99,cs),
(250,97,o),
(227,120,o),
(227,148,cs)
);
}
);
width = 622.79343;
}
);
metricLeft = "=o-5";
metricRight = n;
},
{
glyphname = a.ss02;
kernLeft = o;
kernRight = n;
lastChange = "2023-11-09 15:31:35 +0000";
layers = (
{
anchors = (
{
name = bottom;
pos = (269,0);
},
{
name = ogonek;
pos = (485,0);
},
{
name = top;
pos = (273,530);
}
);
background = {
shapes = (
{
closed = 1;
nodes = (
(426,530,l),
(426,422,l),
(438,436,l),
(413,504,o),
(354,542,o),
(264,542,cs),
(110,542,o),
(40,410,o),
(40,265,cs),
(40,120,o),
(110,-12,o),
(264,-12,cs),
(354,-12,o),
(413,26,o),
(439,91,c),
(430,108,l),
(434,0,l),
(512,0,l),
(512,530,l)
);
},
{
closed = 1;
nodes = (
(434,167,o),
(391,70,o),
(282,70,cs),
(172,70,o),
(130,166,o),
(130,265,cs),
(130,368,o),
(172,464,o),
(282,464,cs),
(391,464,o),
(434,367,o),
(434,265,cs)
);
}
);
};
layerId = "EE2FFE84-06F1-4AFB-BBEC-60D09A436D14";
shapes = (
{
closed = 1;
nodes = (
(455,530,l),
(455,402,l),
(427,482,o),
(351,539,o),
(271,539,cs),
(135,539,o),
(50,433,o),
(50,265,cs),
(50,95,o),
(135,-12,o),
(271,-12,cs),
(351,-12,o),
(424,43,o),
(460,130,c),
(463,0,l),
(485,0,l),
(485,530,l)
);
},
{
closed = 1;
nodes = (
(82,415,o),
(155,509,o),
(271,509,cs),
(376,509,o),
(458,402,o),
(458,265,cs),
(458,126,o),
(376,17,o),
(271,17,cs),
(155,17,o),
(82,113,o),
(82,265,cs)
);
}
);
width = 570;
},
{
anchors = (
{
name = bottom;
pos = (285,0);
},
{
name = ogonek;
pos = (518,0);
},
{
name = top;
pos = (288,530);
}
);
layerId = "6C190511-B94A-4F5A-B519-D6E9DB0E7B93";
shapes = (
{
closed = 1;
nodes = (
(434,530,l),
(434,460,l),
(404,513,o),
(349,542,o),
(271,542,cs),
(118,542,o),
(47,411,o),
(47,265,cs),
(47,119,o),
(118,-12,o),
(271,-12,cs),
(353,-12,o),
(410,21,o),
(439,76,c),
(442,0,l),
(518,0,l),
(518,530,l)
);
},
{
closed = 1;
nodes = (
(135,370,o),
(178,466,o),
(288,466,cs),
(397,466,o),
(442,368,o),
(442,265,cs),
(442,166,o),
(397,68,o),
(288,68,cs),
(178,68,o),
(135,164,o),
(135,265,cs)
);
}
);
width = 598.03333;
},
{
anchors = (
{
name = bottom;
pos = (304,0);
},
{
name = ogonek;
pos = (606,0);
},
{
name = top;
pos = (322,530);
}
);
layerId = "3507EE3D-0D92-4546-A145-3A991F0A2B71";
shapes = (
{
closed = 1;
nodes = (
(411,530,l),
(411,454,l),
(378,511,o),
(325,542,o),
(257,542,cs),
(115,542,o),
(33,428,o),
(33,265,cs),
(33,102,o),
(115,-12,o),
(257,-12,cs),
(329,-12,o),
(383,20,o),
(413,77,c),
(416,0,l),
(606,0,l),
(606,530,l)
);
},
{
closed = 1;
nodes = (
(231,346,o),
(263,406,o),
(325,406,cs),
(387,406,o),
(420,346,o),
(420,265,cs),
(420,188,o),
(388,125,o),
(325,125,cs),
(266,125,o),
(231,187,o),
(231,265,cs)
);
}
);
width = 662;
}
);
metricLeft = o;
metricRight = n;
},
{
glyphname = l.ss03;
kernLeft = b;
kernRight = d;
lastChange = "2023-11-09 15:31:35 +0000";
layers = (
{
anchors = (
{
name = bottom;
pos = (111,0);
},
{
name = top;
pos = (111,710);
}
);
layerId = "EE2FFE84-06F1-4AFB-BBEC-60D09A436D14";
shapes = (
{
closed = 1;
nodes = (
(96,0,l),
(126,0,l),
(126,710,l),
(96,710,l)
);
}
);
width = 222;
},
{
anchors = (
{
name = bottom;
pos = (134,0);
},
{
name = top;
pos = (134,710);
}
);
layerId = "6C190511-B94A-4F5A-B519-D6E9DB0E7B93";
shapes = (
{
closed = 1;
nodes = (
(92,0,l),
(176,0,l),
(176,710,l),
(92,710,l)
);
}
);
width = 268.4;
},
{
anchors = (
{
name = bottom;
pos = (159,0);
},
{
name = top;
pos = (159,710);
}
);
layerId = "3507EE3D-0D92-4546-A145-3A991F0A2B71";
shapes = (
{
closed = 1;
nodes = (
(62,0,l),
(256,0,l),
(256,710,l),
(62,710,l)
);
}
);
width = 318.39437;
}
);
metricLeft = H;
metricRight = H;
},
{
glyphname = lcaron.ss03;
lastChange = "2023-11-09 15:31:35 +0000";
layers = (
{
background = {
shapes = (
{
closed = 1;
nodes = (
(36,710,l),
(36,402,l),
(8,482,o),
(-68,539,o),
(-148,539,cs),
(-284,539,o),
(-369,433,o),
(-369,265,cs),
(-369,95,o),
(-284,-12,o),
(-148,-12,cs),
(-68,-12,o),
(5,43,o),
(41,130,c),
(44,0,l),
(66,0,l),
(66,710,l)
);
},
{
closed = 1;
nodes = (
(39,126,o),
(-43,17,o),
(-148,17,cs),
(-264,17,o),
(-337,113,o),
(-337,265,cs),
(-337,415,o),
(-264,509,o),
(-148,509,cs),
(-43,509,o),
(39,402,o),
(39,265,cs)
);
},
{
pos = (85,0);
ref = caroncomb.alt;
}
);
};
layerId = "EE2FFE84-06F1-4AFB-BBEC-60D09A436D14";
shapes = (
{
alignment = -1;
pos = (-11,0);
ref = l.ss03;
},
{
pos = (119,0);
ref = apostrophemod;
}
);
width = 274;
},
{
layerId = "6C190511-B94A-4F5A-B519-D6E9DB0E7B93";
shapes = (
{
alignment = -1;
pos = (-12,0);
ref = l.ss03;
},
{
alignment = -1;
pos = (164,0);
ref = apostrophemod;
}
);
width = 361;
},
{
layerId = "3507EE3D-0D92-4546-A145-3A991F0A2B71";
shapes = (
{
alignment = -1;
pos = (-6,0);
ref = l.ss03;
},
{
alignment = -1;
pos = (261,0);
ref = apostrophemod;
}
);
width = 521;
}
);
metricLeft = l;
metricRight = l;
},
{
glyphname = lslash.ss03;
lastChange = "2023-11-10 18:15:43 +0000";
layers = (
{
layerId = "EE2FFE84-06F1-4AFB-BBEC-60D09A436D14";
shapes = (
{
pos = (94,0);
ref = l.ss03;
},
{
closed = 1;
nodes = (
(98,323,l),
(324,427,l),
(311,454,l),
(85,350,l)
);
}
);
width = 364;
},
{
layerId = "6C190511-B94A-4F5A-B519-D6E9DB0E7B93";
shapes = (
{
alignment = -1;
pos = (75,0);
ref = l.ss03;
},
{
closed = 1;
nodes = (
(112,304,l),
(338,408,l),
(306,475,l),
(80,371,l)
);
}
);
width = 378;
},
{
layerId = "3507EE3D-0D92-4546-A145-3A991F0A2B71";
shapes = (
{
alignment = -1;
pos = (76,0);
ref = l.ss03;
},
{
closed = 1;
nodes = (
(83,302,l),
(416,403,l),
(389,488,l),
(56,387,l)
);
}
);
width = 445;
}
);
metricLeft = l;
metricRight = l;
},
{
color = 3;
glyphname = f_f.liga;
kernLeft = f;
kernRight = f;
lastChange = "2023-11-09 15:19:58 +0000";
layers = (
{
background = {
shapes = (
{
closed = 1;
nodes = (
(192,0,l),
(192,563,ls),
(192,607,o),
(216,634,o),
(250,634,c),
(332,634,l),
(332,710,l),
(250,710,l),
(151,710,o),
(106,652,o),
(106,563,c),
(106,0,l)
);
},
{
closed = 1;
nodes = (
(626,454,l),
(626,530,l),
(35,530,l),
(35,454,l)
);
},
{
closed = 1;
nodes = (
(493,0,l),
(493,563,ls),
(493,607,o),
(517,634,o),
(551,634,c),
(633,634,l),
(633,710,l),
(551,710,l),
(452,710,o),
(407,652,o),
(407,563,c),
(407,0,l)
);
}
);
};
layerId = "EE2FFE84-06F1-4AFB-BBEC-60D09A436D14";
shapes = (
{
alignment = -1;
ref = f;
},
{
alignment = -1;
pos = (253,0);
ref = f;
}
);
width = 617;
},
{
associatedMasterId = "EE2FFE84-06F1-4AFB-BBEC-60D09A436D14";
background = {
shapes = (
{
closed = 1;
nodes = (
(192,0,l),
(192,563,ls),
(192,607,o),
(216,634,o),
(250,634,c),
(332,634,l),
(332,710,l),
(250,710,l),
(151,710,o),
(106,652,o),
(106,563,c),
(106,0,l)
);
},
{
closed = 1;
nodes = (
(626,454,l),
(626,530,l),
(35,530,l),
(35,454,l)
);
},
{
closed = 1;
nodes = (
(493,0,l),
(493,563,ls),
(493,607,o),
(517,634,o),
(551,634,c),
(633,634,l),
(633,710,l),
(551,710,l),
(452,710,o),
(407,652,o),
(407,563,c),
(407,0,l)
);
}
);
};
layerId = "EE38647E-7B34-4FA6-BECE-037D5AC2CBEF";
name = "2 de jul. de 23 16:56";
shapes = (
{
ref = f;
},
{
closed = 1;
nodes = (
(406,0,l),
(406,603,ls),
(406,653,o),
(436,683,o),
(484,683,cs),
(549,683,l),
(549,710,l),
(488,710,ls),
(419,710,o),
(376,667,o),
(376,598,cs),
(376,0,l)
);
},
{
closed = 1;
nodes = (
(549,500,l),
(549,530,l),
(376,530,l),
(376,500,l)
);
}
);
width = 594;
},
{
layerId = "6C190511-B94A-4F5A-B519-D6E9DB0E7B93";
shapes = (
{
alignment = -1;
ref = f;
},
{
alignment = -1;
pos = (289,0);
ref = f;
}
);
width = 687;
},
{
layerId = "3507EE3D-0D92-4546-A145-3A991F0A2B71";
shapes = (
{
alignment = -1;
ref = f;
},
{
alignment = -1;
pos = (408,0);
ref = f;
}
);
width = 890;
}
);
metricLeft = f;
metricRight = f;
},
{
glyphname = "Be-cy";
kernLeft = H;
kernRight = B;
lastChange = "2023-11-11 19:46:58 +0000";
layers = (
{
layerId = "EE2FFE84-06F1-4AFB-BBEC-60D09A436D14";
shapes = (
{
closed = 1;
nodes = (
(333,0,l),
(480,0,o),
(573,79,o),
(573,205,cs),
(573,328,o),
(480,405,o),
(333,405,c),
(128,405,l),
(128,710,l),
(96,710,l),
(96,0,l)
);
},
{
closed = 1;
nodes = (
(333,375,ls),
(465,375,o),
(539,314,o),
(539,205,cs),
(539,93,o),
(465,30,o),
(333,30,c),
(128,30,l),
(128,375,l)
);
},
{
closed = 1;
nodes = (
(102,680,l),
(555,680,l),
(555,710,l),
(102,710,l)
);
}
);
width = 628;
},
{
layerId = "6C190511-B94A-4F5A-B519-D6E9DB0E7B93";
shapes = (
{
closed = 1;
nodes = (
(347,0,l),
(505,0,o),
(598,80,o),
(598,215,cs),
(598,352,o),
(505,434,o),
(347,434,c),
(178,434,l),
(178,710,l),
(92,710,l),
(92,0,l)
);
},
{
closed = 1;
nodes = (
(347,350,ls),
(454,350,o),
(508,304,o),
(508,215,cs),
(508,128,o),
(454,84,o),
(347,84,c),
(178,84,l),
(178,350,l)
);
},
{
closed = 1;
nodes = (
(92,626,l),
(565,626,l),
(565,710,l),
(92,710,l)
);
}
);
width = 659.9;
},
{
layerId = "3507EE3D-0D92-4546-A145-3A991F0A2B71";
shapes = (
{
closed = 1;
nodes = (
(366,0,l),
(544,0,o),
(653,89,o),
(653,232,cs),
(653,375,o),
(544,463,o),
(366,463,c),
(258,463,l),
(258,710,l),
(62,710,l),
(62,0,l)
);
},
{
closed = 1;
nodes = (
(351,306,ls),
(417,306,o),
(453,280,o),
(453,232,cs),
(453,183,o),
(417,157,o),
(351,157,cs),
(258,157,l),
(258,306,l)
);
},
{
closed = 1;
nodes = (
(99,553,l),
(622,553,l),
(622,710,l),
(99,710,l)
);
}
);
width = 695.88732;
}
);
metricLeft = H;
metricRight = B;
unicode = 1041;
},
{
glyphname = "Ge-cy";
kernLeft = H;
kernRight = T;
lastChange = "2023-11-11 19:46:58 +0000";
layers = (
{
anchors = (
{
name = top;
pos = (325,710);
}
);
background = {
shapes = (
{
ref = "Be-cy";
}
);
};
layerId = "EE2FFE84-06F1-4AFB-BBEC-60D09A436D14";
shapes = (
{
closed = 1;
nodes = (
(96,0,l),
(128,0,l),
(128,680,l),
(555,680,l),
(555,710,l),
(96,710,l)
);
}
);
width = 583;
},
{
anchors = (
{
name = top;
pos = (328,710);
}
);
layerId = "6C190511-B94A-4F5A-B519-D6E9DB0E7B93";
shapes = (
{
closed = 1;
nodes = (
(92,0,l),
(178,0,l),
(178,626,l),
(564,626,l),
(564,710,l),
(92,710,l)
);
}
);
width = 588.8;
},
{
anchors = (
{
name = top;
pos = (341,710);
}
);
layerId = "3507EE3D-0D92-4546-A145-3A991F0A2B71";
shapes = (
{
closed = 1;
nodes = (
(62,0,l),
(258,0,l),
(258,553,l),
(622,553,l),
(622,710,l),
(62,710,l)
);
}
);
width = 650;
}
);
metricLeft = H;
metricRight = T;
unicode = 1043;
},
{
glyphname = "Geupturn-cy";
kernLeft = H;
kernRight = T;
lastChange = "2023-11-11 19:46:58 +0000";
layers = (
{
layerId = "EE2FFE84-06F1-4AFB-BBEC-60D09A436D14";
shapes = (
{
closed = 1;
nodes = (
(96,0,l),
(128,0,l),
(128,680,l),
(458,680,l),
(458,710,l),
(96,710,l)
);
},
{
closed = 1;
nodes = (
(426,684,l),
(458,684,l),
(458,865,l),
(426,865,l)
);
}
);
width = 486;
},
{
layerId = "6C190511-B94A-4F5A-B519-D6E9DB0E7B93";
shapes = (
{
closed = 1;
nodes = (
(92,0,l),
(178,0,l),
(178,626,l),
(493,626,l),
(493,710,l),
(92,710,l)
);
},
{
closed = 1;
nodes = (
(407,626,l),
(493,626,l),
(493,865,l),
(407,865,l)
);
}
);
width = 517.9;
},
{
layerId = "3507EE3D-0D92-4546-A145-3A991F0A2B71";
shapes = (
{
closed = 1;
nodes = (
(62,0,l),
(258,0,l),
(258,553,l),
(602,553,l),
(602,710,l),
(62,710,l)
);
},
{
closed = 1;
nodes = (
(406,553,l),
(602,553,l),
(602,865,l),
(406,865,l)
);
}
);
width = 630;
}
);
metricLeft = H;
metricRight = T;
unicode = 1168;
},
{
color = 8;
glyphname = "Gestroke-cy";
kernLeft = H;
kernRight = T;
lastChange = "2023-11-11 19:46:58 +0000";
layers = (
{
layerId = "EE2FFE84-06F1-4AFB-BBEC-60D09A436D14";
shapes = (
{
pos = (47,0);
ref = "Ge-cy";
},
{
closed = 1;
nodes = (
(76,313,l),
(452,313,l),
(452,343,l),
(76,343,l)
);
}
);
width = 630;
},
{
layerId = "6C190511-B94A-4F5A-B519-D6E9DB0E7B93";
shapes = (
{
pos = (53,0);
ref = "Ge-cy";
},
{
closed = 1;
nodes = (
(72,286,l),
(478,286,l),
(478,370,l),
(72,370,l)
);
}
);
width = 642;
},
{
layerId = "3507EE3D-0D92-4546-A145-3A991F0A2B71";
shapes = (
{
pos = (53,0);
ref = "Ge-cy";
},
{
closed = 1;
nodes = (
(42,250,l),
(508,250,l),
(508,407,l),
(42,407,l)
);
}
);
width = 703;
}
);
metricLeft = "=H-20";
metricRight = T;
unicode = 1170;
},
{
glyphname = "De-cy";
kernLeft = A;
kernRight = A;
lastChange = "2023-11-11 19:46:58 +0000";
layers = (
{
background = {
shapes = (
{
closed = 1;
nodes = (
(218,710,l),
(166,217,ls),
(156,126,o),
(131,86,o),
(81,86,cs),
(40,86,l),
(40,30,l),
(81,30,ls),
(188,30,o),
(240,84,o),
(253,207,cs),
(298,624,l),
(569,624,l),
(569,0,l),
(657,0,l),
(657,710,l)
);
},
{
closed = 1;
nodes = (
(41,0,l),
(745,0,l),
(745,86,l),
(41,86,l)
);
},
{
closed = 1;
nodes = (
(657,-150,l),
(745,-150,l),
(745,86,l),
(657,86,l)
);
},
{
closed = 1;
nodes = (
(40,-150,l),
(128,-150,l),
(128,86,l),
(40,86,l)
);
}
);
};
layerId = "EE2FFE84-06F1-4AFB-BBEC-60D09A436D14";
shapes = (
{
closed = 1;
nodes = (
(241,710,l),
(189,191,ls),
(179,88,o),
(140,30,o),
(81,30,cs),
(60,30,l),
(60,-150,l),
(92,-150,l),
(92,0,l),
(693,0,l),
(693,-150,l),
(725,-150,l),
(725,30,l),
(637,30,l),
(637,710,l)
);
},
{
closed = 1;
nodes = (
(186,55,o),
(212,114,o),
(219,181,cs),
(269,680,l),
(605,680,l),
(605,30,l),
(153,30,l)
);
}
);
width = 785;
},
{
associatedMasterId = "EE2FFE84-06F1-4AFB-BBEC-60D09A436D14";
background = {
shapes = (
{
closed = 1;
nodes = (
(228,710,l),
(176,217,ls),
(166,126,o),
(141,86,o),
(91,86,cs),
(50,86,l),
(50,30,l),
(91,30,ls),
(198,30,o),
(250,84,o),
(263,207,cs),
(308,624,l),
(579,624,l),
(579,0,l),
(667,0,l),
(667,710,l)
);
},
{
closed = 1;
nodes = (
(51,0,l),
(755,0,l),
(755,86,l),
(51,86,l)
);
},
{
closed = 1;
nodes = (
(667,-150,l),
(755,-150,l),
(755,86,l),
(667,86,l)
);
},
{
closed = 1;
nodes = (
(50,-150,l),
(138,-150,l),
(138,86,l),
(50,86,l)
);
}
);
};
layerId = "C2C1386F-9A22-4D25-8481-8DE8C90E9B3C";
name = "3 Nov 23 21:12";
shapes = (
{
closed = 1;
nodes = (
(228,710,l),
(176,217,ls),
(166,126,o),
(141,86,o),
(91,86,cs),
(50,86,l),
(50,30,l),
(91,30,ls),
(198,30,o),
(250,84,o),
(263,207,cs),
(308,624,l),
(579,624,l),
(579,0,l),
(667,0,l),
(667,710,l)
);
},
{
closed = 1;
nodes = (
(51,0,l),
(755,0,l),
(755,86,l),
(51,86,l)
);
},
{
closed = 1;
nodes = (
(667,-150,l),
(755,-150,l),
(755,86,l),
(667,86,l)
);
},
{
closed = 1;
nodes = (
(50,-150,l),
(138,-150,l),
(138,86,l),
(50,86,l)
);
}
);
width = 805;
},
{
layerId = "6C190511-B94A-4F5A-B519-D6E9DB0E7B93";
shapes = (
{
closed = 1;
nodes = (
(228,710,l),
(176,216,ls),
(166,125,o),
(141,84,o),
(91,84,cs),
(50,84,l),
(50,-150,l),
(136,-150,l),
(136,0,l),
(668,0,l),
(668,-150,l),
(754,-150,l),
(754,84,l),
(666,84,l),
(666,710,l)
);
},
{
closed = 1;
nodes = (
(243,113,o),
(256,153,o),
(262,206,cs),
(307,626,l),
(580,626,l),
(580,84,l),
(222,84,l)
);
}
);
width = 804.33333;
},
{
layerId = "3507EE3D-0D92-4546-A145-3A991F0A2B71";
shapes = (
{
closed = 1;
nodes = (
(228,710,l),
(176,289,ls),
(165,205,o),
(128,157,o),
(74,157,cs),
(50,157,l),
(50,-150,l),
(247,-150,l),
(247,0,l),
(644,0,l),
(644,-150,l),
(841,-150,l),
(841,157,l),
(753,157,l),
(753,710,l)
);
},
{
closed = 1;
nodes = (
(356,186,o),
(368,226,o),
(375,279,cs),
(408,553,l),
(556,553,l),
(556,157,l),
(335,157,l)
);
}
);
width = 891.00939;
}
);
unicode = 1044;
},
{
glyphname = "Zhe-cy";
kernLeft = X;
kernRight = X;
lastChange = "2023-11-11 19:46:58 +0000";
layers = (
{
background = {
shapes = (
{
closed = 1;
nodes = (
(420,0,l),
(508,0,l),
(508,710,l),
(420,710,l)
);
},
{
closed = 1;
nodes = (
(501,355,l),
(620,355,l),
(904,710,l),
(785,710,l)
);
},
{
closed = 1;
nodes = (
(914,0,l),
(620,355,l),
(501,355,l),
(795,0,l)
);
},
{
closed = 1;
nodes = (
(24,710,l),
(308,355,l),
(427,355,l),
(143,710,l)
);
},
{
closed = 1;
nodes = (
(427,355,l),
(308,355,l),
(14,0,l),
(133,0,l)
);
}
);
};
layerId = "EE2FFE84-06F1-4AFB-BBEC-60D09A436D14";
shapes = (
{
closed = 1;
nodes = (
(420,0,l),
(452,0,l),
(452,710,l),
(420,710,l)
);
},
{
closed = 1;
nodes = (
(445,355,l),
(487,355,l),
(833,710,l),
(789,710,l)
);
},
{
closed = 1;
nodes = (
(843,0,l),
(487,355,l),
(445,355,l),
(799,0,l)
);
},
{
closed = 1;
nodes = (
(40,710,l),
(386,355,l),
(427,355,l),
(83,710,l)
);
},
{
closed = 1;
nodes = (
(427,355,l),
(386,355,l),
(30,0,l),
(73,0,l)
);
}
);
width = 873;
},
{
layerId = "6C190511-B94A-4F5A-B519-D6E9DB0E7B93";
shapes = (
{
closed = 1;
nodes = (
(433,0,l),
(519,0,l),
(519,710,l),
(433,710,l)
);
},
{
closed = 1;
nodes = (
(512,355,l),
(628,355,l),
(914,710,l),
(798,710,l)
);
},
{
closed = 1;
nodes = (
(924,0,l),
(628,355,l),
(512,355,l),
(808,0,l)
);
},
{
closed = 1;
nodes = (
(37,710,l),
(323,355,l),
(440,355,l),
(154,710,l)
);
},
{
closed = 1;
nodes = (
(440,355,l),
(323,355,l),
(27,0,l),
(144,0,l)
);
}
);
width = 951.3;
},
{
layerId = "3507EE3D-0D92-4546-A145-3A991F0A2B71";
shapes = (
{
closed = 1;
nodes = (
(468,0,l),
(665,0,l),
(665,710,l),
(468,710,l)
);
},
{
closed = 1;
nodes = (
(621,355,l),
(859,355,l),
(1094,710,l),
(855,710,l)
);
},
{
closed = 1;
nodes = (
(1104,0,l),
(859,355,l),
(621,355,l),
(865,0,l)
);
},
{
closed = 1;
nodes = (
(39,710,l),
(273,355,l),
(512,355,l),
(278,710,l)
);
},
{
closed = 1;
nodes = (
(512,355,l),
(273,355,l),
(29,0,l),
(268,0,l)
);
}
);
width = 1132.8169;
}
);
metricLeft = X;
metricRight = X;
unicode = 1046;
},
{
glyphname = "Ze-cy";
kernLeft = three;
kernRight = B;
lastChange = "2023-11-11 20:12:09 +0000";
layers = (
{
background = {
shapes = (
{
closed = 1;
nodes = (
(266,334,l),
(340,335,ls),
(423,336,o),
(511,297,o),
(511,202,cs),
(511,121,o),
(440,70,o),
(326,70,cs),
(219,70,o),
(147,116,o),
(140,189,c),
(49,183,l),
(55,66,o),
(169,-16,o),
(326,-16,cs),
(488,-16,o),
(602,71,o),
(602,195,cs),
(602,297,o),
(534,370,o),
(412,392,c),
(411,375,l),
(521,395,o),
(578,451,o),
(578,541,cs),
(578,650,o),
(474,726,o),
(326,726,cs),
(191,726,o),
(87,655,o),
(74,555,c),
(166,549,l),
(175,605,o),
(236,640,o),
(326,640,cs),
(424,640,o),
(486,602,o),
(486,541,cs),
(486,449,o),
(406,419,o),
(340,420,cs),
(266,421,l)
);
}
);
};
layerId = "EE2FFE84-06F1-4AFB-BBEC-60D09A436D14";
shapes = (
{
closed = 1;
nodes = (
(261,367,l),
(327,368,l),
(455,368,o),
(545,298,o),
(545,199,cs),
(545,88,o),
(455,16,o),
(317,16,cs),
(188,16,o),
(101,78,o),
(91,177,c),
(60,174,l),
(70,57,o),
(169,-16,o),
(317,-16,cs),
(475,-16,o),
(579,71,o),
(579,195,cs),
(579,296,o),
(497,378,o),
(371,395,c),
(371,372,l),
(483,386,o),
(555,457,o),
(555,541,cs),
(555,650,o),
(464,726,o),
(320,726,cs),
(198,726,o),
(109,664,o),
(90,564,c),
(124,561,l),
(140,643,o),
(215,694,o),
(320,694,cs),
(444,694,o),
(521,631,o),
(521,541,cs),
(521,456,o),
(441,397,o),
(327,397,c),
(261,398,l)
);
}
);
width = 639;
},
{
layerId = "6C190511-B94A-4F5A-B519-D6E9DB0E7B93";
shapes = (
{
closed = 1;
nodes = (
(267,335,l),
(341,336,l),
(425,337,o),
(513,297,o),
(513,202,cs),
(513,120,o),
(441,68,o),
(327,68,cs),
(219,68,o),
(146,115,o),
(139,189,c),
(50,183,l),
(56,66,o),
(170,-16,o),
(327,-16,cs),
(489,-16,o),
(602,71,o),
(602,195,cs),
(602,297,o),
(534,370,o),
(412,392,c),
(411,375,l),
(521,395,o),
(578,451,o),
(578,541,cs),
(578,650,o),
(475,726,o),
(327,726,cs),
(192,726,o),
(89,655,o),
(76,555,c),
(166,549,l),
(175,606,o),
(236,642,o),
(327,642,cs),
(426,642,o),
(488,603,o),
(488,541,cs),
(488,449,o),
(408,418,o),
(341,419,c),
(267,420,l)
);
}
);
width = 652.53333;
},
{
layerId = "3507EE3D-0D92-4546-A145-3A991F0A2B71";
shapes = (
{
closed = 1;
nodes = (
(292,314,l),
(363,315,ls),
(420,316,o),
(468,286,o),
(468,230,cs),
(468,177,o),
(427,141,o),
(357,141,cs),
(292,141,o),
(247,176,o),
(242,231,c),
(43,225,l),
(50,78,o),
(173,-16,o),
(355,-16,cs),
(546,-16,o),
(670,67,o),
(670,195,cs),
(670,296,o),
(602,364,o),
(480,384,c),
(480,384,l),
(586,403,o),
(646,458,o),
(646,541,cs),
(646,654,o),
(532,726,o),
(355,726,cs),
(185,726,o),
(67,645,o),
(53,519,c),
(249,510,l),
(253,546,o),
(291,569,o),
(350,569,cs),
(409,569,o),
(445,546,o),
(445,506,cs),
(445,457,o),
(408,432,o),
(363,433,cs),
(292,434,l)
);
}
);
width = 712.48826;
}
);
unicode = 1047;
},
{
glyphname = "Ka-cy";
kernLeft = H;
kernRight = X;
lastChange = "2023-11-11 19:46:58 +0000";
layers = (
{
anchors = (
{
name = top;
pos = (301,710);
}
);
background = {
anchors = (
{
name = bottom;
pos = (326,0);
},
{
name = top;
pos = (316,710);
}
);
shapes = (
{
closed = 1;
nodes = (
(95,0,l),
(127,0,l),
(127,233,l),
(264,380,l),
(557,0,l),
(594,0,l),
(283,401,l),
(572,710,l),
(533,710,l),
(127,275,l),
(127,710,l),
(95,710,l)
);
}
);
};
layerId = "EE2FFE84-06F1-4AFB-BBEC-60D09A436D14";
shapes = (
{
closed = 1;
nodes = (
(96,0,l),
(128,0,l),
(128,710,l),
(96,710,l)
);
},
{
closed = 1;
nodes = (
(121,355,l),
(161,355,l),
(514,710,l),
(475,710,l)
);
},
{
closed = 1;
nodes = (
(525,0,l),
(161,355,l),
(121,355,l),
(485,0,l)
);
}
);
width = 555;
},
{
anchors = (
{
name = top;
pos = (336,710);
}
);
layerId = "6C190511-B94A-4F5A-B519-D6E9DB0E7B93";
shapes = (
{
closed = 1;
nodes = (
(92,0,l),
(178,0,l),
(178,710,l),
(92,710,l)
);
},
{
closed = 1;
nodes = (
(171,355,l),
(288,355,l),
(613,710,l),
(496,710,l)
);
},
{
closed = 1;
nodes = (
(623,0,l),
(288,355,l),
(171,355,l),
(506,0,l)
);
}
);
width = 649.73333;
},
{
anchors = (
{
name = top;
pos = (368,710);
}
);
layerId = "3507EE3D-0D92-4546-A145-3A991F0A2B71";
shapes = (
{
closed = 1;
nodes = (
(62,0,l),
(258,0,l),
(258,710,l),
(62,710,l)
);
},
{
closed = 1;
nodes = (
(251,355,l),
(462,355,l),
(699,710,l),
(487,710,l)
);
},
{
closed = 1;
nodes = (
(709,0,l),
(462,355,l),
(251,355,l),
(495,0,l)
);
}
);
width = 738.277;
}
);
metricLeft = H;
metricRight = X;
unicode = 1050;
},
{
glyphname = "El-cy";
kernRight = H;
lastChange = "2023-11-11 20:48:06 +0000";
layers = (
{
layerId = "EE2FFE84-06F1-4AFB-BBEC-60D09A436D14";
shapes = (
{
closed = 1;
nodes = (
(234,710,l),
(187,149,ls),
(180,69,o),
(151,30,o),
(100,30,cs),
(71,30,l),
(71,0,l),
(101,0,ls),
(171,0,o),
(210,49,o),
(219,147,cs),
(264,680,l),
(606,680,l),
(606,0,l),
(638,0,l),
(638,710,l)
);
}
);
width = 734;
},
{
layerId = "6C190511-B94A-4F5A-B519-D6E9DB0E7B93";
shapes = (
{
closed = 1;
nodes = (
(230,710,l),
(184,157,ls),
(180,113,o),
(161,84,o),
(125,84,cs),
(67,84,l),
(67,0,l),
(138,0,ls),
(226,0,o),
(264,58,o),
(271,147,cs),
(311,626,l),
(587,626,l),
(587,0,l),
(673,0,l),
(673,710,l)
);
}
);
width = 764.93333;
},
{
layerId = "3507EE3D-0D92-4546-A145-3A991F0A2B71";
shapes = (
{
closed = 1;
nodes = (
(206,710,l),
(160,229,ls),
(155,183,o),
(134,157,o),
(94,157,cs),
(37,157,l),
(37,0,l),
(160,0,ls),
(268,0,o),
(335,74,o),
(347,190,cs),
(383,553,l),
(535,553,l),
(535,0,l),
(730,0,l),
(730,710,l)
);
}
);
width = 791.55869;
}
);
metricLeft = J;
metricRight = H;
unicode = 1051;
},
{
glyphname = "Pe-cy";
kernLeft = H;
kernRight = H;
lastChange = "2023-11-11 19:46:58 +0000";
layers = (
{
layerId = "EE2FFE84-06F1-4AFB-BBEC-60D09A436D14";
shapes = (
{
closed = 1;
nodes = (
(96,710,l),
(96,0,l),
(128,0,l),
(128,680,l),
(548,680,l),
(548,0,l),
(580,0,l),
(580,710,l)
);
}
);
width = 676;
},
{
layerId = "6C190511-B94A-4F5A-B519-D6E9DB0E7B93";
shapes = (
{
closed = 1;
nodes = (
(92,710,l),
(92,0,l),
(178,0,l),
(178,626,l),
(525,626,l),
(525,0,l),
(611,0,l),
(611,710,l)
);
}
);
width = 703.06667;
},
{
layerId = "3507EE3D-0D92-4546-A145-3A991F0A2B71";
shapes = (
{
closed = 1;
nodes = (
(62,710,l),
(62,0,l),
(258,0,l),
(258,553,l),
(468,553,l),
(468,0,l),
(665,0,l),
(665,710,l)
);
}
);
width = 726.723;
}
);
metricLeft = H;
metricRight = H;
unicode = 1055;
},
{
glyphname = "U-cy";
kernLeft = "U-cy";
kernRight = V;
lastChange = "2023-11-11 19:46:58 +0000";
layers = (
{
anchors = (
{
name = top;
pos = (258,710);
}
);
layerId = "EE2FFE84-06F1-4AFB-BBEC-60D09A436D14";
shapes = (
{
closed = 1;
nodes = (
(233,190,l),
(250,190,l),
(221,111,ls),
(199,52,o),
(172,30,o),
(123,30,cs),
(84,30,l),
(84,0,l),
(123,0,ls),
(182,0,o),
(222,28,o),
(245,91,cs),
(477,710,l),
(443,710,l),
(258,211,l),
(58,710,l),
(24,710,l)
);
}
);
width = 501;
},
{
anchors = (
{
name = top;
pos = (271,710);
}
);
layerId = "6C190511-B94A-4F5A-B519-D6E9DB0E7B93";
shapes = (
{
closed = 1;
nodes = (
(215,190,l),
(244,190,l),
(217,121,ls),
(208,96,o),
(191,84,o),
(166,84,cs),
(85,84,l),
(85,0,l),
(177,0,ls),
(237,0,o),
(275,26,o),
(295,83,cs),
(521,710,l),
(428,710,l),
(273,270,l),
(114,710,l),
(21,710,l)
);
}
);
width = 541.6;
},
{
anchors = (
{
name = top;
pos = (341,710);
}
);
layerId = "3507EE3D-0D92-4546-A145-3A991F0A2B71";
shapes = (
{
closed = 1;
nodes = (
(217,219,l),
(287,219,l),
(275,184,ls),
(268,160,o),
(248,150,o),
(209,150,cs),
(129,150,l),
(129,0,l),
(269,0,ls),
(357,0,o),
(409,34,o),
(436,110,cs),
(651,710,l),
(452,710,l),
(341,381,l),
(227,710,l),
(27,710,l)
);
}
);
width = 679;
}
);
metricLeft = V;
metricRight = V;
unicode = 1059;
},
{
glyphname = "Ef-cy";
kernLeft = O;
kernRight = O;
lastChange = "2023-11-11 19:46:58 +0000";
layers = (
{
layerId = "EE2FFE84-06F1-4AFB-BBEC-60D09A436D14";
shapes = (
{
closed = 1;
nodes = (
(50,182,o),
(185,73,o),
(400,73,cs),
(616,73,o),
(752,182,o),
(752,355,cs),
(752,528,o),
(616,637,o),
(400,637,cs),
(185,637,o),
(50,528,o),
(50,355,cs)
);
},
{
closed = 1;
nodes = (
(84,510,o),
(206,607,o),
(400,607,cs),
(595,607,o),
(718,510,o),
(718,355,cs),
(718,200,o),
(595,103,o),
(400,103,cs),
(206,103,o),
(84,200,o),
(84,355,cs)
);
},
{
closed = 1;
nodes = (
(385,0,l),
(417,0,l),
(417,710,l),
(385,710,l)
);
}
);
width = 802;
},
{
layerId = "6C190511-B94A-4F5A-B519-D6E9DB0E7B93";
shapes = (
{
closed = 1;
nodes = (
(49,189,o),
(201,73,o),
(418,73,cs),
(636,73,o),
(790,189,o),
(790,355,cs),
(790,521,o),
(636,637,o),
(418,637,cs),
(201,637,o),
(49,521,o),
(49,355,cs)
);
},
{
closed = 1;
nodes = (
(139,476,o),
(247,553,o),
(418,553,cs),
(591,553,o),
(700,476,o),
(700,355,cs),
(700,234,o),
(591,157,o),
(418,157,cs),
(247,157,o),
(139,234,o),
(139,355,cs)
);
},
{
closed = 1;
nodes = (
(377,0,l),
(461,0,l),
(461,710,l),
(377,710,l)
);
}
);
width = 838.73333;
},
{
layerId = "3507EE3D-0D92-4546-A145-3A991F0A2B71";
shapes = (
{
closed = 1;
nodes = (
(35,184,o),
(195,73,o),
(441,73,cs),
(688,73,o),
(849,184,o),
(849,355,cs),
(849,526,o),
(688,637,o),
(441,637,cs),
(195,637,o),
(35,526,o),
(35,355,cs)
);
},
{
closed = 1;
nodes = (
(236,431,o),
(315,480,o),
(441,480,cs),
(568,480,o),
(648,431,o),
(648,355,cs),
(648,279,o),
(568,230,o),
(441,230,cs),
(315,230,o),
(236,279,o),
(236,355,cs)
);
},
{
closed = 1;
nodes = (
(351,0,l),
(533,0,l),
(533,710,l),
(351,710,l)
);
}
);
width = 884.1784;
}
);
metricLeft = O;
metricRight = O;
unicode = 1060;
},
{
glyphname = "Che-cy";
kernRight = H;
lastChange = "2023-11-11 19:46:58 +0000";
layers = (
{
background = {
shapes = (
{
closed = 1;
nodes = (
(529,710,l),
(441,710,l),
(441,469,ls),
(441,384,o),
(360,324,o),
(244,324,cs),
(155,324,o),
(105,380,o),
(105,469,cs),
(105,710,l),
(17,710,l),
(17,469,ls),
(17,327,o),
(101,238,o),
(244,238,cs),
(363,238,o),
(456,308,o),
(456,396,c),
(441,366,l),
(441,0,l),
(529,0,l)
);
}
);
};
layerId = "EE2FFE84-06F1-4AFB-BBEC-60D09A436D14";
shapes = (
{
closed = 1;
nodes = (
(500,710,l),
(468,710,l),
(468,463,ls),
(468,349,o),
(380,269,o),
(254,269,cs),
(144,269,o),
(82,333,o),
(82,449,cs),
(82,710,l),
(50,710,l),
(50,449,ls),
(50,314,o),
(123,238,o),
(254,238,cs),
(370,238,o),
(466,307,o),
(472,395,c),
(468,395,l),
(468,0,l),
(500,0,l)
);
}
);
width = 596;
},
{
layerId = "6C190511-B94A-4F5A-B519-D6E9DB0E7B93";
shapes = (
{
closed = 1;
nodes = (
(560,710,l),
(474,710,l),
(474,469,ls),
(474,383,o),
(393,322,o),
(276,322,cs),
(177,322,o),
(126,378,o),
(126,468,cs),
(126,710,l),
(40,710,l),
(40,468,ls),
(40,327,o),
(124,238,o),
(276,238,cs),
(395,238,o),
(488,308,o),
(488,396,c),
(474,367,l),
(474,0,l),
(560,0,l)
);
}
);
width = 652.06667;
},
{
layerId = "3507EE3D-0D92-4546-A145-3A991F0A2B71";
shapes = (
{
closed = 1;
nodes = (
(623,710,l),
(427,710,l),
(427,508,ls),
(427,432,o),
(388,390,o),
(321,390,cs),
(260,390,o),
(229,430,o),
(229,508,cs),
(229,710,l),
(33,710,l),
(33,447,ls),
(33,319,o),
(117,238,o),
(255,238,cs),
(372,238,o),
(459,312,o),
(464,423,c),
(427,378,l),
(427,0,l),
(623,0,l)
);
}
);
width = 685.06103;
}
);
metricRight = H;
unicode = 1063;
},
{
glyphname = "Tse-cy";
kernLeft = H;
lastChange = "2023-11-11 19:46:58 +0000";
layers = (
{
layerId = "EE2FFE84-06F1-4AFB-BBEC-60D09A436D14";
shapes = (
{
pos = (0,710);
ref = "Pe-cy";
scale = (1,-1);
},
{
closed = 1;
nodes = (
(600,-150,l),
(632,-150,l),
(632,30,l),
(600,30,l)
);
},
{
closed = 1;
nodes = (
(454,0,l),
(608,0,l),
(608,30,l),
(454,30,l)
);
}
);
width = 708;
},
{
layerId = "6C190511-B94A-4F5A-B519-D6E9DB0E7B93";
shapes = (
{
alignment = -1;
pos = (0,710);
ref = "Pe-cy";
scale = (1,-1);
},
{
closed = 1;
nodes = (
(612,-150,l),
(698,-150,l),
(698,84,l),
(612,84,l)
);
},
{
closed = 1;
nodes = (
(454,0,l),
(624,0,l),
(624,84,l),
(454,84,l)
);
}
);
width = 769.86667;
},
{
layerId = "3507EE3D-0D92-4546-A145-3A991F0A2B71";
shapes = (
{
alignment = -1;
pos = (0,710);
ref = "Pe-cy";
scale = (1,-1);
},
{
closed = 1;
nodes = (
(598,-150,l),
(795,-150,l),
(795,157,l),
(598,157,l)
);
},
{
closed = 1;
nodes = (
(454,0,l),
(625,0,l),
(625,157,l),
(454,157,l)
);
}
);
width = 836.76526;
}
);
metricLeft = H;
metricRight = "=H-20";
unicode = 1062;
},
{
glyphname = "Sha-cy";
kernLeft = H;
kernRight = H;
lastChange = "2023-11-11 19:46:58 +0000";
layers = (
{
layerId = "EE2FFE84-06F1-4AFB-BBEC-60D09A436D14";
shapes = (
{
closed = 1;
nodes = (
(128,0,l),
(128,710,l),
(96,710,l),
(96,0,l)
);
},
{
closed = 1;
nodes = (
(791,0,l),
(791,710,l),
(759,710,l),
(759,0,l)
);
},
{
closed = 1;
nodes = (
(460,0,l),
(460,710,l),
(428,710,l),
(428,0,l)
);
},
{
closed = 1;
nodes = (
(791,0,l),
(791,30,l),
(96,30,l),
(96,0,l)
);
}
);
width = 887;
},
{
layerId = "6C190511-B94A-4F5A-B519-D6E9DB0E7B93";
shapes = (
{
closed = 1;
nodes = (
(178,0,l),
(178,710,l),
(92,710,l),
(92,0,l)
);
},
{
closed = 1;
nodes = (
(826,0,l),
(826,710,l),
(740,710,l),
(740,0,l)
);
},
{
closed = 1;
nodes = (
(503,0,l),
(503,710,l),
(416,710,l),
(416,0,l)
);
},
{
closed = 1;
nodes = (
(826,0,l),
(826,84,l),
(92,84,l),
(92,0,l)
);
}
);
width = 917.93333;
},
{
layerId = "3507EE3D-0D92-4546-A145-3A991F0A2B71";
shapes = (
{
closed = 1;
nodes = (
(258,0,l),
(258,710,l),
(62,710,l),
(62,0,l)
);
},
{
closed = 1;
nodes = (
(940,0,l),
(940,710,l),
(744,710,l),
(744,0,l)
);
},
{
closed = 1;
nodes = (
(600,0,l),
(600,710,l),
(403,710,l),
(403,0,l)
);
},
{
closed = 1;
nodes = (
(868,0,l),
(868,157,l),
(134,157,l),
(134,0,l)
);
}
);
width = 1002.02347;
}
);
metricLeft = H;
metricRight = H;
unicode = 1064;
},
{
glyphname = "Shcha-cy";
kernLeft = H;
lastChange = "2023-11-11 19:46:58 +0000";
layers = (
{
layerId = "EE2FFE84-06F1-4AFB-BBEC-60D09A436D14";
shapes = (
{
ref = "Sha-cy";
},
{
closed = 1;
nodes = (
(817,-150,l),
(847,-150,l),
(847,30,l),
(817,30,l)
);
},
{
closed = 1;
nodes = (
(744,0,l),
(847,0,l),
(847,30,l),
(744,30,l)
);
}
);
width = 923;
},
{
layerId = "6C190511-B94A-4F5A-B519-D6E9DB0E7B93";
shapes = (
{
alignment = -1;
ref = "Sha-cy";
},
{
closed = 1;
nodes = (
(827,-150,l),
(913,-150,l),
(913,84,l),
(827,84,l)
);
},
{
closed = 1;
nodes = (
(744,0,l),
(913,0,l),
(913,84,l),
(744,84,l)
);
}
);
width = 984.86667;
},
{
layerId = "3507EE3D-0D92-4546-A145-3A991F0A2B71";
shapes = (
{
alignment = -1;
ref = "Sha-cy";
},
{
closed = 1;
nodes = (
(870,-150,l),
(1067,-150,l),
(1067,157,l),
(870,157,l)
);
},
{
closed = 1;
nodes = (
(787,0,l),
(958,0,l),
(958,157,l),
(787,157,l)
);
}
);
width = 1108.51174;
}
);
metricLeft = H;
metricRight = "=H-20";
unicode = 1065;
},
{
color = 8;
glyphname = "Dzhe-cy";
lastChange = "2023-11-11 19:46:58 +0000";
layers = (
{
layerId = "EE2FFE84-06F1-4AFB-BBEC-60D09A436D14";
shapes = (
{
pos = (0,710);
ref = "Pe-cy";
scale = (1,-1);
},
{
closed = 1;
nodes = (
(322,-150,l),
(354,-150,l),
(354,15,l),
(322,15,l)
);
}
);
width = 676;
},
{
layerId = "6C190511-B94A-4F5A-B519-D6E9DB0E7B93";
shapes = (
{
pos = (0,710);
ref = "Pe-cy";
scale = (1,-1);
},
{
closed = 1;
nodes = (
(309,-150,l),
(395,-150,l),
(395,32,l),
(309,32,l)
);
}
);
width = 703;
},
{
layerId = "3507EE3D-0D92-4546-A145-3A991F0A2B71";
shapes = (
{
pos = (0,710);
ref = "Pe-cy";
scale = (1,-1);
},
{
closed = 1;
nodes = (
(265,-150,l),
(461,-150,l),
(461,32,l),
(265,32,l)
);
}
);
width = 727;
}
);
unicode = 1039;
},
{
glyphname = "Yeru-cy";
kernLeft = H;
kernRight = H;
lastChange = "2023-11-11 20:05:49 +0000";
layers = (
{
layerId = "EE2FFE84-06F1-4AFB-BBEC-60D09A436D14";
shapes = (
{
pos = (0,710);
ref = P;
scale = (1,-1);
},
{
closed = 1;
nodes = (
(648,0,l),
(678,0,l),
(678,710,l),
(648,710,l)
);
}
);
width = 774;
},
{
layerId = "6C190511-B94A-4F5A-B519-D6E9DB0E7B93";
shapes = (
{
alignment = -1;
pos = (0,710);
ref = P;
scale = (1,-1);
},
{
closed = 1;
nodes = (
(677,0,l),
(763,0,l),
(763,710,l),
(677,710,l)
);
}
);
width = 855;
},
{
layerId = "3507EE3D-0D92-4546-A145-3A991F0A2B71";
shapes = (
{
alignment = -1;
pos = (0,710);
ref = P;
scale = (1,-1);
},
{
closed = 1;
nodes = (
(718,0,l),
(913,0,l),
(913,710,l),
(718,710,l)
);
}
);
width = 975.16432;
}
);
metricLeft = H;
metricRight = H;
unicode = 1067;
},
{
glyphname = "Hardsign-cy";
kernRight = B;
lastChange = "2023-11-11 19:46:58 +0000";
layers = (
{
layerId = "EE2FFE84-06F1-4AFB-BBEC-60D09A436D14";
shapes = (
{
pos = (93,710);
ref = P;
scale = (1,-1);
},
{
closed = 1;
nodes = (
(76,680,l),
(205,680,l),
(205,710,l),
(76,710,l)
);
}
);
width = 711;
},
{
layerId = "6C190511-B94A-4F5A-B519-D6E9DB0E7B93";
shapes = (
{
alignment = -1;
pos = (89,710);
ref = P;
scale = (1,-1);
},
{
closed = 1;
nodes = (
(72,626,l),
(267,626,l),
(267,710,l),
(72,710,l)
);
}
);
width = 739.03333;
},
{
layerId = "3507EE3D-0D92-4546-A145-3A991F0A2B71";
shapes = (
{
alignment = -1;
pos = (80,710);
ref = P;
scale = (1,-1);
},
{
closed = 1;
nodes = (
(42,553,l),
(260,553,l),
(260,710,l),
(42,710,l)
);
}
);
width = 766.30516;
}
);
metricLeft = "=H-20";
metricRight = P;
unicode = 1066;
},
{
color = 8;
glyphname = "Nje-cy";
kernLeft = H;
kernRight = B;
lastChange = "2023-11-11 19:46:58 +0000";
layers = (
{
background = {
shapes = (
{
ref = H;
}
);
};
layerId = "EE2FFE84-06F1-4AFB-BBEC-60D09A436D14";
shapes = (
{
alignment = -1;
pos = (452,0);
ref = "Softsign-cy";
},
{
closed = 1;
nodes = (
(120,375,l),
(559,375,l),
(559,405,l),
(120,405,l)
);
},
{
closed = 1;
nodes = (
(96,0,l),
(128,0,l),
(128,710,l),
(96,710,l)
);
}
);
width = 1080;
},
{
background = {
shapes = (
{
alignment = -1;
ref = H;
}
);
};
layerId = "6C190511-B94A-4F5A-B519-D6E9DB0E7B93";
shapes = (
{
alignment = -1;
pos = (433,0);
ref = "Softsign-cy";
},
{
closed = 1;
nodes = (
(170,350,l),
(585,350,l),
(585,434,l),
(170,434,l)
);
},
{
closed = 1;
nodes = (
(92,0,l),
(178,0,l),
(178,710,l),
(92,710,l)
);
}
);
width = 1093;
},
{
background = {
shapes = (
{
ref = H;
}
);
};
layerId = "3507EE3D-0D92-4546-A145-3A991F0A2B71";
shapes = (
{
alignment = -1;
pos = (407,0);
ref = "Softsign-cy";
},
{
closed = 1;
nodes = (
(196,328,l),
(502,328,l),
(502,486,l),
(196,486,l)
);
},
{
closed = 1;
nodes = (
(62,0,l),
(258,0,l),
(258,710,l),
(62,710,l)
);
}
);
width = 1103;
}
);
metricLeft = H;
metricRight = B;
unicode = 1034;
},
{
glyphname = "Ereversed-cy";
kernLeft = O;
kernRight = O;
lastChange = "2023-11-11 19:46:58 +0000";
layers = (
{
background = {
shapes = (
{
closed = 1;
nodes = (
(30,249,l),
(62,83,o),
(175,-16,o),
(345,-16,cs),
(548,-16,o),
(670,125,o),
(670,354,cs),
(670,585,o),
(548,726,o),
(345,726,cs),
(175,726,o),
(62,628,o),
(30,460,c),
(124,460,l),
(153,574,o),
(231,640,o),
(345,640,cs),
(491,640,o),
(578,532,o),
(578,354,cs),
(578,178,o),
(491,70,o),
(345,70,cs),
(231,70,o),
(153,136,o),
(124,249,c)
);
},
{
closed = 1;
nodes = (
(285,311,l),
(593,311,l),
(593,397,l),
(285,397,l)
);
}
);
};
layerId = "EE2FFE84-06F1-4AFB-BBEC-60D09A436D14";
shapes = (
{
closed = 1;
nodes = (
(51,227,l),
(83,83,o),
(190,-16,o),
(348,-16,cs),
(538,-16,o),
(655,127,o),
(655,354,cs),
(655,583,o),
(538,726,o),
(348,726,cs),
(189,726,o),
(82,626,o),
(50,480,c),
(85,480,l),
(115,606,o),
(210,694,o),
(348,694,cs),
(517,694,o),
(621,563,o),
(621,354,cs),
(621,146,o),
(517,16,o),
(348,16,cs),
(210,16,o),
(116,102,o),
(85,227,c)
);
},
{
closed = 1;
nodes = (
(306,339,l),
(643,339,l),
(643,369,l),
(306,369,l)
);
}
);
width = 705;
},
{
layerId = "6C190511-B94A-4F5A-B519-D6E9DB0E7B93";
shapes = (
{
closed = 1;
nodes = (
(49,248,l),
(81,83,o),
(194,-16,o),
(363,-16,cs),
(566,-16,o),
(688,125,o),
(688,354,cs),
(688,585,o),
(566,726,o),
(363,726,cs),
(194,726,o),
(81,628,o),
(49,461,c),
(141,461,l),
(170,575,o),
(249,642,o),
(363,642,cs),
(510,642,o),
(598,533,o),
(598,354,cs),
(598,177,o),
(510,68,o),
(363,68,cs),
(249,68,o),
(170,135,o),
(141,248,c)
);
},
{
closed = 1;
nodes = (
(304,312,l),
(613,312,l),
(613,396,l),
(304,396,l)
);
}
);
width = 736.9;
},
{
layerId = "3507EE3D-0D92-4546-A145-3A991F0A2B71";
shapes = (
{
closed = 1;
nodes = (
(35,258,l),
(69,87,o),
(194,-16,o),
(386,-16,cs),
(611,-16,o),
(745,126,o),
(745,354,cs),
(745,584,o),
(611,726,o),
(386,726,cs),
(194,726,o),
(68,623,o),
(35,450,c),
(242,450,l),
(263,526,o),
(313,569,o),
(386,569,cs),
(488,569,o),
(545,490,o),
(545,354,cs),
(545,219,o),
(488,141,o),
(386,141,cs),
(313,141,o),
(263,183,o),
(242,258,c)
);
},
{
closed = 1;
nodes = (
(353,285,l),
(653,285,l),
(653,424,l),
(353,424,l)
);
}
);
width = 780;
}
);
metricLeft = O;
metricRight = O;
unicode = 1069;
},
{
color = 8;
glyphname = "Tshe-cy";
kernLeft = T;
lastChange = "2023-11-11 19:46:58 +0000";
layers = (
{
layerId = "EE2FFE84-06F1-4AFB-BBEC-60D09A436D14";
shapes = (
{
pos = (110,0);
ref = "Shha-cy";
},
{
closed = 1;
nodes = (
(28,680,l),
(482,680,l),
(482,710,l),
(28,710,l)
);
}
);
width = 706;
},
{
layerId = "6C190511-B94A-4F5A-B519-D6E9DB0E7B93";
shapes = (
{
pos = (127,0);
ref = "Shha-cy";
},
{
closed = 1;
nodes = (
(25,626,l),
(519,626,l),
(519,710,l),
(25,710,l)
);
}
);
width = 779;
},
{
layerId = "3507EE3D-0D92-4546-A145-3A991F0A2B71";
shapes = (
{
pos = (131,0);
ref = "Shha-cy";
},
{
closed = 1;
nodes = (
(29,553,l),
(583,553,l),
(583,710,l),
(29,710,l)
);
}
);
width = 816;
}
);
metricLeft = T;
unicode = 1035;
},
{
glyphname = "Yu-cy";
kernLeft = H;
kernRight = O;
lastChange = "2023-11-11 19:46:58 +0000";
layers = (
{
layerId = "EE2FFE84-06F1-4AFB-BBEC-60D09A436D14";
shapes = (
{
pos = (197,0);
ref = O;
},
{
closed = 1;
nodes = (
(120,340,l),
(270,340,l),
(270,370,l),
(120,370,l)
);
},
{
closed = 1;
nodes = (
(96,0,l),
(128,0,l),
(128,710,l),
(96,710,l)
);
}
);
width = 911;
},
{
layerId = "6C190511-B94A-4F5A-B519-D6E9DB0E7B93";
shapes = (
{
alignment = -1;
pos = (247,0);
ref = O;
},
{
closed = 1;
nodes = (
(170,313,l),
(359,313,l),
(359,397,l),
(170,397,l)
);
},
{
closed = 1;
nodes = (
(92,0,l),
(178,0,l),
(178,710,l),
(92,710,l)
);
}
);
width = 994.13333;
},
{
layerId = "3507EE3D-0D92-4546-A145-3A991F0A2B71";
shapes = (
{
alignment = -1;
pos = (299,0);
ref = O;
},
{
closed = 1;
nodes = (
(222,276,l),
(411,276,l),
(411,434,l),
(222,434,l)
);
},
{
closed = 1;
nodes = (
(62,0,l),
(258,0,l),
(258,710,l),
(62,710,l)
);
}
);
width = 1088.13615;
}
);
metricLeft = H;
metricRight = O;
unicode = 1070;
},
{
color = 8;
glyphname = "Dje-cy";
kernLeft = T;
kernRight = B;
lastChange = "2023-11-11 19:46:58 +0000";
layers = (
{
layerId = "EE2FFE84-06F1-4AFB-BBEC-60D09A436D14";
shapes = (
{
closed = 1;
nodes = (
(206,0,l),
(238,0,l),
(238,247,ls),
(238,361,o),
(326,440,o),
(442,440,cs),
(554,440,o),
(624,361,o),
(624,232,cs),
(624,108,o),
(542,30,o),
(402,30,c),
(402,0,l),
(562,0,o),
(658,89,o),
(658,232,cs),
(658,379,o),
(575,472,o),
(442,472,cs),
(336,472,o),
(240,403,o),
(234,315,c),
(238,315,l),
(238,710,l),
(206,710,l)
);
},
{
closed = 1;
nodes = (
(28,680,l),
(482,680,l),
(482,710,l),
(28,710,l)
);
}
);
width = 698;
},
{
layerId = "6C190511-B94A-4F5A-B519-D6E9DB0E7B93";
shapes = (
{
closed = 1;
nodes = (
(219,0,l),
(305,0,l),
(305,241,ls),
(305,327,o),
(386,388,o),
(503,388,cs),
(593,388,o),
(649,331,o),
(649,239,cs),
(649,144,o),
(576,84,o),
(453,84,c),
(453,0,l),
(629,0,o),
(739,92,o),
(739,239,cs),
(739,376,o),
(642,472,o),
(503,472,cs),
(384,472,o),
(291,402,o),
(291,314,c),
(305,343,l),
(305,710,l),
(219,710,l)
);
},
{
closed = 1;
nodes = (
(25,626,l),
(519,626,l),
(519,710,l),
(25,710,l)
);
}
);
width = 779;
},
{
layerId = "3507EE3D-0D92-4546-A145-3A991F0A2B71";
shapes = (
{
closed = 1;
nodes = (
(193,0,l),
(389,0,l),
(389,192,ls),
(389,274,o),
(426,320,o),
(493,320,cs),
(549,320,o),
(587,287,o),
(587,239,cs),
(587,189,o),
(552,157,o),
(485,157,c),
(485,0,l),
(668,0,o),
(783,94,o),
(783,245,cs),
(783,384,o),
(695,472,o),
(556,472,cs),
(439,472,o),
(357,396,o),
(352,287,c),
(389,332,l),
(389,710,l),
(193,710,l)
);
},
{
closed = 1;
nodes = (
(29,553,l),
(583,553,l),
(583,710,l),
(29,710,l)
);
}
);
width = 823;
}
);
metricLeft = T;
unicode = 1026;
},
{
glyphname = "Yat-cy";
kernLeft = H;
kernRight = B;
lastChange = "2023-11-11 19:46:58 +0000";
layers = (
{
layerId = "EE2FFE84-06F1-4AFB-BBEC-60D09A436D14";
shapes = (
{
pos = (86,0);
ref = "Softsign-cy";
},
{
closed = 1;
nodes = (
(66,550,l),
(331,550,l),
(331,580,l),
(66,580,l)
);
}
);
width = 714;
},
{
layerId = "6C190511-B94A-4F5A-B519-D6E9DB0E7B93";
shapes = (
{
alignment = -1;
pos = (86,0);
ref = "Softsign-cy";
},
{
closed = 1;
nodes = (
(62,530,l),
(381,530,l),
(381,614,l),
(62,614,l)
);
}
);
width = 746;
},
{
layerId = "3507EE3D-0D92-4546-A145-3A991F0A2B71";
shapes = (
{
alignment = -1;
pos = (53,0);
ref = "Softsign-cy";
},
{
closed = 1;
nodes = (
(32,530,l),
(395,530,l),
(395,623,l),
(32,623,l)
);
}
);
width = 749;
}
);
metricLeft = "=H-30";
metricRight = B;
unicode = 1122;
},
{
glyphname = "Yusbig-cy";
kernLeft = X;
kernRight = X;
lastChange = "2023-11-11 19:46:58 +0000";
layers = (
{
layerId = "EE2FFE84-06F1-4AFB-BBEC-60D09A436D14";
shapes = (
{
closed = 1;
nodes = (
(272,370,ls),
(218,370,o),
(178,343,o),
(154,288,cs),
(30,0,l),
(65,0,l),
(172,255,ls),
(198,317,o),
(226,340,o),
(272,340,cs),
(401,340,ls),
(447,340,o),
(475,317,o),
(501,255,cs),
(608,0,l),
(643,0,l),
(519,288,ls),
(495,343,o),
(456,370,o),
(401,370,cs)
);
},
{
closed = 1;
nodes = (
(321,0,l),
(353,0,l),
(353,360,l),
(321,360,l)
);
},
{
closed = 1;
nodes = (
(99,680,l),
(575,680,l),
(575,710,l),
(99,710,l)
);
},
{
closed = 1;
nodes = (
(313,352,l),
(349,352,l),
(135,680,l),
(99,680,l)
);
},
{
closed = 1;
nodes = (
(539,680,l),
(325,352,l),
(361,352,l),
(575,680,l)
);
}
);
width = 673;
},
{
layerId = "6C190511-B94A-4F5A-B519-D6E9DB0E7B93";
shapes = (
{
closed = 1;
nodes = (
(259,389,ls),
(211,389,o),
(167,358,o),
(140,289,cs),
(27,0,l),
(123,0,l),
(218,248,ls),
(235,292,o),
(252,305,o),
(279,305,cs),
(427,305,ls),
(454,305,o),
(471,292,o),
(487,248,cs),
(583,0,l),
(679,0,l),
(565,289,ls),
(539,358,o),
(495,389,o),
(446,389,cs)
);
},
{
closed = 1;
nodes = (
(310,0,l),
(397,0,l),
(397,389,l),
(310,389,l)
);
},
{
closed = 1;
nodes = (
(96,626,l),
(611,626,l),
(611,710,l),
(96,710,l)
);
},
{
closed = 1;
nodes = (
(310,307,l),
(412,307,l),
(198,626,l),
(96,626,l)
);
},
{
closed = 1;
nodes = (
(509,626,l),
(295,307,l),
(397,307,l),
(611,626,l)
);
}
);
width = 705.86667;
},
{
layerId = "3507EE3D-0D92-4546-A145-3A991F0A2B71";
shapes = (
{
closed = 1;
nodes = (
(283,383,ls),
(187,383,o),
(126,335,o),
(99,237,cs),
(29,0,l),
(220,0,l),
(264,176,ls),
(275,226,o),
(295,232,o),
(339,232,cs),
(487,232,ls),
(531,232,o),
(551,226,o),
(562,176,cs),
(606,0,l),
(797,0,l),
(727,237,ls),
(700,335,o),
(639,383,o),
(543,383,cs)
);
},
{
closed = 1;
nodes = (
(322,0,l),
(505,0,l),
(505,383,l),
(322,383,l)
);
},
{
closed = 1;
nodes = (
(102,553,l),
(725,553,l),
(725,710,l),
(102,710,l)
);
},
{
closed = 1;
nodes = (
(323,269,l),
(509,269,l),
(288,553,l),
(102,553,l)
);
},
{
closed = 1;
nodes = (
(539,553,l),
(318,269,l),
(504,269,l),
(725,553,l)
);
}
);
width = 825.92019;
}
);
metricLeft = X;
metricRight = X;
unicode = 1130;
},
{
color = 8;
glyphname = "Fita-cy";
kernLeft = O;
kernRight = O;
lastChange = "2023-11-11 19:46:58 +0000";
layers = (
{
layerId = "EE2FFE84-06F1-4AFB-BBEC-60D09A436D14";
shapes = (
{
ref = O;
},
{
closed = 1;
nodes = (
(70,336,l),
(102,362,o),
(138,375,o),
(185,378,cs),
(224,381,o),
(279,370,o),
(327,350,cs),
(442,302,o),
(468,298,o),
(507,300,cs),
(555,303,o),
(600,321,o),
(643,352,c),
(643,395,l),
(592,352,o),
(554,335,o),
(505,332,cs),
(459,329,o),
(444,333,o),
(325,384,cs),
(282,402,o),
(223,413,o),
(182,410,cs),
(136,407,o),
(102,397,o),
(70,377,c)
);
}
);
width = 714;
},
{
layerId = "6C190511-B94A-4F5A-B519-D6E9DB0E7B93";
shapes = (
{
ref = O;
},
{
closed = 1;
nodes = (
(108,300,l),
(140,327,o),
(175,341,o),
(217,346,cs),
(256,350,o),
(311,341,o),
(358,323,cs),
(477,279,o),
(499,275,o),
(542,279,cs),
(575,283,o),
(606,293,o),
(637,310,c),
(633,405,l),
(601,380,o),
(570,369,o),
(533,365,cs),
(487,360,o),
(472,364,o),
(351,410,cs),
(308,427,o),
(249,436,o),
(207,431,cs),
(168,428,o),
(135,417,o),
(103,397,c)
);
}
);
width = 747;
},
{
layerId = "3507EE3D-0D92-4546-A145-3A991F0A2B71";
shapes = (
{
ref = O;
},
{
closed = 1;
nodes = (
(169,251,l),
(197,276,o),
(234,296,o),
(265,302,cs),
(289,306,o),
(334,299,o),
(383,282,cs),
(457,259,o),
(528,249,o),
(565,258,cs),
(577,260,o),
(598,272,o),
(619,288,c),
(607,454,l),
(586,432,o),
(558,415,o),
(535,411,cs),
(505,404,o),
(448,414,o),
(385,436,cs),
(332,456,o),
(274,464,o),
(235,455,cs),
(231,454,o),
(201,442,o),
(157,424,c)
);
}
);
width = 789;
}
);
metricLeft = O;
metricRight = O;
unicode = 1138;
},
{
color = 8;
glyphname = "Izhitsa-cy";
kernLeft = V;
kernRight = V;
lastChange = "2023-11-11 19:46:58 +0000";
layers = (
{
layerId = "EE2FFE84-06F1-4AFB-BBEC-60D09A436D14";
shapes = (
{
closed = 1;
nodes = (
(303,0,l),
(339,0,l),
(584,624,ls),
(599,661,o),
(627,680,o),
(667,680,cs),
(690,680,l),
(690,710,l),
(664,710,ls),
(610,710,o),
(574,685,o),
(554,635,cs),
(321,34,l),
(59,710,l),
(24,710,l)
);
}
);
width = 714;
},
{
layerId = "6C190511-B94A-4F5A-B519-D6E9DB0E7B93";
shapes = (
{
closed = 1;
nodes = (
(278,0,l),
(391,0,l),
(585,534,ls),
(611,603,o),
(636,626,o),
(686,626,cs),
(703,626,l),
(703,710,l),
(661,710,ls),
(594,710,o),
(535,660,o),
(507,581,cs),
(335,96,l),
(115,710,l),
(21,710,l)
);
}
);
width = 724;
},
{
layerId = "3507EE3D-0D92-4546-A145-3A991F0A2B71";
shapes = (
{
closed = 1;
nodes = (
(284,0,l),
(505,0,l),
(677,477,ls),
(697,532,o),
(727,553,o),
(785,553,cs),
(798,553,l),
(798,710,l),
(744,710,ls),
(627,710,o),
(542,650,o),
(505,543,cs),
(395,222,l),
(226,710,l),
(27,710,l)
);
}
);
width = 826;
}
);
metricLeft = V;
metricRight = V;
unicode = 1140;
},
{
color = 8;
glyphname = "Zhedescender-cy";
kernLeft = X;
kernRight = X;
lastChange = "2023-11-11 19:46:58 +0000";
layers = (
{
layerId = "EE2FFE84-06F1-4AFB-BBEC-60D09A436D14";
shapes = (
{
ref = "Zhe-cy";
},
{
closed = 1;
nodes = (
(812,-150,l),
(844,-150,l),
(844,70,l),
(812,70,l)
);
}
);
width = 869;
},
{
layerId = "6C190511-B94A-4F5A-B519-D6E9DB0E7B93";
shapes = (
{
ref = "Zhe-cy";
},
{
closed = 1;
nodes = (
(862,-150,l),
(948,-150,l),
(948,70,l),
(862,70,l)
);
}
);
width = 970;
},
{
layerId = "3507EE3D-0D92-4546-A145-3A991F0A2B71";
shapes = (
{
ref = "Zhe-cy";
},
{
closed = 1;
nodes = (
(962,-150,l),
(1158,-150,l),
(1158,110,l),
(962,110,l)
);
}
);
width = 1182;
}
);
metricLeft = X;
metricRight = "=X-5";
unicode = 1174;
},
{
color = 8;
glyphname = "Kadescender-cy";
kernLeft = H;
kernRight = X;
lastChange = "2023-11-11 19:46:58 +0000";
layers = (
{
layerId = "EE2FFE84-06F1-4AFB-BBEC-60D09A436D14";
shapes = (
{
ref = "Ka-cy";
},
{
closed = 1;
nodes = (
(496,-150,l),
(528,-150,l),
(528,70,l),
(496,70,l)
);
}
);
width = 558;
},
{
layerId = "6C190511-B94A-4F5A-B519-D6E9DB0E7B93";
shapes = (
{
ref = "Ka-cy";
},
{
closed = 1;
nodes = (
(552,-150,l),
(638,-150,l),
(638,70,l),
(552,70,l)
);
}
);
width = 665;
},
{
background = {
shapes = (
{
pos = (-370,0);
ref = "Zhedescender-cy";
}
);
};
layerId = "3507EE3D-0D92-4546-A145-3A991F0A2B71";
shapes = (
{
ref = "Ka-cy";
},
{
closed = 1;
nodes = (
(592,-150,l),
(788,-150,l),
(788,110,l),
(592,110,l)
);
}
);
width = 817;
}
);
metricLeft = H;
metricRight = X;
unicode = 1178;
},
{
color = 8;
glyphname = "Endescender-cy";
kernLeft = H;
lastChange = "2023-11-11 19:46:58 +0000";
layers = (
{
layerId = "EE2FFE84-06F1-4AFB-BBEC-60D09A436D14";
shapes = (
{
ref = "En-cy";
},
{
closed = 1;
nodes = (
(579,-150,l),
(611,-150,l),
(611,70,l),
(579,70,l)
);
}
);
width = 687;
},
{
layerId = "6C190511-B94A-4F5A-B519-D6E9DB0E7B93";
shapes = (
{
ref = "En-cy";
},
{
closed = 1;
nodes = (
(592,-150,l),
(678,-150,l),
(678,70,l),
(592,70,l)
);
}
);
width = 750;
},
{
layerId = "3507EE3D-0D92-4546-A145-3A991F0A2B71";
shapes = (
{
ref = "En-cy";
},
{
closed = 1;
nodes = (
(577,-150,l),
(773,-150,l),
(773,110,l),
(577,110,l)
);
}
);
width = 815;
}
);
metricLeft = H;
metricRight = "=H-20";
unicode = 1186;
},
{
color = 8;
glyphname = "Ustraightstroke-cy";
lastChange = "2023-11-11 19:46:58 +0000";
layers = (
{
layerId = "EE2FFE84-06F1-4AFB-BBEC-60D09A436D14";
shapes = (
{
ref = Y;
},
{
closed = 1;
nodes = (
(105,283,l),
(489,283,l),
(489,313,l),
(105,313,l)
);
}
);
width = 593;
},
{
layerId = "6C190511-B94A-4F5A-B519-D6E9DB0E7B93";
shapes = (
{
ref = Y;
},
{
closed = 1;
nodes = (
(103,229,l),
(527,229,l),
(527,313,l),
(103,313,l)
);
}
);
width = 630;
},
{
layerId = "3507EE3D-0D92-4546-A145-3A991F0A2B71";
shapes = (
{
ref = Y;
},
{
closed = 1;
nodes = (
(127,157,l),
(611,157,l),
(611,313,l),
(127,313,l)
);
}
);
width = 739;
}
);
unicode = 1200;
},
{
color = 8;
glyphname = "Hadescender-cy";
kernLeft = X;
kernRight = X;
lastChange = "2023-11-11 19:46:58 +0000";
layers = (
{
layerId = "EE2FFE84-06F1-4AFB-BBEC-60D09A436D14";
shapes = (
{
alignment = -1;
ref = X;
},
{
closed = 1;
nodes = (
(561,-150,l),
(593,-150,l),
(593,70,l),
(561,70,l)
);
}
);
width = 623;
},
{
layerId = "6C190511-B94A-4F5A-B519-D6E9DB0E7B93";
shapes = (
{
alignment = -1;
ref = X;
},
{
closed = 1;
nodes = (
(552,-150,l),
(638,-150,l),
(638,70,l),
(552,70,l)
);
}
);
width = 665;
},
{
layerId = "3507EE3D-0D92-4546-A145-3A991F0A2B71";
shapes = (
{
alignment = -1;
ref = X;
},
{
closed = 1;
nodes = (
(617,-150,l),
(813,-150,l),
(813,110,l),
(617,110,l)
);
}
);
width = 842;
}
);
metricLeft = X;
metricRight = X;
unicode = 1202;
},
{
color = 8;
glyphname = "Chedescender-cy";
lastChange = "2023-11-11 19:46:58 +0000";
layers = (
{
layerId = "EE2FFE84-06F1-4AFB-BBEC-60D09A436D14";
shapes = (
{
ref = "Che-cy";
},
{
closed = 1;
nodes = (
(499,-150,l),
(531,-150,l),
(531,70,l),
(499,70,l)
);
}
);
width = 607;
},
{
layerId = "6C190511-B94A-4F5A-B519-D6E9DB0E7B93";
shapes = (
{
ref = "Che-cy";
},
{
closed = 1;
nodes = (
(547,-150,l),
(633,-150,l),
(633,70,l),
(547,70,l)
);
}
);
width = 705;
},
{
layerId = "3507EE3D-0D92-4546-A145-3A991F0A2B71";
shapes = (
{
ref = "Che-cy";
},
{
closed = 1;
nodes = (
(527,-150,l),
(723,-150,l),
(723,110,l),
(527,110,l)
);
}
);
width = 765;
}
);
metricRight = "=H-20";
unicode = 1206;
},
{
color = 8;
glyphname = "Obarred-cy";
kernLeft = O;
kernRight = O;
lastChange = "2023-11-11 19:46:58 +0000";
layers = (
{
layerId = "EE2FFE84-06F1-4AFB-BBEC-60D09A436D14";
shapes = (
{
ref = O;
},
{
closed = 1;
nodes = (
(74,340,l),
(640,340,l),
(640,370,l),
(74,370,l)
);
}
);
width = 714;
},
{
layerId = "6C190511-B94A-4F5A-B519-D6E9DB0E7B93";
shapes = (
{
ref = O;
},
{
closed = 1;
nodes = (
(91,313,l),
(657,313,l),
(657,397,l),
(91,397,l)
);
}
);
width = 747;
},
{
layerId = "3507EE3D-0D92-4546-A145-3A991F0A2B71";
shapes = (
{
ref = O;
},
{
closed = 1;
nodes = (
(112,277,l),
(678,277,l),
(678,433,l),
(112,433,l)
);
}
);
width = 789;
}
);
metricLeft = O;
metricRight = O;
unicode = 1256;
},
